G04 (created by PCBNEW (2013-07-07 BZR 4022)-stable) date 2/24/2015 5:12:16 PM*
%MOIN*%
G04 Gerber Fmt 3.4, Leading zero omitted, Abs format*
%FSLAX34Y34*%
G01*
G70*
G90*
G04 APERTURE LIST*
%ADD10C,0.00590551*%
%ADD11C,0.065*%
%ADD12C,0.035*%
%ADD13C,0.01*%
G04 APERTURE END LIST*
G54D10*
G54D11*
X73650Y-43350D03*
X73650Y-42350D03*
X74650Y-43350D03*
X74650Y-42350D03*
X75650Y-43350D03*
X75650Y-42350D03*
X76650Y-43350D03*
X76650Y-42350D03*
X77650Y-43350D03*
X77650Y-42350D03*
X78650Y-43350D03*
X78650Y-42350D03*
X79650Y-43350D03*
X79650Y-42350D03*
X80650Y-43350D03*
X80650Y-42350D03*
X81650Y-43350D03*
X81650Y-42350D03*
X82650Y-43350D03*
X82650Y-42350D03*
X83650Y-43350D03*
X83650Y-42350D03*
X84650Y-43350D03*
X84650Y-42350D03*
X85650Y-43350D03*
X85650Y-42350D03*
X86650Y-43350D03*
X86650Y-42350D03*
X87650Y-43350D03*
X87650Y-42350D03*
X88650Y-43350D03*
X88650Y-42350D03*
X89650Y-43350D03*
X89650Y-42350D03*
X90650Y-43350D03*
X90650Y-42350D03*
X91650Y-43350D03*
X91650Y-42350D03*
X92650Y-43350D03*
X92650Y-42350D03*
X93650Y-43350D03*
X93650Y-42350D03*
X94650Y-43350D03*
X94650Y-42350D03*
X95650Y-43350D03*
X95650Y-42350D03*
X73650Y-62350D03*
X73650Y-61350D03*
X74650Y-62350D03*
X74650Y-61350D03*
X75650Y-62350D03*
X75650Y-61350D03*
X76650Y-62350D03*
X76650Y-61350D03*
X77650Y-62350D03*
X77650Y-61350D03*
X78650Y-62350D03*
X78650Y-61350D03*
X79650Y-62350D03*
X79650Y-61350D03*
X80650Y-62350D03*
X80650Y-61350D03*
X81650Y-62350D03*
X81650Y-61350D03*
X82650Y-62350D03*
X82650Y-61350D03*
X83650Y-62350D03*
X83650Y-61350D03*
X84650Y-62350D03*
X84650Y-61350D03*
X85650Y-62350D03*
X85650Y-61350D03*
X86650Y-62350D03*
X86650Y-61350D03*
X87650Y-62350D03*
X87650Y-61350D03*
X88650Y-62350D03*
X88650Y-61350D03*
X89650Y-62350D03*
X89650Y-61350D03*
X90650Y-62350D03*
X90650Y-61350D03*
X91650Y-62350D03*
X91650Y-61350D03*
X92650Y-62350D03*
X92650Y-61350D03*
X93650Y-62350D03*
X93650Y-61350D03*
X94650Y-62350D03*
X94650Y-61350D03*
X95650Y-62350D03*
X95650Y-61350D03*
G54D12*
X76800Y-54900D03*
X76800Y-54400D03*
X96050Y-60150D03*
X67650Y-57400D03*
X84450Y-56250D03*
X79600Y-60050D03*
X88200Y-56200D03*
X67550Y-62100D03*
X86150Y-60650D03*
X88700Y-51400D03*
X86750Y-50150D03*
X79900Y-45100D03*
X77600Y-51200D03*
X75200Y-47200D03*
X74700Y-47200D03*
X74200Y-47200D03*
X78000Y-54200D03*
X89400Y-51300D03*
X88500Y-50400D03*
X86750Y-50900D03*
X87150Y-50650D03*
X82350Y-46350D03*
X82000Y-46000D03*
X81650Y-45650D03*
X90100Y-57500D03*
X90600Y-57400D03*
X90200Y-57000D03*
X88250Y-58200D03*
X88250Y-57700D03*
X88250Y-57150D03*
X99350Y-47200D03*
X99350Y-47700D03*
X99350Y-48200D03*
X99350Y-48700D03*
X93550Y-60150D03*
X94100Y-60150D03*
X95500Y-58800D03*
X95100Y-59150D03*
X78950Y-49950D03*
X78400Y-49950D03*
X76600Y-52500D03*
X76600Y-53000D03*
X73800Y-55450D03*
X73300Y-55450D03*
X72800Y-55450D03*
X69900Y-57350D03*
X69450Y-57350D03*
G54D13*
X77500Y-54200D02*
X77000Y-54200D01*
X77000Y-54200D02*
X76800Y-54400D01*
X87150Y-62850D02*
X86650Y-62350D01*
X89950Y-62850D02*
X87150Y-62850D01*
X90150Y-62650D02*
X89950Y-62850D01*
X90150Y-60950D02*
X90150Y-62650D01*
X90450Y-60650D02*
X90150Y-60950D01*
X95550Y-60650D02*
X90450Y-60650D01*
X96050Y-60150D02*
X95550Y-60650D01*
X82650Y-62350D02*
X83150Y-61850D01*
X83150Y-60950D02*
X83150Y-61850D01*
X82800Y-60600D02*
X83150Y-60950D01*
X70850Y-60600D02*
X82800Y-60600D01*
X70850Y-60600D02*
X67650Y-57400D01*
X83400Y-56250D02*
X79600Y-60050D01*
X88150Y-56250D02*
X84450Y-56250D01*
X84450Y-56250D02*
X83400Y-56250D01*
X88200Y-56200D02*
X88150Y-56250D01*
X83650Y-62350D02*
X83700Y-62350D01*
X85150Y-61850D02*
X85650Y-61350D01*
X84200Y-61850D02*
X85150Y-61850D01*
X83700Y-62350D02*
X84200Y-61850D01*
X82150Y-61850D02*
X82650Y-61350D01*
X82150Y-62600D02*
X82150Y-61850D01*
X81900Y-62850D02*
X82150Y-62600D01*
X68300Y-62850D02*
X81900Y-62850D01*
X67550Y-62100D02*
X68300Y-62850D01*
X87650Y-62350D02*
X87550Y-62350D01*
X86150Y-61650D02*
X86150Y-60650D01*
X86350Y-61850D02*
X86150Y-61650D01*
X87050Y-61850D02*
X86350Y-61850D01*
X87550Y-62350D02*
X87050Y-61850D01*
X88650Y-62350D02*
X89150Y-61850D01*
X89150Y-51850D02*
X88700Y-51400D01*
X89150Y-61850D02*
X89150Y-51850D01*
X85700Y-51200D02*
X77600Y-51200D01*
X86750Y-50150D02*
X85700Y-51200D01*
X77600Y-47400D02*
X77600Y-51200D01*
X79900Y-45100D02*
X77600Y-47400D01*
X74200Y-47200D02*
X74700Y-47200D01*
X86900Y-50900D02*
X86750Y-50900D01*
X87150Y-50650D02*
X86900Y-50900D01*
X81650Y-45650D02*
X82000Y-46000D01*
X90200Y-57000D02*
X90600Y-57400D01*
X88250Y-57150D02*
X88250Y-57700D01*
X99350Y-47700D02*
X99350Y-47200D01*
X99350Y-48700D02*
X99350Y-48200D01*
X94100Y-60150D02*
X93550Y-60150D01*
X95450Y-58800D02*
X95500Y-58800D01*
X95100Y-59150D02*
X95450Y-58800D01*
X78400Y-49950D02*
X78950Y-49950D01*
X76600Y-52500D02*
X76600Y-53000D01*
X72800Y-55450D02*
X73300Y-55450D01*
X69450Y-57350D02*
X69900Y-57350D01*
G54D10*
G36*
X99630Y-58064D02*
X99264Y-59912D01*
X98243Y-61437D01*
X96704Y-62467D01*
X96181Y-62571D01*
X96229Y-62437D01*
X96229Y-61437D01*
X96219Y-61209D01*
X96151Y-61047D01*
X96054Y-61016D01*
X95720Y-61350D01*
X96054Y-61683D01*
X96151Y-61652D01*
X96229Y-61437D01*
X96229Y-62437D01*
X96219Y-62209D01*
X96151Y-62047D01*
X96054Y-62016D01*
X95983Y-62087D01*
X95983Y-61945D01*
X95953Y-61850D01*
X95983Y-61754D01*
X95650Y-61420D01*
X95579Y-61491D01*
X95316Y-61754D01*
X95346Y-61850D01*
X95316Y-61945D01*
X95650Y-62279D01*
X95983Y-61945D01*
X95983Y-62087D01*
X95720Y-62350D01*
X95726Y-62355D01*
X95655Y-62426D01*
X95650Y-62420D01*
X95644Y-62426D01*
X95579Y-62361D01*
X95573Y-62355D01*
X95579Y-62350D01*
X95245Y-62016D01*
X95150Y-62046D01*
X95054Y-62016D01*
X94983Y-62087D01*
X94983Y-61945D01*
X94953Y-61850D01*
X94983Y-61754D01*
X94650Y-61420D01*
X94316Y-61754D01*
X94346Y-61850D01*
X94316Y-61945D01*
X94650Y-62279D01*
X94983Y-61945D01*
X94983Y-62087D01*
X94720Y-62350D01*
X95054Y-62683D01*
X95150Y-62653D01*
X95245Y-62683D01*
X95200Y-62728D01*
X95231Y-62759D01*
X94965Y-62812D01*
X94983Y-62754D01*
X94650Y-62420D01*
X94316Y-62754D01*
X94340Y-62830D01*
X93982Y-62830D01*
X94137Y-62676D01*
X94147Y-62651D01*
X94148Y-62652D01*
X94245Y-62683D01*
X94579Y-62350D01*
X94245Y-62016D01*
X94148Y-62047D01*
X94147Y-62048D01*
X94137Y-62024D01*
X93976Y-61862D01*
X93945Y-61850D01*
X93975Y-61837D01*
X94137Y-61676D01*
X94147Y-61651D01*
X94148Y-61652D01*
X94245Y-61683D01*
X94579Y-61350D01*
X94573Y-61344D01*
X94644Y-61273D01*
X94650Y-61279D01*
X94655Y-61273D01*
X94726Y-61344D01*
X94720Y-61350D01*
X95054Y-61683D01*
X95150Y-61653D01*
X95245Y-61683D01*
X95579Y-61350D01*
X95573Y-61344D01*
X95644Y-61273D01*
X95650Y-61279D01*
X95983Y-60945D01*
X95952Y-60848D01*
X95823Y-60801D01*
X96049Y-60574D01*
X96134Y-60575D01*
X96290Y-60510D01*
X96410Y-60391D01*
X96474Y-60234D01*
X96475Y-60065D01*
X96410Y-59909D01*
X96291Y-59789D01*
X96134Y-59725D01*
X95965Y-59724D01*
X95809Y-59789D01*
X95689Y-59908D01*
X95625Y-60065D01*
X95624Y-60150D01*
X95425Y-60350D01*
X90450Y-60350D01*
X90335Y-60372D01*
X90237Y-60437D01*
X89937Y-60737D01*
X89880Y-60823D01*
X89764Y-60775D01*
X89536Y-60774D01*
X89450Y-60810D01*
X89450Y-51850D01*
X89427Y-51735D01*
X89362Y-51637D01*
X89124Y-51400D01*
X89125Y-51315D01*
X89060Y-51159D01*
X88941Y-51039D01*
X88784Y-50975D01*
X88615Y-50974D01*
X88459Y-51039D01*
X88339Y-51158D01*
X88275Y-51315D01*
X88274Y-51484D01*
X88339Y-51640D01*
X88458Y-51760D01*
X88615Y-51824D01*
X88700Y-51825D01*
X88850Y-51974D01*
X88850Y-60810D01*
X88764Y-60775D01*
X88536Y-60774D01*
X88324Y-60862D01*
X88162Y-61023D01*
X88150Y-61054D01*
X88137Y-61024D01*
X87976Y-60862D01*
X87764Y-60775D01*
X87536Y-60774D01*
X87324Y-60862D01*
X87162Y-61023D01*
X87150Y-61054D01*
X87137Y-61024D01*
X86976Y-60862D01*
X86764Y-60775D01*
X86558Y-60774D01*
X86574Y-60734D01*
X86575Y-60565D01*
X86510Y-60409D01*
X86391Y-60289D01*
X86234Y-60225D01*
X86065Y-60224D01*
X85909Y-60289D01*
X85789Y-60408D01*
X85725Y-60565D01*
X85724Y-60734D01*
X85741Y-60775D01*
X85536Y-60774D01*
X85324Y-60862D01*
X85162Y-61023D01*
X85150Y-61054D01*
X85137Y-61024D01*
X84976Y-60862D01*
X84764Y-60775D01*
X84536Y-60774D01*
X84324Y-60862D01*
X84162Y-61023D01*
X84150Y-61054D01*
X84137Y-61024D01*
X83976Y-60862D01*
X83764Y-60775D01*
X83536Y-60774D01*
X83419Y-60823D01*
X83362Y-60737D01*
X83362Y-60737D01*
X83012Y-60387D01*
X82914Y-60322D01*
X82800Y-60300D01*
X79951Y-60300D01*
X79960Y-60291D01*
X80024Y-60134D01*
X80025Y-60049D01*
X83524Y-56550D01*
X84148Y-56550D01*
X84208Y-56610D01*
X84365Y-56674D01*
X84534Y-56675D01*
X84690Y-56610D01*
X84751Y-56550D01*
X87948Y-56550D01*
X87958Y-56560D01*
X88115Y-56624D01*
X88284Y-56625D01*
X88440Y-56560D01*
X88560Y-56441D01*
X88624Y-56284D01*
X88625Y-56115D01*
X88560Y-55959D01*
X88441Y-55839D01*
X88284Y-55775D01*
X88115Y-55774D01*
X87959Y-55839D01*
X87848Y-55950D01*
X87175Y-55950D01*
X87175Y-50065D01*
X87110Y-49909D01*
X86991Y-49789D01*
X86834Y-49725D01*
X86665Y-49724D01*
X86509Y-49789D01*
X86389Y-49908D01*
X86325Y-50065D01*
X86324Y-50150D01*
X85575Y-50900D01*
X77901Y-50900D01*
X77900Y-50898D01*
X77900Y-47524D01*
X79899Y-45524D01*
X79984Y-45525D01*
X80140Y-45460D01*
X80260Y-45341D01*
X80324Y-45184D01*
X80325Y-45015D01*
X80260Y-44859D01*
X80141Y-44739D01*
X79984Y-44675D01*
X79815Y-44674D01*
X79659Y-44739D01*
X79539Y-44858D01*
X79475Y-45015D01*
X79474Y-45100D01*
X77387Y-47187D01*
X77322Y-47285D01*
X77300Y-47400D01*
X77300Y-50898D01*
X77239Y-50958D01*
X77175Y-51115D01*
X77174Y-51284D01*
X77239Y-51440D01*
X77358Y-51560D01*
X77515Y-51624D01*
X77684Y-51625D01*
X77840Y-51560D01*
X77901Y-51500D01*
X85700Y-51500D01*
X85700Y-51499D01*
X85814Y-51477D01*
X85814Y-51477D01*
X85912Y-51412D01*
X86749Y-50574D01*
X86834Y-50575D01*
X86990Y-50510D01*
X87110Y-50391D01*
X87174Y-50234D01*
X87175Y-50065D01*
X87175Y-55950D01*
X84751Y-55950D01*
X84691Y-55889D01*
X84534Y-55825D01*
X84365Y-55824D01*
X84209Y-55889D01*
X84148Y-55950D01*
X83400Y-55950D01*
X83285Y-55972D01*
X83187Y-56037D01*
X79600Y-59625D01*
X79515Y-59624D01*
X79359Y-59689D01*
X79239Y-59808D01*
X79175Y-59965D01*
X79174Y-60134D01*
X79239Y-60290D01*
X79249Y-60300D01*
X77800Y-60300D01*
X77800Y-54200D01*
X77777Y-54085D01*
X77712Y-53987D01*
X77614Y-53922D01*
X77500Y-53900D01*
X77000Y-53900D01*
X76885Y-53922D01*
X76807Y-53975D01*
X76807Y-53975D01*
X76715Y-53974D01*
X76559Y-54039D01*
X76439Y-54158D01*
X76375Y-54315D01*
X76374Y-54484D01*
X76439Y-54640D01*
X76448Y-54649D01*
X76439Y-54658D01*
X76375Y-54815D01*
X76374Y-54984D01*
X76439Y-55140D01*
X76558Y-55260D01*
X76715Y-55324D01*
X76884Y-55325D01*
X77040Y-55260D01*
X77160Y-55141D01*
X77224Y-54984D01*
X77225Y-54815D01*
X77160Y-54659D01*
X77151Y-54650D01*
X77160Y-54641D01*
X77218Y-54500D01*
X77500Y-54500D01*
X77614Y-54477D01*
X77712Y-54412D01*
X77777Y-54314D01*
X77800Y-54200D01*
X77800Y-60300D01*
X70974Y-60300D01*
X68074Y-57400D01*
X68075Y-57315D01*
X68010Y-57159D01*
X67891Y-57039D01*
X67734Y-56975D01*
X67565Y-56974D01*
X67409Y-57039D01*
X67289Y-57158D01*
X67225Y-57315D01*
X67224Y-57484D01*
X67289Y-57640D01*
X67408Y-57760D01*
X67565Y-57824D01*
X67650Y-57825D01*
X70637Y-60812D01*
X70637Y-60812D01*
X70735Y-60877D01*
X70849Y-60899D01*
X70850Y-60900D01*
X73330Y-60900D01*
X73316Y-60945D01*
X73650Y-61279D01*
X73983Y-60945D01*
X73969Y-60900D01*
X74286Y-60900D01*
X74162Y-61023D01*
X74152Y-61048D01*
X74151Y-61047D01*
X74054Y-61016D01*
X73720Y-61350D01*
X74054Y-61683D01*
X74151Y-61652D01*
X74152Y-61651D01*
X74162Y-61675D01*
X74323Y-61837D01*
X74354Y-61849D01*
X74324Y-61862D01*
X74162Y-62023D01*
X74152Y-62048D01*
X74151Y-62047D01*
X74054Y-62016D01*
X73983Y-62087D01*
X73983Y-61945D01*
X73953Y-61850D01*
X73983Y-61754D01*
X73650Y-61420D01*
X73579Y-61491D01*
X73579Y-61350D01*
X73245Y-61016D01*
X73148Y-61047D01*
X73070Y-61262D01*
X73080Y-61490D01*
X73148Y-61652D01*
X73245Y-61683D01*
X73579Y-61350D01*
X73579Y-61491D01*
X73316Y-61754D01*
X73346Y-61850D01*
X73316Y-61945D01*
X73650Y-62279D01*
X73983Y-61945D01*
X73983Y-62087D01*
X73720Y-62350D01*
X73726Y-62355D01*
X73655Y-62426D01*
X73650Y-62420D01*
X73644Y-62426D01*
X73573Y-62355D01*
X73579Y-62350D01*
X73245Y-62016D01*
X73148Y-62047D01*
X73070Y-62262D01*
X73080Y-62490D01*
X73105Y-62550D01*
X68424Y-62550D01*
X67974Y-62100D01*
X67975Y-62015D01*
X67910Y-61859D01*
X67791Y-61739D01*
X67634Y-61675D01*
X67465Y-61674D01*
X67309Y-61739D01*
X67189Y-61858D01*
X67125Y-62015D01*
X67124Y-62184D01*
X67189Y-62340D01*
X67308Y-62460D01*
X67465Y-62524D01*
X67550Y-62525D01*
X67714Y-62688D01*
X67546Y-62655D01*
X66828Y-62174D01*
X66343Y-61449D01*
X66169Y-60573D01*
X66169Y-55119D01*
X73900Y-55119D01*
X74003Y-55099D01*
X74090Y-55040D01*
X74149Y-54953D01*
X74169Y-54850D01*
X74169Y-47850D01*
X74149Y-47746D01*
X74090Y-47659D01*
X74003Y-47600D01*
X73983Y-47596D01*
X73983Y-43754D01*
X73650Y-43420D01*
X73579Y-43491D01*
X73579Y-43350D01*
X73245Y-43016D01*
X73148Y-43047D01*
X73070Y-43262D01*
X73080Y-43490D01*
X73148Y-43652D01*
X73245Y-43683D01*
X73579Y-43350D01*
X73579Y-43491D01*
X73316Y-43754D01*
X73347Y-43851D01*
X73562Y-43929D01*
X73790Y-43919D01*
X73952Y-43851D01*
X73983Y-43754D01*
X73983Y-47596D01*
X73900Y-47580D01*
X68419Y-47580D01*
X68419Y-41869D01*
X73340Y-41869D01*
X73316Y-41945D01*
X73650Y-42279D01*
X73983Y-41945D01*
X73959Y-41869D01*
X74317Y-41869D01*
X74162Y-42023D01*
X74152Y-42048D01*
X74151Y-42047D01*
X74054Y-42016D01*
X73720Y-42350D01*
X74054Y-42683D01*
X74151Y-42652D01*
X74152Y-42651D01*
X74162Y-42675D01*
X74323Y-42837D01*
X74354Y-42849D01*
X74324Y-42862D01*
X74162Y-43023D01*
X74152Y-43048D01*
X74151Y-43047D01*
X74054Y-43016D01*
X73983Y-43087D01*
X73983Y-42945D01*
X73953Y-42850D01*
X73983Y-42754D01*
X73650Y-42420D01*
X73579Y-42491D01*
X73579Y-42350D01*
X73245Y-42016D01*
X73148Y-42047D01*
X73070Y-42262D01*
X73080Y-42490D01*
X73148Y-42652D01*
X73245Y-42683D01*
X73579Y-42350D01*
X73579Y-42491D01*
X73316Y-42754D01*
X73346Y-42850D01*
X73316Y-42945D01*
X73650Y-43279D01*
X73983Y-42945D01*
X73983Y-43087D01*
X73720Y-43350D01*
X74054Y-43683D01*
X74151Y-43652D01*
X74152Y-43651D01*
X74162Y-43675D01*
X74323Y-43837D01*
X74535Y-43924D01*
X74763Y-43925D01*
X74975Y-43837D01*
X75137Y-43676D01*
X75149Y-43645D01*
X75162Y-43675D01*
X75323Y-43837D01*
X75535Y-43924D01*
X75763Y-43925D01*
X75975Y-43837D01*
X76137Y-43676D01*
X76149Y-43645D01*
X76162Y-43675D01*
X76323Y-43837D01*
X76535Y-43924D01*
X76763Y-43925D01*
X76975Y-43837D01*
X77137Y-43676D01*
X77149Y-43645D01*
X77162Y-43675D01*
X77323Y-43837D01*
X77535Y-43924D01*
X77763Y-43925D01*
X77975Y-43837D01*
X78137Y-43676D01*
X78149Y-43645D01*
X78162Y-43675D01*
X78323Y-43837D01*
X78535Y-43924D01*
X78763Y-43925D01*
X78975Y-43837D01*
X79137Y-43676D01*
X79149Y-43645D01*
X79162Y-43675D01*
X79323Y-43837D01*
X79535Y-43924D01*
X79763Y-43925D01*
X79975Y-43837D01*
X80137Y-43676D01*
X80149Y-43645D01*
X80162Y-43675D01*
X80323Y-43837D01*
X80535Y-43924D01*
X80763Y-43925D01*
X80975Y-43837D01*
X81137Y-43676D01*
X81149Y-43645D01*
X81162Y-43675D01*
X81323Y-43837D01*
X81535Y-43924D01*
X81763Y-43925D01*
X81975Y-43837D01*
X82137Y-43676D01*
X82149Y-43645D01*
X82162Y-43675D01*
X82323Y-43837D01*
X82535Y-43924D01*
X82763Y-43925D01*
X82975Y-43837D01*
X83137Y-43676D01*
X83149Y-43645D01*
X83162Y-43675D01*
X83323Y-43837D01*
X83535Y-43924D01*
X83763Y-43925D01*
X83975Y-43837D01*
X84137Y-43676D01*
X84149Y-43645D01*
X84162Y-43675D01*
X84323Y-43837D01*
X84535Y-43924D01*
X84763Y-43925D01*
X84975Y-43837D01*
X85137Y-43676D01*
X85149Y-43645D01*
X85162Y-43675D01*
X85323Y-43837D01*
X85535Y-43924D01*
X85763Y-43925D01*
X85975Y-43837D01*
X86137Y-43676D01*
X86149Y-43645D01*
X86162Y-43675D01*
X86323Y-43837D01*
X86535Y-43924D01*
X86763Y-43925D01*
X86975Y-43837D01*
X87137Y-43676D01*
X87149Y-43645D01*
X87162Y-43675D01*
X87323Y-43837D01*
X87535Y-43924D01*
X87763Y-43925D01*
X87975Y-43837D01*
X88137Y-43676D01*
X88149Y-43645D01*
X88162Y-43675D01*
X88323Y-43837D01*
X88535Y-43924D01*
X88763Y-43925D01*
X88975Y-43837D01*
X89137Y-43676D01*
X89149Y-43645D01*
X89162Y-43675D01*
X89323Y-43837D01*
X89535Y-43924D01*
X89763Y-43925D01*
X89975Y-43837D01*
X90137Y-43676D01*
X90149Y-43645D01*
X90162Y-43675D01*
X90323Y-43837D01*
X90535Y-43924D01*
X90763Y-43925D01*
X90975Y-43837D01*
X91137Y-43676D01*
X91149Y-43645D01*
X91162Y-43675D01*
X91323Y-43837D01*
X91535Y-43924D01*
X91763Y-43925D01*
X91975Y-43837D01*
X92137Y-43676D01*
X92149Y-43645D01*
X92162Y-43675D01*
X92323Y-43837D01*
X92535Y-43924D01*
X92763Y-43925D01*
X92975Y-43837D01*
X93137Y-43676D01*
X93149Y-43645D01*
X93162Y-43675D01*
X93323Y-43837D01*
X93535Y-43924D01*
X93763Y-43925D01*
X93975Y-43837D01*
X94137Y-43676D01*
X94149Y-43645D01*
X94162Y-43675D01*
X94323Y-43837D01*
X94535Y-43924D01*
X94763Y-43925D01*
X94975Y-43837D01*
X95137Y-43676D01*
X95149Y-43645D01*
X95162Y-43675D01*
X95323Y-43837D01*
X95535Y-43924D01*
X95763Y-43925D01*
X95975Y-43837D01*
X96137Y-43676D01*
X96224Y-43464D01*
X96225Y-43236D01*
X96137Y-43024D01*
X95976Y-42862D01*
X95945Y-42850D01*
X95975Y-42837D01*
X96137Y-42676D01*
X96224Y-42464D01*
X96225Y-42236D01*
X96180Y-42128D01*
X96704Y-42232D01*
X98243Y-43262D01*
X99264Y-44787D01*
X99630Y-46635D01*
X99630Y-58064D01*
X99630Y-58064D01*
G37*
G54D13*
X99630Y-58064D02*
X99264Y-59912D01*
X98243Y-61437D01*
X96704Y-62467D01*
X96181Y-62571D01*
X96229Y-62437D01*
X96229Y-61437D01*
X96219Y-61209D01*
X96151Y-61047D01*
X96054Y-61016D01*
X95720Y-61350D01*
X96054Y-61683D01*
X96151Y-61652D01*
X96229Y-61437D01*
X96229Y-62437D01*
X96219Y-62209D01*
X96151Y-62047D01*
X96054Y-62016D01*
X95983Y-62087D01*
X95983Y-61945D01*
X95953Y-61850D01*
X95983Y-61754D01*
X95650Y-61420D01*
X95579Y-61491D01*
X95316Y-61754D01*
X95346Y-61850D01*
X95316Y-61945D01*
X95650Y-62279D01*
X95983Y-61945D01*
X95983Y-62087D01*
X95720Y-62350D01*
X95726Y-62355D01*
X95655Y-62426D01*
X95650Y-62420D01*
X95644Y-62426D01*
X95579Y-62361D01*
X95573Y-62355D01*
X95579Y-62350D01*
X95245Y-62016D01*
X95150Y-62046D01*
X95054Y-62016D01*
X94983Y-62087D01*
X94983Y-61945D01*
X94953Y-61850D01*
X94983Y-61754D01*
X94650Y-61420D01*
X94316Y-61754D01*
X94346Y-61850D01*
X94316Y-61945D01*
X94650Y-62279D01*
X94983Y-61945D01*
X94983Y-62087D01*
X94720Y-62350D01*
X95054Y-62683D01*
X95150Y-62653D01*
X95245Y-62683D01*
X95200Y-62728D01*
X95231Y-62759D01*
X94965Y-62812D01*
X94983Y-62754D01*
X94650Y-62420D01*
X94316Y-62754D01*
X94340Y-62830D01*
X93982Y-62830D01*
X94137Y-62676D01*
X94147Y-62651D01*
X94148Y-62652D01*
X94245Y-62683D01*
X94579Y-62350D01*
X94245Y-62016D01*
X94148Y-62047D01*
X94147Y-62048D01*
X94137Y-62024D01*
X93976Y-61862D01*
X93945Y-61850D01*
X93975Y-61837D01*
X94137Y-61676D01*
X94147Y-61651D01*
X94148Y-61652D01*
X94245Y-61683D01*
X94579Y-61350D01*
X94573Y-61344D01*
X94644Y-61273D01*
X94650Y-61279D01*
X94655Y-61273D01*
X94726Y-61344D01*
X94720Y-61350D01*
X95054Y-61683D01*
X95150Y-61653D01*
X95245Y-61683D01*
X95579Y-61350D01*
X95573Y-61344D01*
X95644Y-61273D01*
X95650Y-61279D01*
X95983Y-60945D01*
X95952Y-60848D01*
X95823Y-60801D01*
X96049Y-60574D01*
X96134Y-60575D01*
X96290Y-60510D01*
X96410Y-60391D01*
X96474Y-60234D01*
X96475Y-60065D01*
X96410Y-59909D01*
X96291Y-59789D01*
X96134Y-59725D01*
X95965Y-59724D01*
X95809Y-59789D01*
X95689Y-59908D01*
X95625Y-60065D01*
X95624Y-60150D01*
X95425Y-60350D01*
X90450Y-60350D01*
X90335Y-60372D01*
X90237Y-60437D01*
X89937Y-60737D01*
X89880Y-60823D01*
X89764Y-60775D01*
X89536Y-60774D01*
X89450Y-60810D01*
X89450Y-51850D01*
X89427Y-51735D01*
X89362Y-51637D01*
X89124Y-51400D01*
X89125Y-51315D01*
X89060Y-51159D01*
X88941Y-51039D01*
X88784Y-50975D01*
X88615Y-50974D01*
X88459Y-51039D01*
X88339Y-51158D01*
X88275Y-51315D01*
X88274Y-51484D01*
X88339Y-51640D01*
X88458Y-51760D01*
X88615Y-51824D01*
X88700Y-51825D01*
X88850Y-51974D01*
X88850Y-60810D01*
X88764Y-60775D01*
X88536Y-60774D01*
X88324Y-60862D01*
X88162Y-61023D01*
X88150Y-61054D01*
X88137Y-61024D01*
X87976Y-60862D01*
X87764Y-60775D01*
X87536Y-60774D01*
X87324Y-60862D01*
X87162Y-61023D01*
X87150Y-61054D01*
X87137Y-61024D01*
X86976Y-60862D01*
X86764Y-60775D01*
X86558Y-60774D01*
X86574Y-60734D01*
X86575Y-60565D01*
X86510Y-60409D01*
X86391Y-60289D01*
X86234Y-60225D01*
X86065Y-60224D01*
X85909Y-60289D01*
X85789Y-60408D01*
X85725Y-60565D01*
X85724Y-60734D01*
X85741Y-60775D01*
X85536Y-60774D01*
X85324Y-60862D01*
X85162Y-61023D01*
X85150Y-61054D01*
X85137Y-61024D01*
X84976Y-60862D01*
X84764Y-60775D01*
X84536Y-60774D01*
X84324Y-60862D01*
X84162Y-61023D01*
X84150Y-61054D01*
X84137Y-61024D01*
X83976Y-60862D01*
X83764Y-60775D01*
X83536Y-60774D01*
X83419Y-60823D01*
X83362Y-60737D01*
X83362Y-60737D01*
X83012Y-60387D01*
X82914Y-60322D01*
X82800Y-60300D01*
X79951Y-60300D01*
X79960Y-60291D01*
X80024Y-60134D01*
X80025Y-60049D01*
X83524Y-56550D01*
X84148Y-56550D01*
X84208Y-56610D01*
X84365Y-56674D01*
X84534Y-56675D01*
X84690Y-56610D01*
X84751Y-56550D01*
X87948Y-56550D01*
X87958Y-56560D01*
X88115Y-56624D01*
X88284Y-56625D01*
X88440Y-56560D01*
X88560Y-56441D01*
X88624Y-56284D01*
X88625Y-56115D01*
X88560Y-55959D01*
X88441Y-55839D01*
X88284Y-55775D01*
X88115Y-55774D01*
X87959Y-55839D01*
X87848Y-55950D01*
X87175Y-55950D01*
X87175Y-50065D01*
X87110Y-49909D01*
X86991Y-49789D01*
X86834Y-49725D01*
X86665Y-49724D01*
X86509Y-49789D01*
X86389Y-49908D01*
X86325Y-50065D01*
X86324Y-50150D01*
X85575Y-50900D01*
X77901Y-50900D01*
X77900Y-50898D01*
X77900Y-47524D01*
X79899Y-45524D01*
X79984Y-45525D01*
X80140Y-45460D01*
X80260Y-45341D01*
X80324Y-45184D01*
X80325Y-45015D01*
X80260Y-44859D01*
X80141Y-44739D01*
X79984Y-44675D01*
X79815Y-44674D01*
X79659Y-44739D01*
X79539Y-44858D01*
X79475Y-45015D01*
X79474Y-45100D01*
X77387Y-47187D01*
X77322Y-47285D01*
X77300Y-47400D01*
X77300Y-50898D01*
X77239Y-50958D01*
X77175Y-51115D01*
X77174Y-51284D01*
X77239Y-51440D01*
X77358Y-51560D01*
X77515Y-51624D01*
X77684Y-51625D01*
X77840Y-51560D01*
X77901Y-51500D01*
X85700Y-51500D01*
X85700Y-51499D01*
X85814Y-51477D01*
X85814Y-51477D01*
X85912Y-51412D01*
X86749Y-50574D01*
X86834Y-50575D01*
X86990Y-50510D01*
X87110Y-50391D01*
X87174Y-50234D01*
X87175Y-50065D01*
X87175Y-55950D01*
X84751Y-55950D01*
X84691Y-55889D01*
X84534Y-55825D01*
X84365Y-55824D01*
X84209Y-55889D01*
X84148Y-55950D01*
X83400Y-55950D01*
X83285Y-55972D01*
X83187Y-56037D01*
X79600Y-59625D01*
X79515Y-59624D01*
X79359Y-59689D01*
X79239Y-59808D01*
X79175Y-59965D01*
X79174Y-60134D01*
X79239Y-60290D01*
X79249Y-60300D01*
X77800Y-60300D01*
X77800Y-54200D01*
X77777Y-54085D01*
X77712Y-53987D01*
X77614Y-53922D01*
X77500Y-53900D01*
X77000Y-53900D01*
X76885Y-53922D01*
X76807Y-53975D01*
X76807Y-53975D01*
X76715Y-53974D01*
X76559Y-54039D01*
X76439Y-54158D01*
X76375Y-54315D01*
X76374Y-54484D01*
X76439Y-54640D01*
X76448Y-54649D01*
X76439Y-54658D01*
X76375Y-54815D01*
X76374Y-54984D01*
X76439Y-55140D01*
X76558Y-55260D01*
X76715Y-55324D01*
X76884Y-55325D01*
X77040Y-55260D01*
X77160Y-55141D01*
X77224Y-54984D01*
X77225Y-54815D01*
X77160Y-54659D01*
X77151Y-54650D01*
X77160Y-54641D01*
X77218Y-54500D01*
X77500Y-54500D01*
X77614Y-54477D01*
X77712Y-54412D01*
X77777Y-54314D01*
X77800Y-54200D01*
X77800Y-60300D01*
X70974Y-60300D01*
X68074Y-57400D01*
X68075Y-57315D01*
X68010Y-57159D01*
X67891Y-57039D01*
X67734Y-56975D01*
X67565Y-56974D01*
X67409Y-57039D01*
X67289Y-57158D01*
X67225Y-57315D01*
X67224Y-57484D01*
X67289Y-57640D01*
X67408Y-57760D01*
X67565Y-57824D01*
X67650Y-57825D01*
X70637Y-60812D01*
X70637Y-60812D01*
X70735Y-60877D01*
X70849Y-60899D01*
X70850Y-60900D01*
X73330Y-60900D01*
X73316Y-60945D01*
X73650Y-61279D01*
X73983Y-60945D01*
X73969Y-60900D01*
X74286Y-60900D01*
X74162Y-61023D01*
X74152Y-61048D01*
X74151Y-61047D01*
X74054Y-61016D01*
X73720Y-61350D01*
X74054Y-61683D01*
X74151Y-61652D01*
X74152Y-61651D01*
X74162Y-61675D01*
X74323Y-61837D01*
X74354Y-61849D01*
X74324Y-61862D01*
X74162Y-62023D01*
X74152Y-62048D01*
X74151Y-62047D01*
X74054Y-62016D01*
X73983Y-62087D01*
X73983Y-61945D01*
X73953Y-61850D01*
X73983Y-61754D01*
X73650Y-61420D01*
X73579Y-61491D01*
X73579Y-61350D01*
X73245Y-61016D01*
X73148Y-61047D01*
X73070Y-61262D01*
X73080Y-61490D01*
X73148Y-61652D01*
X73245Y-61683D01*
X73579Y-61350D01*
X73579Y-61491D01*
X73316Y-61754D01*
X73346Y-61850D01*
X73316Y-61945D01*
X73650Y-62279D01*
X73983Y-61945D01*
X73983Y-62087D01*
X73720Y-62350D01*
X73726Y-62355D01*
X73655Y-62426D01*
X73650Y-62420D01*
X73644Y-62426D01*
X73573Y-62355D01*
X73579Y-62350D01*
X73245Y-62016D01*
X73148Y-62047D01*
X73070Y-62262D01*
X73080Y-62490D01*
X73105Y-62550D01*
X68424Y-62550D01*
X67974Y-62100D01*
X67975Y-62015D01*
X67910Y-61859D01*
X67791Y-61739D01*
X67634Y-61675D01*
X67465Y-61674D01*
X67309Y-61739D01*
X67189Y-61858D01*
X67125Y-62015D01*
X67124Y-62184D01*
X67189Y-62340D01*
X67308Y-62460D01*
X67465Y-62524D01*
X67550Y-62525D01*
X67714Y-62688D01*
X67546Y-62655D01*
X66828Y-62174D01*
X66343Y-61449D01*
X66169Y-60573D01*
X66169Y-55119D01*
X73900Y-55119D01*
X74003Y-55099D01*
X74090Y-55040D01*
X74149Y-54953D01*
X74169Y-54850D01*
X74169Y-47850D01*
X74149Y-47746D01*
X74090Y-47659D01*
X74003Y-47600D01*
X73983Y-47596D01*
X73983Y-43754D01*
X73650Y-43420D01*
X73579Y-43491D01*
X73579Y-43350D01*
X73245Y-43016D01*
X73148Y-43047D01*
X73070Y-43262D01*
X73080Y-43490D01*
X73148Y-43652D01*
X73245Y-43683D01*
X73579Y-43350D01*
X73579Y-43491D01*
X73316Y-43754D01*
X73347Y-43851D01*
X73562Y-43929D01*
X73790Y-43919D01*
X73952Y-43851D01*
X73983Y-43754D01*
X73983Y-47596D01*
X73900Y-47580D01*
X68419Y-47580D01*
X68419Y-41869D01*
X73340Y-41869D01*
X73316Y-41945D01*
X73650Y-42279D01*
X73983Y-41945D01*
X73959Y-41869D01*
X74317Y-41869D01*
X74162Y-42023D01*
X74152Y-42048D01*
X74151Y-42047D01*
X74054Y-42016D01*
X73720Y-42350D01*
X74054Y-42683D01*
X74151Y-42652D01*
X74152Y-42651D01*
X74162Y-42675D01*
X74323Y-42837D01*
X74354Y-42849D01*
X74324Y-42862D01*
X74162Y-43023D01*
X74152Y-43048D01*
X74151Y-43047D01*
X74054Y-43016D01*
X73983Y-43087D01*
X73983Y-42945D01*
X73953Y-42850D01*
X73983Y-42754D01*
X73650Y-42420D01*
X73579Y-42491D01*
X73579Y-42350D01*
X73245Y-42016D01*
X73148Y-42047D01*
X73070Y-42262D01*
X73080Y-42490D01*
X73148Y-42652D01*
X73245Y-42683D01*
X73579Y-42350D01*
X73579Y-42491D01*
X73316Y-42754D01*
X73346Y-42850D01*
X73316Y-42945D01*
X73650Y-43279D01*
X73983Y-42945D01*
X73983Y-43087D01*
X73720Y-43350D01*
X74054Y-43683D01*
X74151Y-43652D01*
X74152Y-43651D01*
X74162Y-43675D01*
X74323Y-43837D01*
X74535Y-43924D01*
X74763Y-43925D01*
X74975Y-43837D01*
X75137Y-43676D01*
X75149Y-43645D01*
X75162Y-43675D01*
X75323Y-43837D01*
X75535Y-43924D01*
X75763Y-43925D01*
X75975Y-43837D01*
X76137Y-43676D01*
X76149Y-43645D01*
X76162Y-43675D01*
X76323Y-43837D01*
X76535Y-43924D01*
X76763Y-43925D01*
X76975Y-43837D01*
X77137Y-43676D01*
X77149Y-43645D01*
X77162Y-43675D01*
X77323Y-43837D01*
X77535Y-43924D01*
X77763Y-43925D01*
X77975Y-43837D01*
X78137Y-43676D01*
X78149Y-43645D01*
X78162Y-43675D01*
X78323Y-43837D01*
X78535Y-43924D01*
X78763Y-43925D01*
X78975Y-43837D01*
X79137Y-43676D01*
X79149Y-43645D01*
X79162Y-43675D01*
X79323Y-43837D01*
X79535Y-43924D01*
X79763Y-43925D01*
X79975Y-43837D01*
X80137Y-43676D01*
X80149Y-43645D01*
X80162Y-43675D01*
X80323Y-43837D01*
X80535Y-43924D01*
X80763Y-43925D01*
X80975Y-43837D01*
X81137Y-43676D01*
X81149Y-43645D01*
X81162Y-43675D01*
X81323Y-43837D01*
X81535Y-43924D01*
X81763Y-43925D01*
X81975Y-43837D01*
X82137Y-43676D01*
X82149Y-43645D01*
X82162Y-43675D01*
X82323Y-43837D01*
X82535Y-43924D01*
X82763Y-43925D01*
X82975Y-43837D01*
X83137Y-43676D01*
X83149Y-43645D01*
X83162Y-43675D01*
X83323Y-43837D01*
X83535Y-43924D01*
X83763Y-43925D01*
X83975Y-43837D01*
X84137Y-43676D01*
X84149Y-43645D01*
X84162Y-43675D01*
X84323Y-43837D01*
X84535Y-43924D01*
X84763Y-43925D01*
X84975Y-43837D01*
X85137Y-43676D01*
X85149Y-43645D01*
X85162Y-43675D01*
X85323Y-43837D01*
X85535Y-43924D01*
X85763Y-43925D01*
X85975Y-43837D01*
X86137Y-43676D01*
X86149Y-43645D01*
X86162Y-43675D01*
X86323Y-43837D01*
X86535Y-43924D01*
X86763Y-43925D01*
X86975Y-43837D01*
X87137Y-43676D01*
X87149Y-43645D01*
X87162Y-43675D01*
X87323Y-43837D01*
X87535Y-43924D01*
X87763Y-43925D01*
X87975Y-43837D01*
X88137Y-43676D01*
X88149Y-43645D01*
X88162Y-43675D01*
X88323Y-43837D01*
X88535Y-43924D01*
X88763Y-43925D01*
X88975Y-43837D01*
X89137Y-43676D01*
X89149Y-43645D01*
X89162Y-43675D01*
X89323Y-43837D01*
X89535Y-43924D01*
X89763Y-43925D01*
X89975Y-43837D01*
X90137Y-43676D01*
X90149Y-43645D01*
X90162Y-43675D01*
X90323Y-43837D01*
X90535Y-43924D01*
X90763Y-43925D01*
X90975Y-43837D01*
X91137Y-43676D01*
X91149Y-43645D01*
X91162Y-43675D01*
X91323Y-43837D01*
X91535Y-43924D01*
X91763Y-43925D01*
X91975Y-43837D01*
X92137Y-43676D01*
X92149Y-43645D01*
X92162Y-43675D01*
X92323Y-43837D01*
X92535Y-43924D01*
X92763Y-43925D01*
X92975Y-43837D01*
X93137Y-43676D01*
X93149Y-43645D01*
X93162Y-43675D01*
X93323Y-43837D01*
X93535Y-43924D01*
X93763Y-43925D01*
X93975Y-43837D01*
X94137Y-43676D01*
X94149Y-43645D01*
X94162Y-43675D01*
X94323Y-43837D01*
X94535Y-43924D01*
X94763Y-43925D01*
X94975Y-43837D01*
X95137Y-43676D01*
X95149Y-43645D01*
X95162Y-43675D01*
X95323Y-43837D01*
X95535Y-43924D01*
X95763Y-43925D01*
X95975Y-43837D01*
X96137Y-43676D01*
X96224Y-43464D01*
X96225Y-43236D01*
X96137Y-43024D01*
X95976Y-42862D01*
X95945Y-42850D01*
X95975Y-42837D01*
X96137Y-42676D01*
X96224Y-42464D01*
X96225Y-42236D01*
X96180Y-42128D01*
X96704Y-42232D01*
X98243Y-43262D01*
X99264Y-44787D01*
X99630Y-46635D01*
X99630Y-58064D01*
M02*
