G04 (created by PCBNEW (2013-07-07 BZR 4022)-stable) date 3/24/2015 4:40:49 PM*
%MOIN*%
G04 Gerber Fmt 3.4, Leading zero omitted, Abs format*
%FSLAX34Y34*%
G01*
G70*
G90*
G04 APERTURE LIST*
%ADD10C,0.00590551*%
%ADD11C,0.065*%
G04 APERTURE END LIST*
G54D10*
G54D11*
X73650Y-43350D03*
X73650Y-42350D03*
X74650Y-43350D03*
X74650Y-42350D03*
X75650Y-43350D03*
X75650Y-42350D03*
X76650Y-43350D03*
X76650Y-42350D03*
X77650Y-43350D03*
X77650Y-42350D03*
X78650Y-43350D03*
X78650Y-42350D03*
X79650Y-43350D03*
X79650Y-42350D03*
X80650Y-43350D03*
X80650Y-42350D03*
X81650Y-43350D03*
X81650Y-42350D03*
X82650Y-43350D03*
X82650Y-42350D03*
X83650Y-43350D03*
X83650Y-42350D03*
X84650Y-43350D03*
X84650Y-42350D03*
X85650Y-43350D03*
X85650Y-42350D03*
X86650Y-43350D03*
X86650Y-42350D03*
X87650Y-43350D03*
X87650Y-42350D03*
X88650Y-43350D03*
X88650Y-42350D03*
X89650Y-43350D03*
X89650Y-42350D03*
X90650Y-43350D03*
X90650Y-42350D03*
X91650Y-43350D03*
X91650Y-42350D03*
X92650Y-43350D03*
X92650Y-42350D03*
X93650Y-43350D03*
X93650Y-42350D03*
X94650Y-43350D03*
X94650Y-42350D03*
X95650Y-43350D03*
X95650Y-42350D03*
X73650Y-62350D03*
X73650Y-61350D03*
X74650Y-62350D03*
X74650Y-61350D03*
X75650Y-62350D03*
X75650Y-61350D03*
X76650Y-62350D03*
X76650Y-61350D03*
X77650Y-62350D03*
X77650Y-61350D03*
X78650Y-62350D03*
X78650Y-61350D03*
X79650Y-62350D03*
X79650Y-61350D03*
X80650Y-62350D03*
X80650Y-61350D03*
X81650Y-62350D03*
X81650Y-61350D03*
X82650Y-62350D03*
X82650Y-61350D03*
X83650Y-62350D03*
X83650Y-61350D03*
X84650Y-62350D03*
X84650Y-61350D03*
X85650Y-62350D03*
X85650Y-61350D03*
X86650Y-62350D03*
X86650Y-61350D03*
X87650Y-62350D03*
X87650Y-61350D03*
X88650Y-62350D03*
X88650Y-61350D03*
X89650Y-62350D03*
X89650Y-61350D03*
X90650Y-62350D03*
X90650Y-61350D03*
X91650Y-62350D03*
X91650Y-61350D03*
X92650Y-62350D03*
X92650Y-61350D03*
X93650Y-62350D03*
X93650Y-61350D03*
X94650Y-62350D03*
X94650Y-61350D03*
X95650Y-62350D03*
X95650Y-61350D03*
M02*
