G04 (created by PCBNEW (2013-07-07 BZR 4022)-stable) date 3/24/2015 4:40:49 PM*
%MOIN*%
G04 Gerber Fmt 3.4, Leading zero omitted, Abs format*
%FSLAX34Y34*%
G01*
G70*
G90*
G04 APERTURE LIST*
%ADD10C,0.00590551*%
%ADD11C,0.065*%
%ADD12R,0.135039X0.185039*%
%ADD13R,0.0217X0.0118*%
%ADD14R,0.0276X0.0394*%
%ADD15R,0.0314961X0.023622*%
%ADD16R,0.0551X0.0236*%
%ADD17R,0.025X0.045*%
%ADD18R,0.045X0.025*%
%ADD19C,0.035*%
%ADD20C,0.01*%
%ADD21C,0.012*%
%ADD22C,0.014*%
%ADD23C,0.016*%
G04 APERTURE END LIST*
G54D10*
G54D11*
X73650Y-43350D03*
X73650Y-42350D03*
X74650Y-43350D03*
X74650Y-42350D03*
X75650Y-43350D03*
X75650Y-42350D03*
X76650Y-43350D03*
X76650Y-42350D03*
X77650Y-43350D03*
X77650Y-42350D03*
X78650Y-43350D03*
X78650Y-42350D03*
X79650Y-43350D03*
X79650Y-42350D03*
X80650Y-43350D03*
X80650Y-42350D03*
X81650Y-43350D03*
X81650Y-42350D03*
X82650Y-43350D03*
X82650Y-42350D03*
X83650Y-43350D03*
X83650Y-42350D03*
X84650Y-43350D03*
X84650Y-42350D03*
X85650Y-43350D03*
X85650Y-42350D03*
X86650Y-43350D03*
X86650Y-42350D03*
X87650Y-43350D03*
X87650Y-42350D03*
X88650Y-43350D03*
X88650Y-42350D03*
X89650Y-43350D03*
X89650Y-42350D03*
X90650Y-43350D03*
X90650Y-42350D03*
X91650Y-43350D03*
X91650Y-42350D03*
X92650Y-43350D03*
X92650Y-42350D03*
X93650Y-43350D03*
X93650Y-42350D03*
X94650Y-43350D03*
X94650Y-42350D03*
X95650Y-43350D03*
X95650Y-42350D03*
G54D12*
X75200Y-57900D03*
X97350Y-49200D03*
X97350Y-51550D03*
X95350Y-57100D03*
X92900Y-57100D03*
X82900Y-48800D03*
X78100Y-57500D03*
X80700Y-54500D03*
X92200Y-52100D03*
X92200Y-49100D03*
X87500Y-52300D03*
X72800Y-57900D03*
X84500Y-45500D03*
X82900Y-58400D03*
X85300Y-58300D03*
X89400Y-47500D03*
G54D13*
X80717Y-45297D03*
X80717Y-45100D03*
X80717Y-44903D03*
X81283Y-44903D03*
X81283Y-45100D03*
X81283Y-45297D03*
G54D14*
X89025Y-49700D03*
X89400Y-49700D03*
X89775Y-49700D03*
X89775Y-50700D03*
X89400Y-50700D03*
X89025Y-50700D03*
G54D15*
X78116Y-47100D03*
X77683Y-47100D03*
G54D16*
X77450Y-53750D03*
X75350Y-53750D03*
X77450Y-54250D03*
X77450Y-54750D03*
X77450Y-55250D03*
X75350Y-54250D03*
X75350Y-54750D03*
X75350Y-55250D03*
X77650Y-49950D03*
X79750Y-49950D03*
X77650Y-49450D03*
X77650Y-48950D03*
X77650Y-48450D03*
X79750Y-49450D03*
X79750Y-48950D03*
X79750Y-48450D03*
X67650Y-59350D03*
X69750Y-59350D03*
X67650Y-58850D03*
X67650Y-58350D03*
X67650Y-57850D03*
X69750Y-58850D03*
X69750Y-58350D03*
X69750Y-57850D03*
G54D17*
X76800Y-47100D03*
X76200Y-47100D03*
X67700Y-60400D03*
X68300Y-60400D03*
X74500Y-59900D03*
X73900Y-59900D03*
G54D18*
X70900Y-58300D03*
X70900Y-58900D03*
G54D17*
X93900Y-59300D03*
X94500Y-59300D03*
X91400Y-59300D03*
X92000Y-59300D03*
G54D18*
X78600Y-53900D03*
X78600Y-54500D03*
G54D17*
X75400Y-56150D03*
X74800Y-56150D03*
X78400Y-50900D03*
X79000Y-50900D03*
G54D18*
X81200Y-48700D03*
X81200Y-48100D03*
X66600Y-56300D03*
X66600Y-56900D03*
X76200Y-50600D03*
X76200Y-50000D03*
G54D17*
X77500Y-59400D03*
X78100Y-59400D03*
G54D18*
X76200Y-49300D03*
X76200Y-48700D03*
X81200Y-49500D03*
X81200Y-50100D03*
G54D17*
X89600Y-57050D03*
X89000Y-57050D03*
X89600Y-58200D03*
X89000Y-58200D03*
X89600Y-59300D03*
X89000Y-59300D03*
X71000Y-60400D03*
X70400Y-60400D03*
G54D18*
X87900Y-49800D03*
X87900Y-50400D03*
G54D17*
X69600Y-60400D03*
X69000Y-60400D03*
X69000Y-56700D03*
X69600Y-56700D03*
G54D18*
X67800Y-56300D03*
X67800Y-56900D03*
G54D11*
X73650Y-62350D03*
X73650Y-61350D03*
X74650Y-62350D03*
X74650Y-61350D03*
X75650Y-62350D03*
X75650Y-61350D03*
X76650Y-62350D03*
X76650Y-61350D03*
X77650Y-62350D03*
X77650Y-61350D03*
X78650Y-62350D03*
X78650Y-61350D03*
X79650Y-62350D03*
X79650Y-61350D03*
X80650Y-62350D03*
X80650Y-61350D03*
X81650Y-62350D03*
X81650Y-61350D03*
X82650Y-62350D03*
X82650Y-61350D03*
X83650Y-62350D03*
X83650Y-61350D03*
X84650Y-62350D03*
X84650Y-61350D03*
X85650Y-62350D03*
X85650Y-61350D03*
X86650Y-62350D03*
X86650Y-61350D03*
X87650Y-62350D03*
X87650Y-61350D03*
X88650Y-62350D03*
X88650Y-61350D03*
X89650Y-62350D03*
X89650Y-61350D03*
X90650Y-62350D03*
X90650Y-61350D03*
X91650Y-62350D03*
X91650Y-61350D03*
X92650Y-62350D03*
X92650Y-61350D03*
X93650Y-62350D03*
X93650Y-61350D03*
X94650Y-62350D03*
X94650Y-61350D03*
X95650Y-62350D03*
X95650Y-61350D03*
G54D12*
X71500Y-45600D03*
G54D17*
X80400Y-44200D03*
X81000Y-44200D03*
X84450Y-60300D03*
X83850Y-60300D03*
G54D18*
X85150Y-59900D03*
X85150Y-60500D03*
X92700Y-59300D03*
X92700Y-59900D03*
X97350Y-54450D03*
X97350Y-55050D03*
X98700Y-54450D03*
X98700Y-55050D03*
G54D19*
X76800Y-54900D03*
X76800Y-54400D03*
X99050Y-52950D03*
X67650Y-57400D03*
X84450Y-56250D03*
X79600Y-60050D03*
X88200Y-56200D03*
X85150Y-60900D03*
X67550Y-62100D03*
X86150Y-60650D03*
X88700Y-51400D03*
X86750Y-50150D03*
X79900Y-45100D03*
X77600Y-51200D03*
X93350Y-45750D03*
X93950Y-45750D03*
X94550Y-45750D03*
X95150Y-45750D03*
X99350Y-50550D03*
X99350Y-50000D03*
X99350Y-49450D03*
X99350Y-48900D03*
X94300Y-59950D03*
X93850Y-59950D03*
X75200Y-47200D03*
X74700Y-47200D03*
X74200Y-47200D03*
X78000Y-54200D03*
X89400Y-51300D03*
X88500Y-50400D03*
X86750Y-50900D03*
X87150Y-50650D03*
X82350Y-46350D03*
X82000Y-46000D03*
X81650Y-45650D03*
X90100Y-57500D03*
X90600Y-57400D03*
X90200Y-57000D03*
X88250Y-58200D03*
X88250Y-57700D03*
X88250Y-57150D03*
X95500Y-58800D03*
X95100Y-59150D03*
X78950Y-49950D03*
X78400Y-49950D03*
X76600Y-52500D03*
X76600Y-53000D03*
X73800Y-55450D03*
X73300Y-55450D03*
X72800Y-55450D03*
X69900Y-57350D03*
X69450Y-57350D03*
G54D20*
X76800Y-54400D02*
X76800Y-54900D01*
X89600Y-58200D02*
X89600Y-59300D01*
X89600Y-57050D02*
X89600Y-58200D01*
X91650Y-62350D02*
X91650Y-62300D01*
X91650Y-62300D02*
X91150Y-61800D01*
X91150Y-61800D02*
X91150Y-60850D01*
X91150Y-60850D02*
X89600Y-59300D01*
X84650Y-62350D02*
X85150Y-61850D01*
X88150Y-60150D02*
X89000Y-59300D01*
X88150Y-61650D02*
X88150Y-60150D01*
X87950Y-61850D02*
X88150Y-61650D01*
X85150Y-61850D02*
X87950Y-61850D01*
G54D21*
X93900Y-59300D02*
X92700Y-59300D01*
X92000Y-59300D02*
X92700Y-59300D01*
G54D20*
X95350Y-57100D02*
X95350Y-57350D01*
X93900Y-58800D02*
X93900Y-59300D01*
X95350Y-57350D02*
X93900Y-58800D01*
X92650Y-62350D02*
X92150Y-61850D01*
X92150Y-61850D02*
X92150Y-59300D01*
X92150Y-59300D02*
X92000Y-59300D01*
X97600Y-54450D02*
X97350Y-54450D01*
X93650Y-62350D02*
X93650Y-62300D01*
X93650Y-62300D02*
X94150Y-61800D01*
X94150Y-61800D02*
X94150Y-60800D01*
X94150Y-60800D02*
X94350Y-60600D01*
X94350Y-60600D02*
X94850Y-60600D01*
X94850Y-60600D02*
X97850Y-57600D01*
X97850Y-57600D02*
X97850Y-54700D01*
X97850Y-54700D02*
X97600Y-54450D01*
X97350Y-51550D02*
X97350Y-54450D01*
X79650Y-42350D02*
X79150Y-42850D01*
X79150Y-47850D02*
X79750Y-48450D01*
X79150Y-42850D02*
X79150Y-47850D01*
X81650Y-43350D02*
X81650Y-44250D01*
X80953Y-45297D02*
X80717Y-45297D01*
X81000Y-45250D02*
X80953Y-45297D01*
X81000Y-44750D02*
X81000Y-45250D01*
X81100Y-44650D02*
X81000Y-44750D01*
X81250Y-44650D02*
X81100Y-44650D01*
X81650Y-44250D02*
X81250Y-44650D01*
X78650Y-42350D02*
X78150Y-42850D01*
X78150Y-47066D02*
X78116Y-47100D01*
X78150Y-42850D02*
X78150Y-47066D01*
X80650Y-42350D02*
X80150Y-42850D01*
X80150Y-43950D02*
X80400Y-44200D01*
X80150Y-42850D02*
X80150Y-43950D01*
X82900Y-45500D02*
X84500Y-45500D01*
X82150Y-44750D02*
X82900Y-45500D01*
X82150Y-42850D02*
X82150Y-44750D01*
X81650Y-42350D02*
X81150Y-42850D01*
X81150Y-44050D02*
X81000Y-44200D01*
X81150Y-42850D02*
X81150Y-44050D01*
X81650Y-42350D02*
X82150Y-42850D01*
X98700Y-54450D02*
X98700Y-52950D01*
X99050Y-52950D02*
X98700Y-52950D01*
X98700Y-52950D02*
X98750Y-52950D01*
X98700Y-53000D02*
X98700Y-52950D01*
X98750Y-52950D02*
X98700Y-53000D01*
X98700Y-52950D02*
X98700Y-50550D01*
X98700Y-50550D02*
X97350Y-49200D01*
X80700Y-54500D02*
X80700Y-59400D01*
X82150Y-61850D02*
X81650Y-62350D01*
X82150Y-60850D02*
X82150Y-61850D01*
X80700Y-59400D02*
X82150Y-60850D01*
X78600Y-54500D02*
X80700Y-54500D01*
X77450Y-54750D02*
X78350Y-54750D01*
X78350Y-54750D02*
X78600Y-54500D01*
X78100Y-57500D02*
X78100Y-55900D01*
X78100Y-55900D02*
X77450Y-55250D01*
X78100Y-57500D02*
X78100Y-59400D01*
X78100Y-59400D02*
X79700Y-59400D01*
X79700Y-59400D02*
X81650Y-61350D01*
X67650Y-57850D02*
X67650Y-57400D01*
X67650Y-57400D02*
X67650Y-57050D01*
X67650Y-57050D02*
X67800Y-56900D01*
X81283Y-44903D02*
X81603Y-44903D01*
X84450Y-47750D02*
X84450Y-56250D01*
X81603Y-44903D02*
X84450Y-47750D01*
X92900Y-57100D02*
X91100Y-57100D01*
X79650Y-60100D02*
X79650Y-61350D01*
X79600Y-60050D02*
X79650Y-60100D01*
X90200Y-56200D02*
X88200Y-56200D01*
X91100Y-57100D02*
X90200Y-56200D01*
X91400Y-59300D02*
X91400Y-58600D01*
X91400Y-58600D02*
X92900Y-57100D01*
X85650Y-61350D02*
X85650Y-60100D01*
X85650Y-60100D02*
X85450Y-59900D01*
X85450Y-59900D02*
X85150Y-59900D01*
G54D21*
X85150Y-59900D02*
X85150Y-58450D01*
X85150Y-58450D02*
X85300Y-58300D01*
G54D20*
X84450Y-60300D02*
X84450Y-59950D01*
X84450Y-59950D02*
X82900Y-58400D01*
X84650Y-61350D02*
X84650Y-60500D01*
X84650Y-60500D02*
X84450Y-60300D01*
X83650Y-61350D02*
X83650Y-60500D01*
X83650Y-60500D02*
X83850Y-60300D01*
G54D21*
X85150Y-60900D02*
X85150Y-60500D01*
G54D20*
X80717Y-44903D02*
X80717Y-43417D01*
X80717Y-43417D02*
X80650Y-43350D01*
X97350Y-57650D02*
X97350Y-57700D01*
X97350Y-57700D02*
X94750Y-60300D01*
X94750Y-60300D02*
X94000Y-60300D01*
X94000Y-60300D02*
X93650Y-60650D01*
X93650Y-60650D02*
X93650Y-61350D01*
X97350Y-55050D02*
X97350Y-57650D01*
X98700Y-55050D02*
X98700Y-58100D01*
X96700Y-60100D02*
X98700Y-58100D01*
X87150Y-62850D02*
X86650Y-62350D01*
X96700Y-62150D02*
X96700Y-61500D01*
X96000Y-62850D02*
X96700Y-62150D01*
X95650Y-62850D02*
X96000Y-62850D01*
X87150Y-62850D02*
X95650Y-62850D01*
X96700Y-61500D02*
X96700Y-60100D01*
X66800Y-58350D02*
X66800Y-61350D01*
X66800Y-61350D02*
X67550Y-62100D01*
X66600Y-58150D02*
X66600Y-56900D01*
X66800Y-58350D02*
X66600Y-58150D01*
X67650Y-58350D02*
X66800Y-58350D01*
X86650Y-61350D02*
X86650Y-55350D01*
X88100Y-47500D02*
X89400Y-47500D01*
X85600Y-50000D02*
X88100Y-47500D01*
X85600Y-54300D02*
X85600Y-50000D01*
X86650Y-55350D02*
X85600Y-54300D01*
X89400Y-47500D02*
X89400Y-49700D01*
X92200Y-47550D02*
X92200Y-49100D01*
X90900Y-46250D02*
X92200Y-47550D01*
X88500Y-46250D02*
X90900Y-46250D01*
X85250Y-49500D02*
X88500Y-46250D01*
X85250Y-54600D02*
X85250Y-49500D01*
X86300Y-55650D02*
X85250Y-54600D01*
X86300Y-60500D02*
X86300Y-55650D01*
X86150Y-60650D02*
X86300Y-60500D01*
X92200Y-49100D02*
X90375Y-49100D01*
X90375Y-49100D02*
X89775Y-49700D01*
X92200Y-52100D02*
X89775Y-52100D01*
X87650Y-61350D02*
X87650Y-54600D01*
X89775Y-52475D02*
X89775Y-52100D01*
X89775Y-52100D02*
X89775Y-50700D01*
X87650Y-54600D02*
X89775Y-52475D01*
X88700Y-51400D02*
X88400Y-51400D01*
X88400Y-51400D02*
X87500Y-52300D01*
X89025Y-51075D02*
X89025Y-50700D01*
X88700Y-51400D02*
X89025Y-51075D01*
X81200Y-48100D02*
X81200Y-45380D01*
X81200Y-45380D02*
X81283Y-45297D01*
X66600Y-56300D02*
X67800Y-56300D01*
X67800Y-56300D02*
X68050Y-56050D01*
X68050Y-56050D02*
X70150Y-56050D01*
X70150Y-56050D02*
X70900Y-56800D01*
X70900Y-56800D02*
X70900Y-58300D01*
X67700Y-60400D02*
X67700Y-60750D01*
X71000Y-60600D02*
X71000Y-60400D01*
X70600Y-61000D02*
X71000Y-60600D01*
X67950Y-61000D02*
X70600Y-61000D01*
X67700Y-60750D02*
X67950Y-61000D01*
X87100Y-49800D02*
X86750Y-50150D01*
X87900Y-49800D02*
X87100Y-49800D01*
X71000Y-60400D02*
X71150Y-60400D01*
X71150Y-60400D02*
X72100Y-59450D01*
X70900Y-58300D02*
X71250Y-58300D01*
X72100Y-59450D02*
X74650Y-59450D01*
X71650Y-59000D02*
X72100Y-59450D01*
X71650Y-58700D02*
X71650Y-59000D01*
X71250Y-58300D02*
X71650Y-58700D01*
G54D22*
X75400Y-56150D02*
X76250Y-56150D01*
X76250Y-56150D02*
X76300Y-56100D01*
X77450Y-53750D02*
X76800Y-53750D01*
X76300Y-56800D02*
X75200Y-57900D01*
X76300Y-56100D02*
X76300Y-56800D01*
X76300Y-54250D02*
X76300Y-56100D01*
X76800Y-53750D02*
X76300Y-54250D01*
G54D20*
X78400Y-50900D02*
X77600Y-50900D01*
G54D21*
X77450Y-53750D02*
X77450Y-51350D01*
X77450Y-51350D02*
X77600Y-51200D01*
G54D20*
X77600Y-51200D02*
X77600Y-50900D01*
X77600Y-50900D02*
X77600Y-50650D01*
X77600Y-50650D02*
X77650Y-50600D01*
X80717Y-45100D02*
X79900Y-45100D01*
X77500Y-59400D02*
X74700Y-59400D01*
X74700Y-59400D02*
X74650Y-59450D01*
G54D23*
X74500Y-59900D02*
X74650Y-59900D01*
X74650Y-62350D02*
X74650Y-61350D01*
X74650Y-61350D02*
X74650Y-59900D01*
X74650Y-59900D02*
X74650Y-59600D01*
X74650Y-59600D02*
X74650Y-59450D01*
X74650Y-59450D02*
X74650Y-59000D01*
X75200Y-58450D02*
X75200Y-57900D01*
X74650Y-59000D02*
X75200Y-58450D01*
G54D20*
X67700Y-60400D02*
X67700Y-59400D01*
X67700Y-59400D02*
X67650Y-59350D01*
X70900Y-58300D02*
X69800Y-58300D01*
X69800Y-58300D02*
X69750Y-58350D01*
X77450Y-53750D02*
X78450Y-53750D01*
X78450Y-53750D02*
X78600Y-53900D01*
X89025Y-49700D02*
X88000Y-49700D01*
X88000Y-49700D02*
X87900Y-49800D01*
X77650Y-49950D02*
X77650Y-50600D01*
X76200Y-50600D02*
X77650Y-50600D01*
X96000Y-47300D02*
X96000Y-46600D01*
X94550Y-45750D02*
X93950Y-45750D01*
X96000Y-46600D02*
X95150Y-45750D01*
X99350Y-49450D02*
X99350Y-50000D01*
X99350Y-48300D02*
X99350Y-48900D01*
X98350Y-47300D02*
X99350Y-48300D01*
X96000Y-47300D02*
X98350Y-47300D01*
X95700Y-47600D02*
X96000Y-47300D01*
X95700Y-49300D02*
X95700Y-47600D01*
X94400Y-50600D02*
X95700Y-49300D01*
X91450Y-50600D02*
X94400Y-50600D01*
X91050Y-50200D02*
X91450Y-50600D01*
X89350Y-50200D02*
X91050Y-50200D01*
X94500Y-59750D02*
X94300Y-59950D01*
X94500Y-59750D02*
X94500Y-59300D01*
X71500Y-45600D02*
X72600Y-45600D01*
X74700Y-47200D02*
X75200Y-47200D01*
X72600Y-45600D02*
X74200Y-47200D01*
X77450Y-54250D02*
X77950Y-54250D01*
X77950Y-54250D02*
X78000Y-54200D01*
X89400Y-50700D02*
X89400Y-51300D01*
X87900Y-50400D02*
X88500Y-50400D01*
X87900Y-50400D02*
X87400Y-50400D01*
X87400Y-50400D02*
X87150Y-50650D01*
X89400Y-50700D02*
X89400Y-50250D01*
X88400Y-50400D02*
X87900Y-50400D01*
X88600Y-50200D02*
X88400Y-50400D01*
X89350Y-50200D02*
X88600Y-50200D01*
X89400Y-50250D02*
X89350Y-50200D01*
X81283Y-45100D02*
X81500Y-45100D01*
X82000Y-46000D02*
X82350Y-46350D01*
X81650Y-45250D02*
X81650Y-45650D01*
X81500Y-45100D02*
X81650Y-45250D01*
X89000Y-57050D02*
X89000Y-56600D01*
X90500Y-57500D02*
X90100Y-57500D01*
X90600Y-57400D02*
X90500Y-57500D01*
X90200Y-56850D02*
X90200Y-57000D01*
X89900Y-56550D02*
X90200Y-56850D01*
X89050Y-56550D02*
X89900Y-56550D01*
X89000Y-56600D02*
X89050Y-56550D01*
X89000Y-57050D02*
X88350Y-57050D01*
X88250Y-57700D02*
X88250Y-58200D01*
X88350Y-57050D02*
X88250Y-57150D01*
X94500Y-59300D02*
X94950Y-59300D01*
X94950Y-59300D02*
X95100Y-59150D01*
X79000Y-50900D02*
X79000Y-50550D01*
X79000Y-50550D02*
X78400Y-49950D01*
X75850Y-53750D02*
X76600Y-53000D01*
X75850Y-53750D02*
X75350Y-53750D01*
X72800Y-57900D02*
X72800Y-55450D01*
X73300Y-55450D02*
X73800Y-55450D01*
X69600Y-56700D02*
X69600Y-57200D01*
X69900Y-57350D02*
X69950Y-57350D01*
X69600Y-57200D02*
X69450Y-57350D01*
X70400Y-60400D02*
X69600Y-60400D01*
X69750Y-59350D02*
X69750Y-60250D01*
X69750Y-60250D02*
X69600Y-60400D01*
X69750Y-58850D02*
X69300Y-58850D01*
X69000Y-58550D02*
X69000Y-56700D01*
X69300Y-58850D02*
X69000Y-58550D01*
X70900Y-58900D02*
X69800Y-58900D01*
X69800Y-58900D02*
X69750Y-58850D01*
X76200Y-50000D02*
X76200Y-49450D01*
X77650Y-49450D02*
X76250Y-49450D01*
X76200Y-49450D02*
X76200Y-49300D01*
X76250Y-49450D02*
X76200Y-49450D01*
X81200Y-48700D02*
X82800Y-48700D01*
X82800Y-48700D02*
X82900Y-48800D01*
X79750Y-48950D02*
X80950Y-48950D01*
X80950Y-48950D02*
X81200Y-48700D01*
X77650Y-48450D02*
X77650Y-47133D01*
X77616Y-47100D02*
X76800Y-47100D01*
X77650Y-47133D02*
X77616Y-47100D01*
X79750Y-49450D02*
X79100Y-49450D01*
X78600Y-48950D02*
X77650Y-48950D01*
X79100Y-49450D02*
X78600Y-48950D01*
X76200Y-48700D02*
X76750Y-48700D01*
X76750Y-48700D02*
X77000Y-48950D01*
X77000Y-48950D02*
X77650Y-48950D01*
X81150Y-49450D02*
X81200Y-49500D01*
X79750Y-49450D02*
X81150Y-49450D01*
G54D10*
G36*
X70600Y-57935D02*
X70533Y-57962D01*
X70496Y-58000D01*
X70275Y-58000D01*
X70275Y-57682D01*
X70237Y-57590D01*
X70167Y-57520D01*
X70075Y-57482D01*
X69975Y-57481D01*
X69975Y-57481D01*
X69975Y-56875D01*
X69975Y-56812D01*
X69912Y-56750D01*
X69650Y-56750D01*
X69650Y-57112D01*
X69712Y-57175D01*
X69774Y-57175D01*
X69866Y-57137D01*
X69936Y-57066D01*
X69974Y-56974D01*
X69975Y-56875D01*
X69975Y-57481D01*
X69862Y-57482D01*
X69800Y-57544D01*
X69800Y-57800D01*
X70213Y-57800D01*
X70275Y-57737D01*
X70275Y-57682D01*
X70275Y-58000D01*
X70275Y-58000D01*
X70275Y-57962D01*
X70213Y-57900D01*
X69800Y-57900D01*
X69800Y-57907D01*
X69700Y-57907D01*
X69700Y-57900D01*
X69692Y-57900D01*
X69692Y-57800D01*
X69700Y-57800D01*
X69700Y-57544D01*
X69637Y-57482D01*
X69524Y-57481D01*
X69424Y-57482D01*
X69332Y-57520D01*
X69300Y-57552D01*
X69300Y-57103D01*
X69333Y-57137D01*
X69425Y-57175D01*
X69487Y-57175D01*
X69550Y-57112D01*
X69550Y-56750D01*
X69542Y-56750D01*
X69542Y-56650D01*
X69550Y-56650D01*
X69550Y-56642D01*
X69650Y-56642D01*
X69650Y-56650D01*
X69912Y-56650D01*
X69975Y-56587D01*
X69975Y-56524D01*
X69974Y-56425D01*
X69943Y-56350D01*
X70025Y-56350D01*
X70600Y-56924D01*
X70600Y-57935D01*
X70600Y-57935D01*
G37*
G54D20*
X70600Y-57935D02*
X70533Y-57962D01*
X70496Y-58000D01*
X70275Y-58000D01*
X70275Y-57682D01*
X70237Y-57590D01*
X70167Y-57520D01*
X70075Y-57482D01*
X69975Y-57481D01*
X69975Y-57481D01*
X69975Y-56875D01*
X69975Y-56812D01*
X69912Y-56750D01*
X69650Y-56750D01*
X69650Y-57112D01*
X69712Y-57175D01*
X69774Y-57175D01*
X69866Y-57137D01*
X69936Y-57066D01*
X69974Y-56974D01*
X69975Y-56875D01*
X69975Y-57481D01*
X69862Y-57482D01*
X69800Y-57544D01*
X69800Y-57800D01*
X70213Y-57800D01*
X70275Y-57737D01*
X70275Y-57682D01*
X70275Y-58000D01*
X70275Y-58000D01*
X70275Y-57962D01*
X70213Y-57900D01*
X69800Y-57900D01*
X69800Y-57907D01*
X69700Y-57907D01*
X69700Y-57900D01*
X69692Y-57900D01*
X69692Y-57800D01*
X69700Y-57800D01*
X69700Y-57544D01*
X69637Y-57482D01*
X69524Y-57481D01*
X69424Y-57482D01*
X69332Y-57520D01*
X69300Y-57552D01*
X69300Y-57103D01*
X69333Y-57137D01*
X69425Y-57175D01*
X69487Y-57175D01*
X69550Y-57112D01*
X69550Y-56750D01*
X69542Y-56750D01*
X69542Y-56650D01*
X69550Y-56650D01*
X69550Y-56642D01*
X69650Y-56642D01*
X69650Y-56650D01*
X69912Y-56650D01*
X69975Y-56587D01*
X69975Y-56524D01*
X69974Y-56425D01*
X69943Y-56350D01*
X70025Y-56350D01*
X70600Y-56924D01*
X70600Y-57935D01*
G54D10*
G36*
X74320Y-61866D02*
X74162Y-62023D01*
X74152Y-62048D01*
X74151Y-62047D01*
X74054Y-62016D01*
X73983Y-62087D01*
X73983Y-61945D01*
X73953Y-61850D01*
X73983Y-61754D01*
X73650Y-61420D01*
X73579Y-61491D01*
X73579Y-61350D01*
X73245Y-61016D01*
X73148Y-61047D01*
X73070Y-61262D01*
X73080Y-61490D01*
X73148Y-61652D01*
X73245Y-61683D01*
X73579Y-61350D01*
X73579Y-61491D01*
X73316Y-61754D01*
X73346Y-61850D01*
X73316Y-61945D01*
X73650Y-62279D01*
X73983Y-61945D01*
X73983Y-62087D01*
X73720Y-62350D01*
X74054Y-62683D01*
X74151Y-62652D01*
X74152Y-62651D01*
X74162Y-62675D01*
X74317Y-62830D01*
X73959Y-62830D01*
X73983Y-62754D01*
X73650Y-62420D01*
X73579Y-62491D01*
X73579Y-62350D01*
X73245Y-62016D01*
X73148Y-62047D01*
X73070Y-62262D01*
X73080Y-62490D01*
X73148Y-62652D01*
X73245Y-62683D01*
X73579Y-62350D01*
X73579Y-62491D01*
X73316Y-62754D01*
X73340Y-62830D01*
X68430Y-62830D01*
X67546Y-62655D01*
X66828Y-62174D01*
X66343Y-61449D01*
X66169Y-60573D01*
X66169Y-57173D01*
X66233Y-57236D01*
X66300Y-57264D01*
X66300Y-58150D01*
X66322Y-58264D01*
X66387Y-58362D01*
X66500Y-58474D01*
X66500Y-61350D01*
X66522Y-61464D01*
X66587Y-61562D01*
X67125Y-62099D01*
X67124Y-62184D01*
X67189Y-62340D01*
X67308Y-62460D01*
X67465Y-62524D01*
X67634Y-62525D01*
X67790Y-62460D01*
X67910Y-62341D01*
X67974Y-62184D01*
X67975Y-62015D01*
X67910Y-61859D01*
X67791Y-61739D01*
X67634Y-61675D01*
X67549Y-61674D01*
X67100Y-61225D01*
X67100Y-58650D01*
X67137Y-58650D01*
X67124Y-58682D01*
X67124Y-58737D01*
X67187Y-58800D01*
X67600Y-58800D01*
X67600Y-58792D01*
X67700Y-58792D01*
X67700Y-58800D01*
X68113Y-58800D01*
X68175Y-58737D01*
X68175Y-58682D01*
X68141Y-58599D01*
X68175Y-58517D01*
X68175Y-58418D01*
X68175Y-58182D01*
X68141Y-58099D01*
X68175Y-58017D01*
X68175Y-57918D01*
X68175Y-57682D01*
X68137Y-57590D01*
X68067Y-57520D01*
X68061Y-57517D01*
X68074Y-57484D01*
X68075Y-57315D01*
X68058Y-57275D01*
X68074Y-57275D01*
X68166Y-57237D01*
X68236Y-57166D01*
X68274Y-57074D01*
X68275Y-56975D01*
X68275Y-56725D01*
X68237Y-56633D01*
X68203Y-56600D01*
X68236Y-56566D01*
X68274Y-56474D01*
X68275Y-56375D01*
X68275Y-56350D01*
X68656Y-56350D01*
X68625Y-56425D01*
X68624Y-56524D01*
X68624Y-56974D01*
X68662Y-57066D01*
X68700Y-57103D01*
X68700Y-58550D01*
X68722Y-58664D01*
X68787Y-58762D01*
X69087Y-59062D01*
X69087Y-59062D01*
X69185Y-59127D01*
X69242Y-59138D01*
X69224Y-59182D01*
X69224Y-59281D01*
X69224Y-59517D01*
X69262Y-59609D01*
X69332Y-59679D01*
X69424Y-59717D01*
X69450Y-59717D01*
X69450Y-59924D01*
X69425Y-59924D01*
X69333Y-59962D01*
X69300Y-59996D01*
X69266Y-59962D01*
X69174Y-59924D01*
X69112Y-59925D01*
X69050Y-59987D01*
X69050Y-60350D01*
X69057Y-60350D01*
X69057Y-60450D01*
X69050Y-60450D01*
X69050Y-60457D01*
X68950Y-60457D01*
X68950Y-60450D01*
X68950Y-60350D01*
X68950Y-59987D01*
X68887Y-59925D01*
X68825Y-59924D01*
X68733Y-59962D01*
X68663Y-60033D01*
X68650Y-60064D01*
X68636Y-60033D01*
X68566Y-59962D01*
X68474Y-59924D01*
X68412Y-59925D01*
X68350Y-59987D01*
X68350Y-60350D01*
X68612Y-60350D01*
X68650Y-60312D01*
X68687Y-60350D01*
X68950Y-60350D01*
X68950Y-60450D01*
X68687Y-60450D01*
X68650Y-60487D01*
X68612Y-60450D01*
X68350Y-60450D01*
X68350Y-60457D01*
X68250Y-60457D01*
X68250Y-60450D01*
X68242Y-60450D01*
X68242Y-60350D01*
X68250Y-60350D01*
X68250Y-59987D01*
X68187Y-59925D01*
X68125Y-59924D01*
X68033Y-59962D01*
X68000Y-59996D01*
X68000Y-59996D01*
X68000Y-59707D01*
X68066Y-59680D01*
X68137Y-59609D01*
X68175Y-59517D01*
X68175Y-59418D01*
X68175Y-59182D01*
X68141Y-59100D01*
X68175Y-59017D01*
X68175Y-58962D01*
X68113Y-58900D01*
X67700Y-58900D01*
X67700Y-58907D01*
X67600Y-58907D01*
X67600Y-58900D01*
X67187Y-58900D01*
X67124Y-58962D01*
X67124Y-59017D01*
X67158Y-59100D01*
X67124Y-59182D01*
X67124Y-59281D01*
X67124Y-59517D01*
X67162Y-59609D01*
X67232Y-59679D01*
X67324Y-59717D01*
X67400Y-59718D01*
X67400Y-59996D01*
X67363Y-60033D01*
X67325Y-60125D01*
X67324Y-60224D01*
X67324Y-60674D01*
X67362Y-60766D01*
X67413Y-60816D01*
X67422Y-60864D01*
X67487Y-60962D01*
X67737Y-61212D01*
X67737Y-61212D01*
X67835Y-61277D01*
X67950Y-61300D01*
X70600Y-61300D01*
X70600Y-61299D01*
X70714Y-61277D01*
X70714Y-61277D01*
X70812Y-61212D01*
X71149Y-60875D01*
X71174Y-60875D01*
X71266Y-60837D01*
X71336Y-60766D01*
X71374Y-60674D01*
X71375Y-60599D01*
X72224Y-59750D01*
X73524Y-59750D01*
X73525Y-59787D01*
X73587Y-59850D01*
X73850Y-59850D01*
X73850Y-59842D01*
X73950Y-59842D01*
X73950Y-59850D01*
X73957Y-59850D01*
X73957Y-59950D01*
X73950Y-59950D01*
X73950Y-60312D01*
X74012Y-60375D01*
X74074Y-60375D01*
X74166Y-60337D01*
X74199Y-60303D01*
X74233Y-60336D01*
X74320Y-60372D01*
X74320Y-60866D01*
X74162Y-61023D01*
X74152Y-61048D01*
X74151Y-61047D01*
X74054Y-61016D01*
X73983Y-61087D01*
X73983Y-60945D01*
X73952Y-60848D01*
X73850Y-60810D01*
X73850Y-60312D01*
X73850Y-59950D01*
X73587Y-59950D01*
X73525Y-60012D01*
X73524Y-60075D01*
X73525Y-60174D01*
X73563Y-60266D01*
X73633Y-60337D01*
X73725Y-60375D01*
X73787Y-60375D01*
X73850Y-60312D01*
X73850Y-60810D01*
X73737Y-60770D01*
X73509Y-60780D01*
X73347Y-60848D01*
X73316Y-60945D01*
X73650Y-61279D01*
X73983Y-60945D01*
X73983Y-61087D01*
X73720Y-61350D01*
X74054Y-61683D01*
X74151Y-61652D01*
X74152Y-61651D01*
X74162Y-61675D01*
X74320Y-61833D01*
X74320Y-61866D01*
X74320Y-61866D01*
G37*
G54D20*
X74320Y-61866D02*
X74162Y-62023D01*
X74152Y-62048D01*
X74151Y-62047D01*
X74054Y-62016D01*
X73983Y-62087D01*
X73983Y-61945D01*
X73953Y-61850D01*
X73983Y-61754D01*
X73650Y-61420D01*
X73579Y-61491D01*
X73579Y-61350D01*
X73245Y-61016D01*
X73148Y-61047D01*
X73070Y-61262D01*
X73080Y-61490D01*
X73148Y-61652D01*
X73245Y-61683D01*
X73579Y-61350D01*
X73579Y-61491D01*
X73316Y-61754D01*
X73346Y-61850D01*
X73316Y-61945D01*
X73650Y-62279D01*
X73983Y-61945D01*
X73983Y-62087D01*
X73720Y-62350D01*
X74054Y-62683D01*
X74151Y-62652D01*
X74152Y-62651D01*
X74162Y-62675D01*
X74317Y-62830D01*
X73959Y-62830D01*
X73983Y-62754D01*
X73650Y-62420D01*
X73579Y-62491D01*
X73579Y-62350D01*
X73245Y-62016D01*
X73148Y-62047D01*
X73070Y-62262D01*
X73080Y-62490D01*
X73148Y-62652D01*
X73245Y-62683D01*
X73579Y-62350D01*
X73579Y-62491D01*
X73316Y-62754D01*
X73340Y-62830D01*
X68430Y-62830D01*
X67546Y-62655D01*
X66828Y-62174D01*
X66343Y-61449D01*
X66169Y-60573D01*
X66169Y-57173D01*
X66233Y-57236D01*
X66300Y-57264D01*
X66300Y-58150D01*
X66322Y-58264D01*
X66387Y-58362D01*
X66500Y-58474D01*
X66500Y-61350D01*
X66522Y-61464D01*
X66587Y-61562D01*
X67125Y-62099D01*
X67124Y-62184D01*
X67189Y-62340D01*
X67308Y-62460D01*
X67465Y-62524D01*
X67634Y-62525D01*
X67790Y-62460D01*
X67910Y-62341D01*
X67974Y-62184D01*
X67975Y-62015D01*
X67910Y-61859D01*
X67791Y-61739D01*
X67634Y-61675D01*
X67549Y-61674D01*
X67100Y-61225D01*
X67100Y-58650D01*
X67137Y-58650D01*
X67124Y-58682D01*
X67124Y-58737D01*
X67187Y-58800D01*
X67600Y-58800D01*
X67600Y-58792D01*
X67700Y-58792D01*
X67700Y-58800D01*
X68113Y-58800D01*
X68175Y-58737D01*
X68175Y-58682D01*
X68141Y-58599D01*
X68175Y-58517D01*
X68175Y-58418D01*
X68175Y-58182D01*
X68141Y-58099D01*
X68175Y-58017D01*
X68175Y-57918D01*
X68175Y-57682D01*
X68137Y-57590D01*
X68067Y-57520D01*
X68061Y-57517D01*
X68074Y-57484D01*
X68075Y-57315D01*
X68058Y-57275D01*
X68074Y-57275D01*
X68166Y-57237D01*
X68236Y-57166D01*
X68274Y-57074D01*
X68275Y-56975D01*
X68275Y-56725D01*
X68237Y-56633D01*
X68203Y-56600D01*
X68236Y-56566D01*
X68274Y-56474D01*
X68275Y-56375D01*
X68275Y-56350D01*
X68656Y-56350D01*
X68625Y-56425D01*
X68624Y-56524D01*
X68624Y-56974D01*
X68662Y-57066D01*
X68700Y-57103D01*
X68700Y-58550D01*
X68722Y-58664D01*
X68787Y-58762D01*
X69087Y-59062D01*
X69087Y-59062D01*
X69185Y-59127D01*
X69242Y-59138D01*
X69224Y-59182D01*
X69224Y-59281D01*
X69224Y-59517D01*
X69262Y-59609D01*
X69332Y-59679D01*
X69424Y-59717D01*
X69450Y-59717D01*
X69450Y-59924D01*
X69425Y-59924D01*
X69333Y-59962D01*
X69300Y-59996D01*
X69266Y-59962D01*
X69174Y-59924D01*
X69112Y-59925D01*
X69050Y-59987D01*
X69050Y-60350D01*
X69057Y-60350D01*
X69057Y-60450D01*
X69050Y-60450D01*
X69050Y-60457D01*
X68950Y-60457D01*
X68950Y-60450D01*
X68950Y-60350D01*
X68950Y-59987D01*
X68887Y-59925D01*
X68825Y-59924D01*
X68733Y-59962D01*
X68663Y-60033D01*
X68650Y-60064D01*
X68636Y-60033D01*
X68566Y-59962D01*
X68474Y-59924D01*
X68412Y-59925D01*
X68350Y-59987D01*
X68350Y-60350D01*
X68612Y-60350D01*
X68650Y-60312D01*
X68687Y-60350D01*
X68950Y-60350D01*
X68950Y-60450D01*
X68687Y-60450D01*
X68650Y-60487D01*
X68612Y-60450D01*
X68350Y-60450D01*
X68350Y-60457D01*
X68250Y-60457D01*
X68250Y-60450D01*
X68242Y-60450D01*
X68242Y-60350D01*
X68250Y-60350D01*
X68250Y-59987D01*
X68187Y-59925D01*
X68125Y-59924D01*
X68033Y-59962D01*
X68000Y-59996D01*
X68000Y-59996D01*
X68000Y-59707D01*
X68066Y-59680D01*
X68137Y-59609D01*
X68175Y-59517D01*
X68175Y-59418D01*
X68175Y-59182D01*
X68141Y-59100D01*
X68175Y-59017D01*
X68175Y-58962D01*
X68113Y-58900D01*
X67700Y-58900D01*
X67700Y-58907D01*
X67600Y-58907D01*
X67600Y-58900D01*
X67187Y-58900D01*
X67124Y-58962D01*
X67124Y-59017D01*
X67158Y-59100D01*
X67124Y-59182D01*
X67124Y-59281D01*
X67124Y-59517D01*
X67162Y-59609D01*
X67232Y-59679D01*
X67324Y-59717D01*
X67400Y-59718D01*
X67400Y-59996D01*
X67363Y-60033D01*
X67325Y-60125D01*
X67324Y-60224D01*
X67324Y-60674D01*
X67362Y-60766D01*
X67413Y-60816D01*
X67422Y-60864D01*
X67487Y-60962D01*
X67737Y-61212D01*
X67737Y-61212D01*
X67835Y-61277D01*
X67950Y-61300D01*
X70600Y-61300D01*
X70600Y-61299D01*
X70714Y-61277D01*
X70714Y-61277D01*
X70812Y-61212D01*
X71149Y-60875D01*
X71174Y-60875D01*
X71266Y-60837D01*
X71336Y-60766D01*
X71374Y-60674D01*
X71375Y-60599D01*
X72224Y-59750D01*
X73524Y-59750D01*
X73525Y-59787D01*
X73587Y-59850D01*
X73850Y-59850D01*
X73850Y-59842D01*
X73950Y-59842D01*
X73950Y-59850D01*
X73957Y-59850D01*
X73957Y-59950D01*
X73950Y-59950D01*
X73950Y-60312D01*
X74012Y-60375D01*
X74074Y-60375D01*
X74166Y-60337D01*
X74199Y-60303D01*
X74233Y-60336D01*
X74320Y-60372D01*
X74320Y-60866D01*
X74162Y-61023D01*
X74152Y-61048D01*
X74151Y-61047D01*
X74054Y-61016D01*
X73983Y-61087D01*
X73983Y-60945D01*
X73952Y-60848D01*
X73850Y-60810D01*
X73850Y-60312D01*
X73850Y-59950D01*
X73587Y-59950D01*
X73525Y-60012D01*
X73524Y-60075D01*
X73525Y-60174D01*
X73563Y-60266D01*
X73633Y-60337D01*
X73725Y-60375D01*
X73787Y-60375D01*
X73850Y-60312D01*
X73850Y-60810D01*
X73737Y-60770D01*
X73509Y-60780D01*
X73347Y-60848D01*
X73316Y-60945D01*
X73650Y-61279D01*
X73983Y-60945D01*
X73983Y-61087D01*
X73720Y-61350D01*
X74054Y-61683D01*
X74151Y-61652D01*
X74152Y-61651D01*
X74162Y-61675D01*
X74320Y-61833D01*
X74320Y-61866D01*
G54D10*
G36*
X77850Y-46731D02*
X77791Y-46731D01*
X77476Y-46731D01*
X77384Y-46769D01*
X77354Y-46800D01*
X77164Y-46800D01*
X77137Y-46733D01*
X77066Y-46663D01*
X76974Y-46625D01*
X76875Y-46624D01*
X76625Y-46624D01*
X76533Y-46662D01*
X76500Y-46696D01*
X76466Y-46662D01*
X76374Y-46624D01*
X76312Y-46625D01*
X76250Y-46687D01*
X76250Y-47050D01*
X76257Y-47050D01*
X76257Y-47150D01*
X76250Y-47150D01*
X76250Y-47512D01*
X76312Y-47575D01*
X76374Y-47575D01*
X76466Y-47537D01*
X76499Y-47503D01*
X76533Y-47536D01*
X76625Y-47574D01*
X76724Y-47575D01*
X76974Y-47575D01*
X77066Y-47537D01*
X77136Y-47466D01*
X77164Y-47400D01*
X77350Y-47400D01*
X77350Y-48081D01*
X77324Y-48081D01*
X77233Y-48119D01*
X77162Y-48190D01*
X77124Y-48282D01*
X77124Y-48381D01*
X77124Y-48617D01*
X77137Y-48650D01*
X77124Y-48650D01*
X76962Y-48487D01*
X76864Y-48422D01*
X76750Y-48400D01*
X76603Y-48400D01*
X76566Y-48363D01*
X76474Y-48325D01*
X76375Y-48324D01*
X76150Y-48324D01*
X76150Y-47512D01*
X76150Y-47150D01*
X76150Y-47050D01*
X76150Y-46687D01*
X76087Y-46625D01*
X76025Y-46624D01*
X75933Y-46662D01*
X75863Y-46733D01*
X75825Y-46825D01*
X75824Y-46924D01*
X75825Y-46987D01*
X75887Y-47050D01*
X76150Y-47050D01*
X76150Y-47150D01*
X75887Y-47150D01*
X75825Y-47212D01*
X75824Y-47275D01*
X75825Y-47374D01*
X75863Y-47466D01*
X75933Y-47537D01*
X76025Y-47575D01*
X76087Y-47575D01*
X76150Y-47512D01*
X76150Y-48324D01*
X75925Y-48324D01*
X75833Y-48362D01*
X75763Y-48433D01*
X75725Y-48525D01*
X75724Y-48624D01*
X75724Y-48874D01*
X75762Y-48966D01*
X75796Y-48999D01*
X75763Y-49033D01*
X75725Y-49125D01*
X75724Y-49224D01*
X75724Y-49474D01*
X75762Y-49566D01*
X75833Y-49636D01*
X75864Y-49649D01*
X75833Y-49662D01*
X75763Y-49733D01*
X75725Y-49825D01*
X75724Y-49924D01*
X75724Y-50174D01*
X75762Y-50266D01*
X75796Y-50299D01*
X75763Y-50333D01*
X75725Y-50425D01*
X75724Y-50524D01*
X75724Y-50774D01*
X75762Y-50866D01*
X75833Y-50936D01*
X75925Y-50974D01*
X76024Y-50975D01*
X76474Y-50975D01*
X76566Y-50937D01*
X76603Y-50900D01*
X77298Y-50900D01*
X77239Y-50958D01*
X77175Y-51115D01*
X77174Y-51214D01*
X77163Y-51231D01*
X77140Y-51350D01*
X77140Y-53381D01*
X77124Y-53381D01*
X77033Y-53419D01*
X77022Y-53430D01*
X76800Y-53430D01*
X76677Y-53454D01*
X76573Y-53523D01*
X76073Y-54023D01*
X76004Y-54127D01*
X75980Y-54250D01*
X75980Y-55830D01*
X75875Y-55830D01*
X75875Y-55417D01*
X75875Y-55082D01*
X75841Y-55000D01*
X75875Y-54917D01*
X75875Y-54582D01*
X75841Y-54500D01*
X75875Y-54417D01*
X75875Y-54082D01*
X75841Y-54000D01*
X75875Y-53917D01*
X75875Y-53582D01*
X75837Y-53490D01*
X75767Y-53420D01*
X75675Y-53382D01*
X75575Y-53381D01*
X75462Y-53382D01*
X75400Y-53444D01*
X75400Y-53700D01*
X75813Y-53700D01*
X75875Y-53637D01*
X75875Y-53582D01*
X75875Y-53917D01*
X75875Y-53862D01*
X75813Y-53800D01*
X75400Y-53800D01*
X75400Y-53944D01*
X75400Y-54055D01*
X75400Y-54200D01*
X75813Y-54200D01*
X75875Y-54137D01*
X75875Y-54082D01*
X75875Y-54417D01*
X75875Y-54362D01*
X75813Y-54300D01*
X75400Y-54300D01*
X75400Y-54444D01*
X75400Y-54555D01*
X75400Y-54700D01*
X75813Y-54700D01*
X75875Y-54637D01*
X75875Y-54582D01*
X75875Y-54917D01*
X75875Y-54862D01*
X75813Y-54800D01*
X75400Y-54800D01*
X75400Y-54944D01*
X75400Y-55055D01*
X75400Y-55200D01*
X75813Y-55200D01*
X75875Y-55137D01*
X75875Y-55082D01*
X75875Y-55417D01*
X75875Y-55362D01*
X75813Y-55300D01*
X75400Y-55300D01*
X75400Y-55555D01*
X75462Y-55618D01*
X75575Y-55618D01*
X75675Y-55617D01*
X75767Y-55579D01*
X75837Y-55509D01*
X75875Y-55417D01*
X75875Y-55830D01*
X75756Y-55830D01*
X75737Y-55783D01*
X75666Y-55713D01*
X75574Y-55675D01*
X75475Y-55674D01*
X75300Y-55674D01*
X75300Y-55555D01*
X75300Y-55300D01*
X75300Y-55200D01*
X75300Y-55055D01*
X75300Y-54944D01*
X75300Y-54800D01*
X75300Y-54700D01*
X75300Y-54555D01*
X75300Y-54444D01*
X75300Y-54300D01*
X75300Y-54200D01*
X75300Y-54055D01*
X75300Y-53944D01*
X75300Y-53800D01*
X75300Y-53700D01*
X75300Y-53444D01*
X75237Y-53382D01*
X75124Y-53381D01*
X75024Y-53382D01*
X74932Y-53420D01*
X74862Y-53490D01*
X74824Y-53582D01*
X74824Y-53637D01*
X74887Y-53700D01*
X75300Y-53700D01*
X75300Y-53800D01*
X74887Y-53800D01*
X74824Y-53862D01*
X74824Y-53917D01*
X74858Y-54000D01*
X74824Y-54082D01*
X74824Y-54137D01*
X74887Y-54200D01*
X75300Y-54200D01*
X75300Y-54300D01*
X74887Y-54300D01*
X74824Y-54362D01*
X74824Y-54417D01*
X74858Y-54500D01*
X74824Y-54582D01*
X74824Y-54637D01*
X74887Y-54700D01*
X75300Y-54700D01*
X75300Y-54800D01*
X74887Y-54800D01*
X74824Y-54862D01*
X74824Y-54917D01*
X74858Y-55000D01*
X74824Y-55082D01*
X74824Y-55137D01*
X74887Y-55200D01*
X75300Y-55200D01*
X75300Y-55300D01*
X74887Y-55300D01*
X74824Y-55362D01*
X74824Y-55417D01*
X74862Y-55509D01*
X74932Y-55579D01*
X75024Y-55617D01*
X75124Y-55618D01*
X75237Y-55618D01*
X75300Y-55555D01*
X75300Y-55674D01*
X75225Y-55674D01*
X75133Y-55712D01*
X75100Y-55746D01*
X75066Y-55712D01*
X74974Y-55674D01*
X74912Y-55675D01*
X74850Y-55737D01*
X74850Y-56100D01*
X74857Y-56100D01*
X74857Y-56200D01*
X74850Y-56200D01*
X74850Y-56562D01*
X74912Y-56625D01*
X74974Y-56625D01*
X75066Y-56587D01*
X75099Y-56553D01*
X75133Y-56586D01*
X75225Y-56624D01*
X75324Y-56625D01*
X75574Y-56625D01*
X75666Y-56587D01*
X75736Y-56516D01*
X75756Y-56470D01*
X75980Y-56470D01*
X75980Y-56667D01*
X75922Y-56724D01*
X75825Y-56724D01*
X74750Y-56724D01*
X74750Y-56562D01*
X74750Y-56200D01*
X74750Y-56100D01*
X74750Y-55737D01*
X74687Y-55675D01*
X74625Y-55674D01*
X74533Y-55712D01*
X74463Y-55783D01*
X74425Y-55875D01*
X74424Y-55974D01*
X74425Y-56037D01*
X74487Y-56100D01*
X74750Y-56100D01*
X74750Y-56200D01*
X74487Y-56200D01*
X74425Y-56262D01*
X74424Y-56325D01*
X74425Y-56424D01*
X74463Y-56516D01*
X74533Y-56587D01*
X74625Y-56625D01*
X74687Y-56625D01*
X74750Y-56562D01*
X74750Y-56724D01*
X74475Y-56724D01*
X74383Y-56762D01*
X74312Y-56833D01*
X74274Y-56924D01*
X74274Y-57024D01*
X74274Y-58874D01*
X74312Y-58966D01*
X74324Y-58978D01*
X74320Y-59000D01*
X74320Y-59150D01*
X73725Y-59150D01*
X73725Y-58874D01*
X73725Y-56925D01*
X73687Y-56833D01*
X73616Y-56762D01*
X73525Y-56724D01*
X73425Y-56724D01*
X72912Y-56724D01*
X72850Y-56787D01*
X72850Y-57850D01*
X73662Y-57850D01*
X73725Y-57787D01*
X73725Y-56925D01*
X73725Y-58874D01*
X73725Y-58012D01*
X73662Y-57950D01*
X72850Y-57950D01*
X72850Y-59012D01*
X72912Y-59075D01*
X73425Y-59075D01*
X73525Y-59075D01*
X73616Y-59037D01*
X73687Y-58966D01*
X73725Y-58874D01*
X73725Y-59150D01*
X72224Y-59150D01*
X72149Y-59075D01*
X72174Y-59075D01*
X72687Y-59075D01*
X72750Y-59012D01*
X72750Y-57950D01*
X72750Y-57850D01*
X72750Y-56787D01*
X72687Y-56724D01*
X72174Y-56724D01*
X72074Y-56724D01*
X71983Y-56762D01*
X71912Y-56833D01*
X71874Y-56925D01*
X71874Y-57787D01*
X71937Y-57850D01*
X72750Y-57850D01*
X72750Y-57950D01*
X71937Y-57950D01*
X71874Y-58012D01*
X71874Y-58506D01*
X71862Y-58487D01*
X71862Y-58487D01*
X71462Y-58087D01*
X71364Y-58022D01*
X71316Y-58013D01*
X71316Y-58013D01*
X71266Y-57963D01*
X71200Y-57935D01*
X71200Y-56800D01*
X71199Y-56799D01*
X71177Y-56685D01*
X71112Y-56587D01*
X71112Y-56587D01*
X70362Y-55837D01*
X70264Y-55772D01*
X70150Y-55750D01*
X68050Y-55750D01*
X67935Y-55772D01*
X67837Y-55837D01*
X67750Y-55924D01*
X67525Y-55924D01*
X67433Y-55962D01*
X67396Y-56000D01*
X67003Y-56000D01*
X66966Y-55963D01*
X66874Y-55925D01*
X66775Y-55924D01*
X66325Y-55924D01*
X66233Y-55962D01*
X66169Y-56026D01*
X66169Y-55119D01*
X73900Y-55119D01*
X74003Y-55099D01*
X74090Y-55040D01*
X74149Y-54953D01*
X74169Y-54850D01*
X74169Y-47850D01*
X74149Y-47746D01*
X74090Y-47659D01*
X74003Y-47600D01*
X73983Y-47596D01*
X73983Y-43754D01*
X73650Y-43420D01*
X73579Y-43491D01*
X73579Y-43350D01*
X73245Y-43016D01*
X73148Y-43047D01*
X73070Y-43262D01*
X73080Y-43490D01*
X73148Y-43652D01*
X73245Y-43683D01*
X73579Y-43350D01*
X73579Y-43491D01*
X73316Y-43754D01*
X73347Y-43851D01*
X73562Y-43929D01*
X73790Y-43919D01*
X73952Y-43851D01*
X73983Y-43754D01*
X73983Y-47596D01*
X73900Y-47580D01*
X72425Y-47580D01*
X72425Y-46574D01*
X72425Y-44625D01*
X72387Y-44533D01*
X72316Y-44462D01*
X72225Y-44424D01*
X72125Y-44424D01*
X71612Y-44424D01*
X71550Y-44487D01*
X71550Y-45550D01*
X72362Y-45550D01*
X72425Y-45487D01*
X72425Y-44625D01*
X72425Y-46574D01*
X72425Y-45712D01*
X72362Y-45650D01*
X71550Y-45650D01*
X71550Y-46712D01*
X71612Y-46775D01*
X72125Y-46775D01*
X72225Y-46775D01*
X72316Y-46737D01*
X72387Y-46666D01*
X72425Y-46574D01*
X72425Y-47580D01*
X71450Y-47580D01*
X71450Y-46712D01*
X71450Y-45650D01*
X71450Y-45550D01*
X71450Y-44487D01*
X71387Y-44424D01*
X70874Y-44424D01*
X70774Y-44424D01*
X70683Y-44462D01*
X70612Y-44533D01*
X70574Y-44625D01*
X70574Y-45487D01*
X70637Y-45550D01*
X71450Y-45550D01*
X71450Y-45650D01*
X70637Y-45650D01*
X70574Y-45712D01*
X70574Y-46574D01*
X70612Y-46666D01*
X70683Y-46737D01*
X70774Y-46775D01*
X70874Y-46775D01*
X71387Y-46775D01*
X71450Y-46712D01*
X71450Y-47580D01*
X68419Y-47580D01*
X68419Y-41869D01*
X73340Y-41869D01*
X73316Y-41945D01*
X73650Y-42279D01*
X73983Y-41945D01*
X73959Y-41869D01*
X74317Y-41869D01*
X74162Y-42023D01*
X74152Y-42048D01*
X74151Y-42047D01*
X74054Y-42016D01*
X73720Y-42350D01*
X74054Y-42683D01*
X74151Y-42652D01*
X74152Y-42651D01*
X74162Y-42675D01*
X74323Y-42837D01*
X74354Y-42849D01*
X74324Y-42862D01*
X74162Y-43023D01*
X74152Y-43048D01*
X74151Y-43047D01*
X74054Y-43016D01*
X73983Y-43087D01*
X73983Y-42945D01*
X73953Y-42850D01*
X73983Y-42754D01*
X73650Y-42420D01*
X73579Y-42491D01*
X73579Y-42350D01*
X73245Y-42016D01*
X73148Y-42047D01*
X73070Y-42262D01*
X73080Y-42490D01*
X73148Y-42652D01*
X73245Y-42683D01*
X73579Y-42350D01*
X73579Y-42491D01*
X73316Y-42754D01*
X73346Y-42850D01*
X73316Y-42945D01*
X73650Y-43279D01*
X73983Y-42945D01*
X73983Y-43087D01*
X73720Y-43350D01*
X74054Y-43683D01*
X74151Y-43652D01*
X74152Y-43651D01*
X74162Y-43675D01*
X74323Y-43837D01*
X74535Y-43924D01*
X74763Y-43925D01*
X74975Y-43837D01*
X75137Y-43676D01*
X75149Y-43645D01*
X75162Y-43675D01*
X75323Y-43837D01*
X75535Y-43924D01*
X75763Y-43925D01*
X75975Y-43837D01*
X76137Y-43676D01*
X76149Y-43645D01*
X76162Y-43675D01*
X76323Y-43837D01*
X76535Y-43924D01*
X76763Y-43925D01*
X76975Y-43837D01*
X77137Y-43676D01*
X77149Y-43645D01*
X77162Y-43675D01*
X77323Y-43837D01*
X77535Y-43924D01*
X77763Y-43925D01*
X77850Y-43889D01*
X77850Y-46731D01*
X77850Y-46731D01*
G37*
G54D20*
X77850Y-46731D02*
X77791Y-46731D01*
X77476Y-46731D01*
X77384Y-46769D01*
X77354Y-46800D01*
X77164Y-46800D01*
X77137Y-46733D01*
X77066Y-46663D01*
X76974Y-46625D01*
X76875Y-46624D01*
X76625Y-46624D01*
X76533Y-46662D01*
X76500Y-46696D01*
X76466Y-46662D01*
X76374Y-46624D01*
X76312Y-46625D01*
X76250Y-46687D01*
X76250Y-47050D01*
X76257Y-47050D01*
X76257Y-47150D01*
X76250Y-47150D01*
X76250Y-47512D01*
X76312Y-47575D01*
X76374Y-47575D01*
X76466Y-47537D01*
X76499Y-47503D01*
X76533Y-47536D01*
X76625Y-47574D01*
X76724Y-47575D01*
X76974Y-47575D01*
X77066Y-47537D01*
X77136Y-47466D01*
X77164Y-47400D01*
X77350Y-47400D01*
X77350Y-48081D01*
X77324Y-48081D01*
X77233Y-48119D01*
X77162Y-48190D01*
X77124Y-48282D01*
X77124Y-48381D01*
X77124Y-48617D01*
X77137Y-48650D01*
X77124Y-48650D01*
X76962Y-48487D01*
X76864Y-48422D01*
X76750Y-48400D01*
X76603Y-48400D01*
X76566Y-48363D01*
X76474Y-48325D01*
X76375Y-48324D01*
X76150Y-48324D01*
X76150Y-47512D01*
X76150Y-47150D01*
X76150Y-47050D01*
X76150Y-46687D01*
X76087Y-46625D01*
X76025Y-46624D01*
X75933Y-46662D01*
X75863Y-46733D01*
X75825Y-46825D01*
X75824Y-46924D01*
X75825Y-46987D01*
X75887Y-47050D01*
X76150Y-47050D01*
X76150Y-47150D01*
X75887Y-47150D01*
X75825Y-47212D01*
X75824Y-47275D01*
X75825Y-47374D01*
X75863Y-47466D01*
X75933Y-47537D01*
X76025Y-47575D01*
X76087Y-47575D01*
X76150Y-47512D01*
X76150Y-48324D01*
X75925Y-48324D01*
X75833Y-48362D01*
X75763Y-48433D01*
X75725Y-48525D01*
X75724Y-48624D01*
X75724Y-48874D01*
X75762Y-48966D01*
X75796Y-48999D01*
X75763Y-49033D01*
X75725Y-49125D01*
X75724Y-49224D01*
X75724Y-49474D01*
X75762Y-49566D01*
X75833Y-49636D01*
X75864Y-49649D01*
X75833Y-49662D01*
X75763Y-49733D01*
X75725Y-49825D01*
X75724Y-49924D01*
X75724Y-50174D01*
X75762Y-50266D01*
X75796Y-50299D01*
X75763Y-50333D01*
X75725Y-50425D01*
X75724Y-50524D01*
X75724Y-50774D01*
X75762Y-50866D01*
X75833Y-50936D01*
X75925Y-50974D01*
X76024Y-50975D01*
X76474Y-50975D01*
X76566Y-50937D01*
X76603Y-50900D01*
X77298Y-50900D01*
X77239Y-50958D01*
X77175Y-51115D01*
X77174Y-51214D01*
X77163Y-51231D01*
X77140Y-51350D01*
X77140Y-53381D01*
X77124Y-53381D01*
X77033Y-53419D01*
X77022Y-53430D01*
X76800Y-53430D01*
X76677Y-53454D01*
X76573Y-53523D01*
X76073Y-54023D01*
X76004Y-54127D01*
X75980Y-54250D01*
X75980Y-55830D01*
X75875Y-55830D01*
X75875Y-55417D01*
X75875Y-55082D01*
X75841Y-55000D01*
X75875Y-54917D01*
X75875Y-54582D01*
X75841Y-54500D01*
X75875Y-54417D01*
X75875Y-54082D01*
X75841Y-54000D01*
X75875Y-53917D01*
X75875Y-53582D01*
X75837Y-53490D01*
X75767Y-53420D01*
X75675Y-53382D01*
X75575Y-53381D01*
X75462Y-53382D01*
X75400Y-53444D01*
X75400Y-53700D01*
X75813Y-53700D01*
X75875Y-53637D01*
X75875Y-53582D01*
X75875Y-53917D01*
X75875Y-53862D01*
X75813Y-53800D01*
X75400Y-53800D01*
X75400Y-53944D01*
X75400Y-54055D01*
X75400Y-54200D01*
X75813Y-54200D01*
X75875Y-54137D01*
X75875Y-54082D01*
X75875Y-54417D01*
X75875Y-54362D01*
X75813Y-54300D01*
X75400Y-54300D01*
X75400Y-54444D01*
X75400Y-54555D01*
X75400Y-54700D01*
X75813Y-54700D01*
X75875Y-54637D01*
X75875Y-54582D01*
X75875Y-54917D01*
X75875Y-54862D01*
X75813Y-54800D01*
X75400Y-54800D01*
X75400Y-54944D01*
X75400Y-55055D01*
X75400Y-55200D01*
X75813Y-55200D01*
X75875Y-55137D01*
X75875Y-55082D01*
X75875Y-55417D01*
X75875Y-55362D01*
X75813Y-55300D01*
X75400Y-55300D01*
X75400Y-55555D01*
X75462Y-55618D01*
X75575Y-55618D01*
X75675Y-55617D01*
X75767Y-55579D01*
X75837Y-55509D01*
X75875Y-55417D01*
X75875Y-55830D01*
X75756Y-55830D01*
X75737Y-55783D01*
X75666Y-55713D01*
X75574Y-55675D01*
X75475Y-55674D01*
X75300Y-55674D01*
X75300Y-55555D01*
X75300Y-55300D01*
X75300Y-55200D01*
X75300Y-55055D01*
X75300Y-54944D01*
X75300Y-54800D01*
X75300Y-54700D01*
X75300Y-54555D01*
X75300Y-54444D01*
X75300Y-54300D01*
X75300Y-54200D01*
X75300Y-54055D01*
X75300Y-53944D01*
X75300Y-53800D01*
X75300Y-53700D01*
X75300Y-53444D01*
X75237Y-53382D01*
X75124Y-53381D01*
X75024Y-53382D01*
X74932Y-53420D01*
X74862Y-53490D01*
X74824Y-53582D01*
X74824Y-53637D01*
X74887Y-53700D01*
X75300Y-53700D01*
X75300Y-53800D01*
X74887Y-53800D01*
X74824Y-53862D01*
X74824Y-53917D01*
X74858Y-54000D01*
X74824Y-54082D01*
X74824Y-54137D01*
X74887Y-54200D01*
X75300Y-54200D01*
X75300Y-54300D01*
X74887Y-54300D01*
X74824Y-54362D01*
X74824Y-54417D01*
X74858Y-54500D01*
X74824Y-54582D01*
X74824Y-54637D01*
X74887Y-54700D01*
X75300Y-54700D01*
X75300Y-54800D01*
X74887Y-54800D01*
X74824Y-54862D01*
X74824Y-54917D01*
X74858Y-55000D01*
X74824Y-55082D01*
X74824Y-55137D01*
X74887Y-55200D01*
X75300Y-55200D01*
X75300Y-55300D01*
X74887Y-55300D01*
X74824Y-55362D01*
X74824Y-55417D01*
X74862Y-55509D01*
X74932Y-55579D01*
X75024Y-55617D01*
X75124Y-55618D01*
X75237Y-55618D01*
X75300Y-55555D01*
X75300Y-55674D01*
X75225Y-55674D01*
X75133Y-55712D01*
X75100Y-55746D01*
X75066Y-55712D01*
X74974Y-55674D01*
X74912Y-55675D01*
X74850Y-55737D01*
X74850Y-56100D01*
X74857Y-56100D01*
X74857Y-56200D01*
X74850Y-56200D01*
X74850Y-56562D01*
X74912Y-56625D01*
X74974Y-56625D01*
X75066Y-56587D01*
X75099Y-56553D01*
X75133Y-56586D01*
X75225Y-56624D01*
X75324Y-56625D01*
X75574Y-56625D01*
X75666Y-56587D01*
X75736Y-56516D01*
X75756Y-56470D01*
X75980Y-56470D01*
X75980Y-56667D01*
X75922Y-56724D01*
X75825Y-56724D01*
X74750Y-56724D01*
X74750Y-56562D01*
X74750Y-56200D01*
X74750Y-56100D01*
X74750Y-55737D01*
X74687Y-55675D01*
X74625Y-55674D01*
X74533Y-55712D01*
X74463Y-55783D01*
X74425Y-55875D01*
X74424Y-55974D01*
X74425Y-56037D01*
X74487Y-56100D01*
X74750Y-56100D01*
X74750Y-56200D01*
X74487Y-56200D01*
X74425Y-56262D01*
X74424Y-56325D01*
X74425Y-56424D01*
X74463Y-56516D01*
X74533Y-56587D01*
X74625Y-56625D01*
X74687Y-56625D01*
X74750Y-56562D01*
X74750Y-56724D01*
X74475Y-56724D01*
X74383Y-56762D01*
X74312Y-56833D01*
X74274Y-56924D01*
X74274Y-57024D01*
X74274Y-58874D01*
X74312Y-58966D01*
X74324Y-58978D01*
X74320Y-59000D01*
X74320Y-59150D01*
X73725Y-59150D01*
X73725Y-58874D01*
X73725Y-56925D01*
X73687Y-56833D01*
X73616Y-56762D01*
X73525Y-56724D01*
X73425Y-56724D01*
X72912Y-56724D01*
X72850Y-56787D01*
X72850Y-57850D01*
X73662Y-57850D01*
X73725Y-57787D01*
X73725Y-56925D01*
X73725Y-58874D01*
X73725Y-58012D01*
X73662Y-57950D01*
X72850Y-57950D01*
X72850Y-59012D01*
X72912Y-59075D01*
X73425Y-59075D01*
X73525Y-59075D01*
X73616Y-59037D01*
X73687Y-58966D01*
X73725Y-58874D01*
X73725Y-59150D01*
X72224Y-59150D01*
X72149Y-59075D01*
X72174Y-59075D01*
X72687Y-59075D01*
X72750Y-59012D01*
X72750Y-57950D01*
X72750Y-57850D01*
X72750Y-56787D01*
X72687Y-56724D01*
X72174Y-56724D01*
X72074Y-56724D01*
X71983Y-56762D01*
X71912Y-56833D01*
X71874Y-56925D01*
X71874Y-57787D01*
X71937Y-57850D01*
X72750Y-57850D01*
X72750Y-57950D01*
X71937Y-57950D01*
X71874Y-58012D01*
X71874Y-58506D01*
X71862Y-58487D01*
X71862Y-58487D01*
X71462Y-58087D01*
X71364Y-58022D01*
X71316Y-58013D01*
X71316Y-58013D01*
X71266Y-57963D01*
X71200Y-57935D01*
X71200Y-56800D01*
X71199Y-56799D01*
X71177Y-56685D01*
X71112Y-56587D01*
X71112Y-56587D01*
X70362Y-55837D01*
X70264Y-55772D01*
X70150Y-55750D01*
X68050Y-55750D01*
X67935Y-55772D01*
X67837Y-55837D01*
X67750Y-55924D01*
X67525Y-55924D01*
X67433Y-55962D01*
X67396Y-56000D01*
X67003Y-56000D01*
X66966Y-55963D01*
X66874Y-55925D01*
X66775Y-55924D01*
X66325Y-55924D01*
X66233Y-55962D01*
X66169Y-56026D01*
X66169Y-55119D01*
X73900Y-55119D01*
X74003Y-55099D01*
X74090Y-55040D01*
X74149Y-54953D01*
X74169Y-54850D01*
X74169Y-47850D01*
X74149Y-47746D01*
X74090Y-47659D01*
X74003Y-47600D01*
X73983Y-47596D01*
X73983Y-43754D01*
X73650Y-43420D01*
X73579Y-43491D01*
X73579Y-43350D01*
X73245Y-43016D01*
X73148Y-43047D01*
X73070Y-43262D01*
X73080Y-43490D01*
X73148Y-43652D01*
X73245Y-43683D01*
X73579Y-43350D01*
X73579Y-43491D01*
X73316Y-43754D01*
X73347Y-43851D01*
X73562Y-43929D01*
X73790Y-43919D01*
X73952Y-43851D01*
X73983Y-43754D01*
X73983Y-47596D01*
X73900Y-47580D01*
X72425Y-47580D01*
X72425Y-46574D01*
X72425Y-44625D01*
X72387Y-44533D01*
X72316Y-44462D01*
X72225Y-44424D01*
X72125Y-44424D01*
X71612Y-44424D01*
X71550Y-44487D01*
X71550Y-45550D01*
X72362Y-45550D01*
X72425Y-45487D01*
X72425Y-44625D01*
X72425Y-46574D01*
X72425Y-45712D01*
X72362Y-45650D01*
X71550Y-45650D01*
X71550Y-46712D01*
X71612Y-46775D01*
X72125Y-46775D01*
X72225Y-46775D01*
X72316Y-46737D01*
X72387Y-46666D01*
X72425Y-46574D01*
X72425Y-47580D01*
X71450Y-47580D01*
X71450Y-46712D01*
X71450Y-45650D01*
X71450Y-45550D01*
X71450Y-44487D01*
X71387Y-44424D01*
X70874Y-44424D01*
X70774Y-44424D01*
X70683Y-44462D01*
X70612Y-44533D01*
X70574Y-44625D01*
X70574Y-45487D01*
X70637Y-45550D01*
X71450Y-45550D01*
X71450Y-45650D01*
X70637Y-45650D01*
X70574Y-45712D01*
X70574Y-46574D01*
X70612Y-46666D01*
X70683Y-46737D01*
X70774Y-46775D01*
X70874Y-46775D01*
X71387Y-46775D01*
X71450Y-46712D01*
X71450Y-47580D01*
X68419Y-47580D01*
X68419Y-41869D01*
X73340Y-41869D01*
X73316Y-41945D01*
X73650Y-42279D01*
X73983Y-41945D01*
X73959Y-41869D01*
X74317Y-41869D01*
X74162Y-42023D01*
X74152Y-42048D01*
X74151Y-42047D01*
X74054Y-42016D01*
X73720Y-42350D01*
X74054Y-42683D01*
X74151Y-42652D01*
X74152Y-42651D01*
X74162Y-42675D01*
X74323Y-42837D01*
X74354Y-42849D01*
X74324Y-42862D01*
X74162Y-43023D01*
X74152Y-43048D01*
X74151Y-43047D01*
X74054Y-43016D01*
X73983Y-43087D01*
X73983Y-42945D01*
X73953Y-42850D01*
X73983Y-42754D01*
X73650Y-42420D01*
X73579Y-42491D01*
X73579Y-42350D01*
X73245Y-42016D01*
X73148Y-42047D01*
X73070Y-42262D01*
X73080Y-42490D01*
X73148Y-42652D01*
X73245Y-42683D01*
X73579Y-42350D01*
X73579Y-42491D01*
X73316Y-42754D01*
X73346Y-42850D01*
X73316Y-42945D01*
X73650Y-43279D01*
X73983Y-42945D01*
X73983Y-43087D01*
X73720Y-43350D01*
X74054Y-43683D01*
X74151Y-43652D01*
X74152Y-43651D01*
X74162Y-43675D01*
X74323Y-43837D01*
X74535Y-43924D01*
X74763Y-43925D01*
X74975Y-43837D01*
X75137Y-43676D01*
X75149Y-43645D01*
X75162Y-43675D01*
X75323Y-43837D01*
X75535Y-43924D01*
X75763Y-43925D01*
X75975Y-43837D01*
X76137Y-43676D01*
X76149Y-43645D01*
X76162Y-43675D01*
X76323Y-43837D01*
X76535Y-43924D01*
X76763Y-43925D01*
X76975Y-43837D01*
X77137Y-43676D01*
X77149Y-43645D01*
X77162Y-43675D01*
X77323Y-43837D01*
X77535Y-43924D01*
X77763Y-43925D01*
X77850Y-43889D01*
X77850Y-46731D01*
G54D10*
G36*
X78196Y-54199D02*
X78163Y-54233D01*
X78125Y-54325D01*
X78124Y-54424D01*
X78124Y-54450D01*
X77962Y-54450D01*
X77975Y-54417D01*
X77975Y-54362D01*
X77913Y-54300D01*
X77500Y-54300D01*
X77500Y-54307D01*
X77400Y-54307D01*
X77400Y-54300D01*
X77392Y-54300D01*
X77392Y-54200D01*
X77400Y-54200D01*
X77400Y-54192D01*
X77500Y-54192D01*
X77500Y-54200D01*
X77913Y-54200D01*
X77975Y-54137D01*
X77975Y-54082D01*
X77962Y-54050D01*
X78124Y-54050D01*
X78124Y-54074D01*
X78162Y-54166D01*
X78196Y-54199D01*
X78196Y-54199D01*
G37*
G54D20*
X78196Y-54199D02*
X78163Y-54233D01*
X78125Y-54325D01*
X78124Y-54424D01*
X78124Y-54450D01*
X77962Y-54450D01*
X77975Y-54417D01*
X77975Y-54362D01*
X77913Y-54300D01*
X77500Y-54300D01*
X77500Y-54307D01*
X77400Y-54307D01*
X77400Y-54300D01*
X77392Y-54300D01*
X77392Y-54200D01*
X77400Y-54200D01*
X77400Y-54192D01*
X77500Y-54192D01*
X77500Y-54200D01*
X77913Y-54200D01*
X77975Y-54137D01*
X77975Y-54082D01*
X77962Y-54050D01*
X78124Y-54050D01*
X78124Y-54074D01*
X78162Y-54166D01*
X78196Y-54199D01*
G54D10*
G36*
X91974Y-57600D02*
X91187Y-58387D01*
X91122Y-58485D01*
X91100Y-58600D01*
X91100Y-58896D01*
X91063Y-58933D01*
X91025Y-59025D01*
X91024Y-59124D01*
X91024Y-59574D01*
X91062Y-59666D01*
X91133Y-59736D01*
X91225Y-59774D01*
X91324Y-59775D01*
X91574Y-59775D01*
X91666Y-59737D01*
X91699Y-59703D01*
X91733Y-59736D01*
X91825Y-59774D01*
X91850Y-59774D01*
X91850Y-60810D01*
X91764Y-60775D01*
X91536Y-60774D01*
X91442Y-60813D01*
X91427Y-60735D01*
X91362Y-60637D01*
X91362Y-60637D01*
X89975Y-59250D01*
X89975Y-59025D01*
X89937Y-58933D01*
X89900Y-58896D01*
X89900Y-58603D01*
X89936Y-58566D01*
X89974Y-58474D01*
X89975Y-58375D01*
X89975Y-57925D01*
X89937Y-57833D01*
X89900Y-57796D01*
X89900Y-57453D01*
X89936Y-57416D01*
X89974Y-57324D01*
X89975Y-57225D01*
X89975Y-56775D01*
X89937Y-56683D01*
X89866Y-56613D01*
X89774Y-56575D01*
X89675Y-56574D01*
X89425Y-56574D01*
X89333Y-56612D01*
X89300Y-56646D01*
X89266Y-56612D01*
X89174Y-56574D01*
X89112Y-56575D01*
X89050Y-56637D01*
X89050Y-57000D01*
X89057Y-57000D01*
X89057Y-57100D01*
X89050Y-57100D01*
X89050Y-57462D01*
X89112Y-57525D01*
X89174Y-57525D01*
X89266Y-57487D01*
X89299Y-57453D01*
X89300Y-57453D01*
X89300Y-57796D01*
X89266Y-57762D01*
X89174Y-57724D01*
X89112Y-57725D01*
X89050Y-57787D01*
X89050Y-58150D01*
X89057Y-58150D01*
X89057Y-58250D01*
X89050Y-58250D01*
X89050Y-58612D01*
X89112Y-58675D01*
X89174Y-58675D01*
X89266Y-58637D01*
X89299Y-58603D01*
X89300Y-58603D01*
X89300Y-58896D01*
X89266Y-58863D01*
X89174Y-58825D01*
X89075Y-58824D01*
X88950Y-58824D01*
X88950Y-58612D01*
X88950Y-58250D01*
X88950Y-58150D01*
X88950Y-57787D01*
X88950Y-57462D01*
X88950Y-57100D01*
X88950Y-57000D01*
X88950Y-56637D01*
X88887Y-56575D01*
X88825Y-56574D01*
X88733Y-56612D01*
X88663Y-56683D01*
X88625Y-56775D01*
X88624Y-56874D01*
X88625Y-56937D01*
X88687Y-57000D01*
X88950Y-57000D01*
X88950Y-57100D01*
X88687Y-57100D01*
X88625Y-57162D01*
X88624Y-57225D01*
X88625Y-57324D01*
X88663Y-57416D01*
X88733Y-57487D01*
X88825Y-57525D01*
X88887Y-57525D01*
X88950Y-57462D01*
X88950Y-57787D01*
X88887Y-57725D01*
X88825Y-57724D01*
X88733Y-57762D01*
X88663Y-57833D01*
X88625Y-57925D01*
X88624Y-58024D01*
X88625Y-58087D01*
X88687Y-58150D01*
X88950Y-58150D01*
X88950Y-58250D01*
X88687Y-58250D01*
X88625Y-58312D01*
X88624Y-58375D01*
X88625Y-58474D01*
X88663Y-58566D01*
X88733Y-58637D01*
X88825Y-58675D01*
X88887Y-58675D01*
X88950Y-58612D01*
X88950Y-58824D01*
X88825Y-58824D01*
X88733Y-58862D01*
X88663Y-58933D01*
X88625Y-59025D01*
X88624Y-59124D01*
X88624Y-59250D01*
X87950Y-59925D01*
X87950Y-56551D01*
X87958Y-56560D01*
X88115Y-56624D01*
X88284Y-56625D01*
X88440Y-56560D01*
X88501Y-56500D01*
X90075Y-56500D01*
X90887Y-57312D01*
X90887Y-57312D01*
X90985Y-57377D01*
X91100Y-57400D01*
X91974Y-57400D01*
X91974Y-57600D01*
X91974Y-57600D01*
G37*
G54D20*
X91974Y-57600D02*
X91187Y-58387D01*
X91122Y-58485D01*
X91100Y-58600D01*
X91100Y-58896D01*
X91063Y-58933D01*
X91025Y-59025D01*
X91024Y-59124D01*
X91024Y-59574D01*
X91062Y-59666D01*
X91133Y-59736D01*
X91225Y-59774D01*
X91324Y-59775D01*
X91574Y-59775D01*
X91666Y-59737D01*
X91699Y-59703D01*
X91733Y-59736D01*
X91825Y-59774D01*
X91850Y-59774D01*
X91850Y-60810D01*
X91764Y-60775D01*
X91536Y-60774D01*
X91442Y-60813D01*
X91427Y-60735D01*
X91362Y-60637D01*
X91362Y-60637D01*
X89975Y-59250D01*
X89975Y-59025D01*
X89937Y-58933D01*
X89900Y-58896D01*
X89900Y-58603D01*
X89936Y-58566D01*
X89974Y-58474D01*
X89975Y-58375D01*
X89975Y-57925D01*
X89937Y-57833D01*
X89900Y-57796D01*
X89900Y-57453D01*
X89936Y-57416D01*
X89974Y-57324D01*
X89975Y-57225D01*
X89975Y-56775D01*
X89937Y-56683D01*
X89866Y-56613D01*
X89774Y-56575D01*
X89675Y-56574D01*
X89425Y-56574D01*
X89333Y-56612D01*
X89300Y-56646D01*
X89266Y-56612D01*
X89174Y-56574D01*
X89112Y-56575D01*
X89050Y-56637D01*
X89050Y-57000D01*
X89057Y-57000D01*
X89057Y-57100D01*
X89050Y-57100D01*
X89050Y-57462D01*
X89112Y-57525D01*
X89174Y-57525D01*
X89266Y-57487D01*
X89299Y-57453D01*
X89300Y-57453D01*
X89300Y-57796D01*
X89266Y-57762D01*
X89174Y-57724D01*
X89112Y-57725D01*
X89050Y-57787D01*
X89050Y-58150D01*
X89057Y-58150D01*
X89057Y-58250D01*
X89050Y-58250D01*
X89050Y-58612D01*
X89112Y-58675D01*
X89174Y-58675D01*
X89266Y-58637D01*
X89299Y-58603D01*
X89300Y-58603D01*
X89300Y-58896D01*
X89266Y-58863D01*
X89174Y-58825D01*
X89075Y-58824D01*
X88950Y-58824D01*
X88950Y-58612D01*
X88950Y-58250D01*
X88950Y-58150D01*
X88950Y-57787D01*
X88950Y-57462D01*
X88950Y-57100D01*
X88950Y-57000D01*
X88950Y-56637D01*
X88887Y-56575D01*
X88825Y-56574D01*
X88733Y-56612D01*
X88663Y-56683D01*
X88625Y-56775D01*
X88624Y-56874D01*
X88625Y-56937D01*
X88687Y-57000D01*
X88950Y-57000D01*
X88950Y-57100D01*
X88687Y-57100D01*
X88625Y-57162D01*
X88624Y-57225D01*
X88625Y-57324D01*
X88663Y-57416D01*
X88733Y-57487D01*
X88825Y-57525D01*
X88887Y-57525D01*
X88950Y-57462D01*
X88950Y-57787D01*
X88887Y-57725D01*
X88825Y-57724D01*
X88733Y-57762D01*
X88663Y-57833D01*
X88625Y-57925D01*
X88624Y-58024D01*
X88625Y-58087D01*
X88687Y-58150D01*
X88950Y-58150D01*
X88950Y-58250D01*
X88687Y-58250D01*
X88625Y-58312D01*
X88624Y-58375D01*
X88625Y-58474D01*
X88663Y-58566D01*
X88733Y-58637D01*
X88825Y-58675D01*
X88887Y-58675D01*
X88950Y-58612D01*
X88950Y-58824D01*
X88825Y-58824D01*
X88733Y-58862D01*
X88663Y-58933D01*
X88625Y-59025D01*
X88624Y-59124D01*
X88624Y-59250D01*
X87950Y-59925D01*
X87950Y-56551D01*
X87958Y-56560D01*
X88115Y-56624D01*
X88284Y-56625D01*
X88440Y-56560D01*
X88501Y-56500D01*
X90075Y-56500D01*
X90887Y-57312D01*
X90887Y-57312D01*
X90985Y-57377D01*
X91100Y-57400D01*
X91974Y-57400D01*
X91974Y-57600D01*
G54D10*
G36*
X98400Y-57975D02*
X96487Y-59887D01*
X96422Y-59985D01*
X96400Y-60100D01*
X96400Y-61500D01*
X96400Y-62025D01*
X96229Y-62196D01*
X96229Y-61437D01*
X96219Y-61209D01*
X96151Y-61047D01*
X96054Y-61016D01*
X95983Y-61087D01*
X95983Y-60945D01*
X95952Y-60848D01*
X95737Y-60770D01*
X95509Y-60780D01*
X95347Y-60848D01*
X95316Y-60945D01*
X95650Y-61279D01*
X95983Y-60945D01*
X95983Y-61087D01*
X95720Y-61350D01*
X96054Y-61683D01*
X96151Y-61652D01*
X96229Y-61437D01*
X96229Y-62196D01*
X96218Y-62207D01*
X96151Y-62047D01*
X96054Y-62016D01*
X95983Y-62087D01*
X95983Y-61945D01*
X95953Y-61850D01*
X95983Y-61754D01*
X95650Y-61420D01*
X95579Y-61491D01*
X95579Y-61350D01*
X95245Y-61016D01*
X95150Y-61046D01*
X95054Y-61016D01*
X94720Y-61350D01*
X95054Y-61683D01*
X95150Y-61653D01*
X95245Y-61683D01*
X95579Y-61350D01*
X95579Y-61491D01*
X95316Y-61754D01*
X95346Y-61850D01*
X95316Y-61945D01*
X95650Y-62279D01*
X95983Y-61945D01*
X95983Y-62087D01*
X95720Y-62350D01*
X95726Y-62355D01*
X95655Y-62426D01*
X95650Y-62420D01*
X95644Y-62426D01*
X95573Y-62355D01*
X95579Y-62350D01*
X95245Y-62016D01*
X95150Y-62046D01*
X95054Y-62016D01*
X94720Y-62350D01*
X94726Y-62355D01*
X94655Y-62426D01*
X94650Y-62420D01*
X94644Y-62426D01*
X94573Y-62355D01*
X94579Y-62350D01*
X94573Y-62344D01*
X94644Y-62273D01*
X94650Y-62279D01*
X94983Y-61945D01*
X94953Y-61850D01*
X94983Y-61754D01*
X94650Y-61420D01*
X94644Y-61426D01*
X94573Y-61355D01*
X94579Y-61350D01*
X94573Y-61344D01*
X94644Y-61273D01*
X94650Y-61279D01*
X94983Y-60945D01*
X94962Y-60877D01*
X94964Y-60877D01*
X94964Y-60877D01*
X95062Y-60812D01*
X98062Y-57812D01*
X98062Y-57812D01*
X98127Y-57714D01*
X98149Y-57600D01*
X98150Y-57600D01*
X98150Y-54700D01*
X98127Y-54585D01*
X98062Y-54487D01*
X98062Y-54487D01*
X97812Y-54237D01*
X97808Y-54235D01*
X97787Y-54183D01*
X97716Y-54113D01*
X97650Y-54085D01*
X97650Y-52725D01*
X98074Y-52725D01*
X98166Y-52687D01*
X98237Y-52616D01*
X98275Y-52525D01*
X98275Y-52425D01*
X98275Y-50575D01*
X98257Y-50531D01*
X98400Y-50674D01*
X98400Y-52950D01*
X98400Y-53000D01*
X98400Y-54085D01*
X98333Y-54112D01*
X98263Y-54183D01*
X98225Y-54275D01*
X98224Y-54374D01*
X98224Y-54624D01*
X98262Y-54716D01*
X98296Y-54749D01*
X98263Y-54783D01*
X98225Y-54875D01*
X98224Y-54974D01*
X98224Y-55224D01*
X98262Y-55316D01*
X98333Y-55386D01*
X98400Y-55414D01*
X98400Y-57975D01*
X98400Y-57975D01*
G37*
G54D20*
X98400Y-57975D02*
X96487Y-59887D01*
X96422Y-59985D01*
X96400Y-60100D01*
X96400Y-61500D01*
X96400Y-62025D01*
X96229Y-62196D01*
X96229Y-61437D01*
X96219Y-61209D01*
X96151Y-61047D01*
X96054Y-61016D01*
X95983Y-61087D01*
X95983Y-60945D01*
X95952Y-60848D01*
X95737Y-60770D01*
X95509Y-60780D01*
X95347Y-60848D01*
X95316Y-60945D01*
X95650Y-61279D01*
X95983Y-60945D01*
X95983Y-61087D01*
X95720Y-61350D01*
X96054Y-61683D01*
X96151Y-61652D01*
X96229Y-61437D01*
X96229Y-62196D01*
X96218Y-62207D01*
X96151Y-62047D01*
X96054Y-62016D01*
X95983Y-62087D01*
X95983Y-61945D01*
X95953Y-61850D01*
X95983Y-61754D01*
X95650Y-61420D01*
X95579Y-61491D01*
X95579Y-61350D01*
X95245Y-61016D01*
X95150Y-61046D01*
X95054Y-61016D01*
X94720Y-61350D01*
X95054Y-61683D01*
X95150Y-61653D01*
X95245Y-61683D01*
X95579Y-61350D01*
X95579Y-61491D01*
X95316Y-61754D01*
X95346Y-61850D01*
X95316Y-61945D01*
X95650Y-62279D01*
X95983Y-61945D01*
X95983Y-62087D01*
X95720Y-62350D01*
X95726Y-62355D01*
X95655Y-62426D01*
X95650Y-62420D01*
X95644Y-62426D01*
X95573Y-62355D01*
X95579Y-62350D01*
X95245Y-62016D01*
X95150Y-62046D01*
X95054Y-62016D01*
X94720Y-62350D01*
X94726Y-62355D01*
X94655Y-62426D01*
X94650Y-62420D01*
X94644Y-62426D01*
X94573Y-62355D01*
X94579Y-62350D01*
X94573Y-62344D01*
X94644Y-62273D01*
X94650Y-62279D01*
X94983Y-61945D01*
X94953Y-61850D01*
X94983Y-61754D01*
X94650Y-61420D01*
X94644Y-61426D01*
X94573Y-61355D01*
X94579Y-61350D01*
X94573Y-61344D01*
X94644Y-61273D01*
X94650Y-61279D01*
X94983Y-60945D01*
X94962Y-60877D01*
X94964Y-60877D01*
X94964Y-60877D01*
X95062Y-60812D01*
X98062Y-57812D01*
X98062Y-57812D01*
X98127Y-57714D01*
X98149Y-57600D01*
X98150Y-57600D01*
X98150Y-54700D01*
X98127Y-54585D01*
X98062Y-54487D01*
X98062Y-54487D01*
X97812Y-54237D01*
X97808Y-54235D01*
X97787Y-54183D01*
X97716Y-54113D01*
X97650Y-54085D01*
X97650Y-52725D01*
X98074Y-52725D01*
X98166Y-52687D01*
X98237Y-52616D01*
X98275Y-52525D01*
X98275Y-52425D01*
X98275Y-50575D01*
X98257Y-50531D01*
X98400Y-50674D01*
X98400Y-52950D01*
X98400Y-53000D01*
X98400Y-54085D01*
X98333Y-54112D01*
X98263Y-54183D01*
X98225Y-54275D01*
X98224Y-54374D01*
X98224Y-54624D01*
X98262Y-54716D01*
X98296Y-54749D01*
X98263Y-54783D01*
X98225Y-54875D01*
X98224Y-54974D01*
X98224Y-55224D01*
X98262Y-55316D01*
X98333Y-55386D01*
X98400Y-55414D01*
X98400Y-57975D01*
G54D10*
G36*
X99630Y-58064D02*
X99264Y-59912D01*
X98243Y-61437D01*
X96952Y-62301D01*
X96977Y-62264D01*
X96999Y-62150D01*
X97000Y-62150D01*
X97000Y-61500D01*
X97000Y-60224D01*
X98912Y-58312D01*
X98912Y-58312D01*
X98977Y-58214D01*
X98999Y-58100D01*
X99000Y-58100D01*
X99000Y-55414D01*
X99066Y-55387D01*
X99136Y-55316D01*
X99174Y-55224D01*
X99175Y-55125D01*
X99175Y-54875D01*
X99137Y-54783D01*
X99103Y-54750D01*
X99136Y-54716D01*
X99174Y-54624D01*
X99175Y-54525D01*
X99175Y-54275D01*
X99137Y-54183D01*
X99066Y-54113D01*
X99000Y-54085D01*
X99000Y-53374D01*
X99134Y-53375D01*
X99290Y-53310D01*
X99410Y-53191D01*
X99474Y-53034D01*
X99475Y-52865D01*
X99410Y-52709D01*
X99291Y-52589D01*
X99134Y-52525D01*
X99000Y-52524D01*
X99000Y-50550D01*
X98977Y-50435D01*
X98912Y-50337D01*
X98912Y-50337D01*
X98275Y-49700D01*
X98275Y-48225D01*
X98237Y-48133D01*
X98166Y-48062D01*
X98075Y-48024D01*
X97975Y-48024D01*
X96625Y-48024D01*
X96533Y-48062D01*
X96462Y-48133D01*
X96424Y-48224D01*
X96424Y-48324D01*
X96424Y-50174D01*
X96462Y-50266D01*
X96533Y-50337D01*
X96624Y-50375D01*
X96533Y-50412D01*
X96462Y-50483D01*
X96424Y-50574D01*
X96424Y-50674D01*
X96424Y-52524D01*
X96462Y-52616D01*
X96533Y-52687D01*
X96624Y-52725D01*
X96724Y-52725D01*
X97050Y-52725D01*
X97050Y-54085D01*
X96983Y-54112D01*
X96913Y-54183D01*
X96875Y-54275D01*
X96874Y-54374D01*
X96874Y-54624D01*
X96912Y-54716D01*
X96946Y-54749D01*
X96913Y-54783D01*
X96875Y-54875D01*
X96874Y-54974D01*
X96874Y-55224D01*
X96912Y-55316D01*
X96983Y-55386D01*
X97050Y-55414D01*
X97050Y-57575D01*
X94875Y-59750D01*
X94875Y-59475D01*
X94875Y-59124D01*
X94874Y-59025D01*
X94836Y-58933D01*
X94766Y-58862D01*
X94674Y-58824D01*
X94612Y-58825D01*
X94550Y-58887D01*
X94550Y-59250D01*
X94812Y-59250D01*
X94875Y-59187D01*
X94875Y-59124D01*
X94875Y-59475D01*
X94875Y-59412D01*
X94812Y-59350D01*
X94550Y-59350D01*
X94550Y-59712D01*
X94612Y-59775D01*
X94674Y-59775D01*
X94766Y-59737D01*
X94836Y-59666D01*
X94874Y-59574D01*
X94875Y-59475D01*
X94875Y-59750D01*
X94625Y-60000D01*
X94000Y-60000D01*
X93885Y-60022D01*
X93787Y-60087D01*
X93437Y-60437D01*
X93372Y-60535D01*
X93350Y-60650D01*
X93350Y-60851D01*
X93324Y-60862D01*
X93175Y-61011D01*
X93175Y-60074D01*
X93175Y-60012D01*
X93112Y-59950D01*
X92750Y-59950D01*
X92750Y-60212D01*
X92812Y-60275D01*
X92875Y-60275D01*
X92974Y-60274D01*
X93066Y-60236D01*
X93137Y-60166D01*
X93175Y-60074D01*
X93175Y-61011D01*
X93162Y-61023D01*
X93150Y-61054D01*
X93137Y-61024D01*
X92976Y-60862D01*
X92764Y-60775D01*
X92536Y-60774D01*
X92450Y-60810D01*
X92450Y-60274D01*
X92524Y-60275D01*
X92587Y-60275D01*
X92650Y-60212D01*
X92650Y-59950D01*
X92642Y-59950D01*
X92642Y-59850D01*
X92650Y-59850D01*
X92650Y-59842D01*
X92750Y-59842D01*
X92750Y-59850D01*
X93112Y-59850D01*
X93175Y-59787D01*
X93175Y-59725D01*
X93137Y-59633D01*
X93113Y-59610D01*
X93539Y-59610D01*
X93562Y-59666D01*
X93633Y-59736D01*
X93725Y-59774D01*
X93824Y-59775D01*
X94074Y-59775D01*
X94166Y-59737D01*
X94200Y-59703D01*
X94233Y-59737D01*
X94325Y-59775D01*
X94387Y-59775D01*
X94450Y-59712D01*
X94450Y-59350D01*
X94442Y-59350D01*
X94442Y-59250D01*
X94450Y-59250D01*
X94450Y-58887D01*
X94387Y-58825D01*
X94325Y-58824D01*
X94280Y-58843D01*
X94849Y-58275D01*
X96074Y-58275D01*
X96166Y-58237D01*
X96237Y-58166D01*
X96275Y-58075D01*
X96275Y-57975D01*
X96275Y-56125D01*
X96237Y-56033D01*
X96166Y-55962D01*
X96075Y-55924D01*
X95975Y-55924D01*
X94625Y-55924D01*
X94533Y-55962D01*
X94462Y-56033D01*
X94424Y-56124D01*
X94424Y-56224D01*
X94424Y-57850D01*
X93687Y-58587D01*
X93622Y-58685D01*
X93600Y-58800D01*
X93600Y-58896D01*
X93563Y-58933D01*
X93539Y-58990D01*
X93093Y-58990D01*
X93066Y-58963D01*
X92974Y-58925D01*
X92875Y-58924D01*
X92425Y-58924D01*
X92346Y-58957D01*
X92337Y-58933D01*
X92266Y-58863D01*
X92174Y-58825D01*
X92075Y-58824D01*
X91825Y-58824D01*
X91733Y-58862D01*
X91700Y-58896D01*
X91700Y-58896D01*
X91700Y-58724D01*
X92156Y-58267D01*
X92174Y-58275D01*
X92274Y-58275D01*
X93624Y-58275D01*
X93716Y-58237D01*
X93787Y-58166D01*
X93825Y-58075D01*
X93825Y-57975D01*
X93825Y-56125D01*
X93787Y-56033D01*
X93716Y-55962D01*
X93625Y-55924D01*
X93525Y-55924D01*
X92175Y-55924D01*
X92083Y-55962D01*
X92012Y-56033D01*
X91974Y-56124D01*
X91974Y-56224D01*
X91974Y-56800D01*
X91224Y-56800D01*
X90412Y-55987D01*
X90314Y-55922D01*
X90200Y-55900D01*
X88501Y-55900D01*
X88441Y-55839D01*
X88284Y-55775D01*
X88115Y-55774D01*
X87959Y-55839D01*
X87950Y-55849D01*
X87950Y-54724D01*
X89987Y-52687D01*
X89987Y-52687D01*
X90052Y-52589D01*
X90074Y-52475D01*
X90075Y-52475D01*
X90075Y-52400D01*
X91274Y-52400D01*
X91274Y-53074D01*
X91312Y-53166D01*
X91383Y-53237D01*
X91474Y-53275D01*
X91574Y-53275D01*
X92924Y-53275D01*
X93016Y-53237D01*
X93087Y-53166D01*
X93125Y-53075D01*
X93125Y-52975D01*
X93125Y-51125D01*
X93087Y-51033D01*
X93016Y-50962D01*
X92925Y-50924D01*
X92825Y-50924D01*
X91475Y-50924D01*
X91383Y-50962D01*
X91312Y-51033D01*
X91274Y-51124D01*
X91274Y-51224D01*
X91274Y-51800D01*
X90075Y-51800D01*
X90075Y-51088D01*
X90124Y-51038D01*
X90162Y-50946D01*
X90163Y-50847D01*
X90163Y-50453D01*
X90125Y-50361D01*
X90054Y-50291D01*
X89962Y-50253D01*
X89863Y-50252D01*
X89587Y-50252D01*
X89587Y-50252D01*
X89587Y-50252D01*
X89512Y-50253D01*
X89450Y-50315D01*
X89450Y-50336D01*
X89425Y-50361D01*
X89399Y-50421D01*
X89375Y-50361D01*
X89350Y-50336D01*
X89350Y-50315D01*
X89287Y-50253D01*
X89212Y-50252D01*
X89212Y-50253D01*
X89113Y-50252D01*
X88837Y-50252D01*
X88745Y-50290D01*
X88675Y-50361D01*
X88637Y-50453D01*
X88636Y-50552D01*
X88636Y-50946D01*
X88648Y-50974D01*
X88615Y-50974D01*
X88459Y-51039D01*
X88398Y-51100D01*
X88375Y-51104D01*
X88375Y-50574D01*
X88375Y-50512D01*
X88312Y-50450D01*
X87950Y-50450D01*
X87950Y-50712D01*
X88012Y-50775D01*
X88075Y-50775D01*
X88174Y-50774D01*
X88266Y-50736D01*
X88337Y-50666D01*
X88375Y-50574D01*
X88375Y-51104D01*
X88285Y-51122D01*
X88260Y-51139D01*
X88225Y-51124D01*
X88125Y-51124D01*
X87850Y-51124D01*
X87850Y-50712D01*
X87850Y-50450D01*
X87487Y-50450D01*
X87425Y-50512D01*
X87424Y-50574D01*
X87462Y-50666D01*
X87533Y-50736D01*
X87625Y-50774D01*
X87724Y-50775D01*
X87787Y-50775D01*
X87850Y-50712D01*
X87850Y-51124D01*
X86775Y-51124D01*
X86683Y-51162D01*
X86612Y-51233D01*
X86574Y-51324D01*
X86574Y-51424D01*
X86574Y-53274D01*
X86612Y-53366D01*
X86683Y-53437D01*
X86774Y-53475D01*
X86874Y-53475D01*
X88224Y-53475D01*
X88316Y-53437D01*
X88387Y-53366D01*
X88425Y-53275D01*
X88425Y-53175D01*
X88425Y-51799D01*
X88462Y-51761D01*
X88615Y-51824D01*
X88784Y-51825D01*
X88940Y-51760D01*
X89060Y-51641D01*
X89124Y-51484D01*
X89125Y-51399D01*
X89237Y-51287D01*
X89237Y-51287D01*
X89302Y-51189D01*
X89316Y-51118D01*
X89316Y-51118D01*
X89350Y-51084D01*
X89350Y-51063D01*
X89374Y-51038D01*
X89400Y-50978D01*
X89424Y-51038D01*
X89450Y-51063D01*
X89450Y-51084D01*
X89475Y-51109D01*
X89475Y-52100D01*
X89475Y-52350D01*
X87437Y-54387D01*
X87372Y-54485D01*
X87350Y-54600D01*
X87350Y-60851D01*
X87324Y-60862D01*
X87162Y-61023D01*
X87150Y-61054D01*
X87137Y-61024D01*
X86976Y-60862D01*
X86950Y-60851D01*
X86950Y-55350D01*
X86927Y-55235D01*
X86862Y-55137D01*
X86862Y-55137D01*
X85900Y-54175D01*
X85900Y-50124D01*
X88224Y-47800D01*
X88474Y-47800D01*
X88474Y-48474D01*
X88512Y-48566D01*
X88583Y-48637D01*
X88674Y-48675D01*
X88774Y-48675D01*
X89100Y-48675D01*
X89100Y-49252D01*
X88837Y-49252D01*
X88745Y-49290D01*
X88675Y-49361D01*
X88659Y-49400D01*
X88000Y-49400D01*
X87885Y-49422D01*
X87882Y-49424D01*
X87625Y-49424D01*
X87533Y-49462D01*
X87496Y-49500D01*
X87100Y-49500D01*
X86985Y-49522D01*
X86887Y-49587D01*
X86750Y-49725D01*
X86665Y-49724D01*
X86509Y-49789D01*
X86389Y-49908D01*
X86325Y-50065D01*
X86324Y-50234D01*
X86389Y-50390D01*
X86508Y-50510D01*
X86665Y-50574D01*
X86834Y-50575D01*
X86990Y-50510D01*
X87110Y-50391D01*
X87174Y-50234D01*
X87175Y-50149D01*
X87224Y-50100D01*
X87496Y-50100D01*
X87462Y-50133D01*
X87424Y-50225D01*
X87425Y-50287D01*
X87487Y-50350D01*
X87850Y-50350D01*
X87850Y-50342D01*
X87950Y-50342D01*
X87950Y-50350D01*
X88312Y-50350D01*
X88375Y-50287D01*
X88375Y-50225D01*
X88337Y-50133D01*
X88303Y-50100D01*
X88336Y-50066D01*
X88364Y-50000D01*
X88659Y-50000D01*
X88674Y-50038D01*
X88745Y-50108D01*
X88837Y-50146D01*
X88936Y-50147D01*
X89212Y-50147D01*
X89212Y-50146D01*
X89311Y-50147D01*
X89587Y-50147D01*
X89587Y-50146D01*
X89686Y-50147D01*
X89962Y-50147D01*
X90054Y-50109D01*
X90124Y-50038D01*
X90162Y-49946D01*
X90163Y-49847D01*
X90163Y-49736D01*
X90499Y-49400D01*
X91274Y-49400D01*
X91274Y-50074D01*
X91312Y-50166D01*
X91383Y-50237D01*
X91474Y-50275D01*
X91574Y-50275D01*
X92924Y-50275D01*
X93016Y-50237D01*
X93087Y-50166D01*
X93125Y-50075D01*
X93125Y-49975D01*
X93125Y-48125D01*
X93087Y-48033D01*
X93016Y-47962D01*
X92925Y-47924D01*
X92825Y-47924D01*
X92500Y-47924D01*
X92500Y-47550D01*
X92477Y-47435D01*
X92412Y-47337D01*
X91112Y-46037D01*
X91014Y-45972D01*
X90900Y-45950D01*
X88500Y-45950D01*
X88385Y-45972D01*
X88287Y-46037D01*
X85037Y-49287D01*
X84972Y-49385D01*
X84950Y-49500D01*
X84950Y-54600D01*
X84972Y-54714D01*
X85037Y-54812D01*
X86000Y-55774D01*
X86000Y-57124D01*
X85925Y-57124D01*
X84575Y-57124D01*
X84483Y-57162D01*
X84412Y-57233D01*
X84374Y-57324D01*
X84374Y-57424D01*
X84374Y-59274D01*
X84412Y-59366D01*
X84483Y-59437D01*
X84574Y-59475D01*
X84674Y-59475D01*
X84840Y-59475D01*
X84840Y-59539D01*
X84783Y-59562D01*
X84713Y-59633D01*
X84675Y-59725D01*
X84675Y-59757D01*
X84662Y-59737D01*
X84662Y-59737D01*
X83825Y-58900D01*
X83825Y-57425D01*
X83787Y-57333D01*
X83716Y-57262D01*
X83625Y-57224D01*
X83525Y-57224D01*
X82175Y-57224D01*
X82083Y-57262D01*
X82012Y-57333D01*
X81974Y-57424D01*
X81974Y-57524D01*
X81974Y-59374D01*
X82012Y-59466D01*
X82083Y-59537D01*
X82174Y-59575D01*
X82274Y-59575D01*
X83624Y-59575D01*
X83643Y-59567D01*
X83900Y-59824D01*
X83675Y-59824D01*
X83583Y-59862D01*
X83513Y-59933D01*
X83475Y-60025D01*
X83474Y-60124D01*
X83474Y-60250D01*
X83437Y-60287D01*
X83372Y-60385D01*
X83350Y-60500D01*
X83350Y-60851D01*
X83324Y-60862D01*
X83162Y-61023D01*
X83150Y-61054D01*
X83137Y-61024D01*
X82976Y-60862D01*
X82764Y-60775D01*
X82536Y-60774D01*
X82442Y-60813D01*
X82427Y-60735D01*
X82362Y-60637D01*
X82362Y-60637D01*
X81675Y-59950D01*
X81675Y-50274D01*
X81675Y-50212D01*
X81612Y-50150D01*
X81250Y-50150D01*
X81250Y-50412D01*
X81312Y-50475D01*
X81375Y-50475D01*
X81474Y-50474D01*
X81566Y-50436D01*
X81637Y-50366D01*
X81675Y-50274D01*
X81675Y-59950D01*
X81000Y-59275D01*
X81000Y-55675D01*
X81424Y-55675D01*
X81516Y-55637D01*
X81587Y-55566D01*
X81625Y-55475D01*
X81625Y-55375D01*
X81625Y-53525D01*
X81587Y-53433D01*
X81516Y-53362D01*
X81425Y-53324D01*
X81325Y-53324D01*
X81150Y-53324D01*
X81150Y-50412D01*
X81150Y-50150D01*
X80787Y-50150D01*
X80725Y-50212D01*
X80724Y-50274D01*
X80762Y-50366D01*
X80833Y-50436D01*
X80925Y-50474D01*
X81024Y-50475D01*
X81087Y-50475D01*
X81150Y-50412D01*
X81150Y-53324D01*
X80275Y-53324D01*
X80275Y-50117D01*
X80275Y-50062D01*
X80213Y-50000D01*
X79800Y-50000D01*
X79800Y-50255D01*
X79862Y-50318D01*
X79975Y-50318D01*
X80075Y-50317D01*
X80167Y-50279D01*
X80237Y-50209D01*
X80275Y-50117D01*
X80275Y-53324D01*
X79975Y-53324D01*
X79883Y-53362D01*
X79812Y-53433D01*
X79774Y-53524D01*
X79774Y-53624D01*
X79774Y-54200D01*
X79700Y-54200D01*
X79700Y-50255D01*
X79700Y-50000D01*
X79287Y-50000D01*
X79224Y-50062D01*
X79224Y-50117D01*
X79262Y-50209D01*
X79332Y-50279D01*
X79424Y-50317D01*
X79524Y-50318D01*
X79637Y-50318D01*
X79700Y-50255D01*
X79700Y-54200D01*
X79375Y-54200D01*
X79375Y-51075D01*
X79375Y-50724D01*
X79374Y-50625D01*
X79336Y-50533D01*
X79266Y-50462D01*
X79174Y-50424D01*
X79112Y-50425D01*
X79050Y-50487D01*
X79050Y-50850D01*
X79312Y-50850D01*
X79375Y-50787D01*
X79375Y-50724D01*
X79375Y-51075D01*
X79375Y-51012D01*
X79312Y-50950D01*
X79050Y-50950D01*
X79050Y-51312D01*
X79112Y-51375D01*
X79174Y-51375D01*
X79266Y-51337D01*
X79336Y-51266D01*
X79374Y-51174D01*
X79375Y-51075D01*
X79375Y-54200D01*
X79003Y-54200D01*
X79036Y-54166D01*
X79074Y-54074D01*
X79075Y-53975D01*
X79075Y-53725D01*
X79037Y-53633D01*
X78966Y-53563D01*
X78874Y-53525D01*
X78775Y-53524D01*
X78642Y-53524D01*
X78564Y-53472D01*
X78450Y-53450D01*
X77897Y-53450D01*
X77867Y-53420D01*
X77775Y-53382D01*
X77760Y-53382D01*
X77760Y-51593D01*
X77840Y-51560D01*
X77960Y-51441D01*
X78024Y-51284D01*
X78025Y-51200D01*
X78035Y-51200D01*
X78062Y-51266D01*
X78133Y-51336D01*
X78225Y-51374D01*
X78324Y-51375D01*
X78574Y-51375D01*
X78666Y-51337D01*
X78700Y-51303D01*
X78733Y-51337D01*
X78825Y-51375D01*
X78887Y-51375D01*
X78950Y-51312D01*
X78950Y-50950D01*
X78942Y-50950D01*
X78942Y-50850D01*
X78950Y-50850D01*
X78950Y-50487D01*
X78887Y-50425D01*
X78825Y-50424D01*
X78733Y-50462D01*
X78700Y-50496D01*
X78666Y-50463D01*
X78574Y-50425D01*
X78475Y-50424D01*
X78225Y-50424D01*
X78133Y-50462D01*
X78063Y-50533D01*
X78035Y-50600D01*
X77950Y-50600D01*
X77950Y-50318D01*
X77975Y-50318D01*
X78066Y-50280D01*
X78137Y-50209D01*
X78175Y-50117D01*
X78175Y-50018D01*
X78175Y-49782D01*
X78141Y-49699D01*
X78175Y-49617D01*
X78175Y-49518D01*
X78175Y-49282D01*
X78162Y-49250D01*
X78475Y-49250D01*
X78887Y-49662D01*
X78887Y-49662D01*
X78985Y-49727D01*
X79100Y-49750D01*
X79237Y-49750D01*
X79224Y-49782D01*
X79224Y-49837D01*
X79287Y-49900D01*
X79700Y-49900D01*
X79700Y-49892D01*
X79800Y-49892D01*
X79800Y-49900D01*
X80213Y-49900D01*
X80275Y-49837D01*
X80275Y-49782D01*
X80262Y-49750D01*
X80756Y-49750D01*
X80762Y-49766D01*
X80796Y-49800D01*
X80762Y-49833D01*
X80724Y-49925D01*
X80725Y-49987D01*
X80787Y-50050D01*
X81150Y-50050D01*
X81150Y-50042D01*
X81250Y-50042D01*
X81250Y-50050D01*
X81612Y-50050D01*
X81675Y-49987D01*
X81675Y-49925D01*
X81637Y-49833D01*
X81603Y-49800D01*
X81636Y-49766D01*
X81674Y-49674D01*
X81675Y-49575D01*
X81675Y-49325D01*
X81637Y-49233D01*
X81566Y-49163D01*
X81474Y-49125D01*
X81375Y-49124D01*
X81199Y-49124D01*
X81249Y-49075D01*
X81474Y-49075D01*
X81566Y-49037D01*
X81603Y-49000D01*
X81974Y-49000D01*
X81974Y-49774D01*
X82012Y-49866D01*
X82083Y-49937D01*
X82174Y-49975D01*
X82274Y-49975D01*
X83624Y-49975D01*
X83716Y-49937D01*
X83787Y-49866D01*
X83825Y-49775D01*
X83825Y-49675D01*
X83825Y-47825D01*
X83787Y-47733D01*
X83716Y-47662D01*
X83625Y-47624D01*
X83525Y-47624D01*
X82175Y-47624D01*
X82083Y-47662D01*
X82012Y-47733D01*
X81974Y-47824D01*
X81974Y-47924D01*
X81974Y-48400D01*
X81603Y-48400D01*
X81636Y-48366D01*
X81674Y-48274D01*
X81675Y-48175D01*
X81675Y-47925D01*
X81637Y-47833D01*
X81566Y-47763D01*
X81500Y-47735D01*
X81500Y-45581D01*
X81532Y-45568D01*
X81603Y-45497D01*
X81641Y-45405D01*
X81641Y-45365D01*
X84150Y-47874D01*
X84150Y-55948D01*
X84089Y-56008D01*
X84025Y-56165D01*
X84024Y-56334D01*
X84089Y-56490D01*
X84208Y-56610D01*
X84365Y-56674D01*
X84534Y-56675D01*
X84690Y-56610D01*
X84810Y-56491D01*
X84874Y-56334D01*
X84875Y-56165D01*
X84810Y-56009D01*
X84750Y-55948D01*
X84750Y-47750D01*
X84727Y-47635D01*
X84662Y-47537D01*
X84662Y-47537D01*
X83799Y-46675D01*
X83874Y-46675D01*
X85224Y-46675D01*
X85316Y-46637D01*
X85387Y-46566D01*
X85425Y-46475D01*
X85425Y-46375D01*
X85425Y-44525D01*
X85387Y-44433D01*
X85316Y-44362D01*
X85225Y-44324D01*
X85125Y-44324D01*
X83775Y-44324D01*
X83683Y-44362D01*
X83612Y-44433D01*
X83574Y-44524D01*
X83574Y-44624D01*
X83574Y-45200D01*
X83024Y-45200D01*
X82450Y-44625D01*
X82450Y-43889D01*
X82535Y-43924D01*
X82763Y-43925D01*
X82975Y-43837D01*
X83137Y-43676D01*
X83149Y-43645D01*
X83162Y-43675D01*
X83323Y-43837D01*
X83535Y-43924D01*
X83763Y-43925D01*
X83975Y-43837D01*
X84137Y-43676D01*
X84149Y-43645D01*
X84162Y-43675D01*
X84323Y-43837D01*
X84535Y-43924D01*
X84763Y-43925D01*
X84975Y-43837D01*
X85137Y-43676D01*
X85149Y-43645D01*
X85162Y-43675D01*
X85323Y-43837D01*
X85535Y-43924D01*
X85763Y-43925D01*
X85975Y-43837D01*
X86137Y-43676D01*
X86149Y-43645D01*
X86162Y-43675D01*
X86323Y-43837D01*
X86535Y-43924D01*
X86763Y-43925D01*
X86975Y-43837D01*
X87137Y-43676D01*
X87149Y-43645D01*
X87162Y-43675D01*
X87323Y-43837D01*
X87535Y-43924D01*
X87763Y-43925D01*
X87975Y-43837D01*
X88137Y-43676D01*
X88149Y-43645D01*
X88162Y-43675D01*
X88323Y-43837D01*
X88535Y-43924D01*
X88763Y-43925D01*
X88975Y-43837D01*
X89137Y-43676D01*
X89149Y-43645D01*
X89162Y-43675D01*
X89323Y-43837D01*
X89535Y-43924D01*
X89763Y-43925D01*
X89975Y-43837D01*
X90137Y-43676D01*
X90149Y-43645D01*
X90162Y-43675D01*
X90323Y-43837D01*
X90535Y-43924D01*
X90763Y-43925D01*
X90975Y-43837D01*
X91137Y-43676D01*
X91149Y-43645D01*
X91162Y-43675D01*
X91323Y-43837D01*
X91535Y-43924D01*
X91763Y-43925D01*
X91975Y-43837D01*
X92137Y-43676D01*
X92149Y-43645D01*
X92162Y-43675D01*
X92323Y-43837D01*
X92535Y-43924D01*
X92763Y-43925D01*
X92975Y-43837D01*
X93137Y-43676D01*
X93149Y-43645D01*
X93162Y-43675D01*
X93323Y-43837D01*
X93535Y-43924D01*
X93763Y-43925D01*
X93975Y-43837D01*
X94137Y-43676D01*
X94149Y-43645D01*
X94162Y-43675D01*
X94323Y-43837D01*
X94535Y-43924D01*
X94763Y-43925D01*
X94975Y-43837D01*
X95137Y-43676D01*
X95149Y-43645D01*
X95162Y-43675D01*
X95323Y-43837D01*
X95535Y-43924D01*
X95763Y-43925D01*
X95975Y-43837D01*
X96137Y-43676D01*
X96224Y-43464D01*
X96225Y-43236D01*
X96137Y-43024D01*
X95976Y-42862D01*
X95945Y-42850D01*
X95975Y-42837D01*
X96137Y-42676D01*
X96224Y-42464D01*
X96225Y-42236D01*
X96180Y-42128D01*
X96704Y-42232D01*
X98243Y-43262D01*
X99264Y-44787D01*
X99630Y-46635D01*
X99630Y-58064D01*
X99630Y-58064D01*
G37*
G54D20*
X99630Y-58064D02*
X99264Y-59912D01*
X98243Y-61437D01*
X96952Y-62301D01*
X96977Y-62264D01*
X96999Y-62150D01*
X97000Y-62150D01*
X97000Y-61500D01*
X97000Y-60224D01*
X98912Y-58312D01*
X98912Y-58312D01*
X98977Y-58214D01*
X98999Y-58100D01*
X99000Y-58100D01*
X99000Y-55414D01*
X99066Y-55387D01*
X99136Y-55316D01*
X99174Y-55224D01*
X99175Y-55125D01*
X99175Y-54875D01*
X99137Y-54783D01*
X99103Y-54750D01*
X99136Y-54716D01*
X99174Y-54624D01*
X99175Y-54525D01*
X99175Y-54275D01*
X99137Y-54183D01*
X99066Y-54113D01*
X99000Y-54085D01*
X99000Y-53374D01*
X99134Y-53375D01*
X99290Y-53310D01*
X99410Y-53191D01*
X99474Y-53034D01*
X99475Y-52865D01*
X99410Y-52709D01*
X99291Y-52589D01*
X99134Y-52525D01*
X99000Y-52524D01*
X99000Y-50550D01*
X98977Y-50435D01*
X98912Y-50337D01*
X98912Y-50337D01*
X98275Y-49700D01*
X98275Y-48225D01*
X98237Y-48133D01*
X98166Y-48062D01*
X98075Y-48024D01*
X97975Y-48024D01*
X96625Y-48024D01*
X96533Y-48062D01*
X96462Y-48133D01*
X96424Y-48224D01*
X96424Y-48324D01*
X96424Y-50174D01*
X96462Y-50266D01*
X96533Y-50337D01*
X96624Y-50375D01*
X96533Y-50412D01*
X96462Y-50483D01*
X96424Y-50574D01*
X96424Y-50674D01*
X96424Y-52524D01*
X96462Y-52616D01*
X96533Y-52687D01*
X96624Y-52725D01*
X96724Y-52725D01*
X97050Y-52725D01*
X97050Y-54085D01*
X96983Y-54112D01*
X96913Y-54183D01*
X96875Y-54275D01*
X96874Y-54374D01*
X96874Y-54624D01*
X96912Y-54716D01*
X96946Y-54749D01*
X96913Y-54783D01*
X96875Y-54875D01*
X96874Y-54974D01*
X96874Y-55224D01*
X96912Y-55316D01*
X96983Y-55386D01*
X97050Y-55414D01*
X97050Y-57575D01*
X94875Y-59750D01*
X94875Y-59475D01*
X94875Y-59124D01*
X94874Y-59025D01*
X94836Y-58933D01*
X94766Y-58862D01*
X94674Y-58824D01*
X94612Y-58825D01*
X94550Y-58887D01*
X94550Y-59250D01*
X94812Y-59250D01*
X94875Y-59187D01*
X94875Y-59124D01*
X94875Y-59475D01*
X94875Y-59412D01*
X94812Y-59350D01*
X94550Y-59350D01*
X94550Y-59712D01*
X94612Y-59775D01*
X94674Y-59775D01*
X94766Y-59737D01*
X94836Y-59666D01*
X94874Y-59574D01*
X94875Y-59475D01*
X94875Y-59750D01*
X94625Y-60000D01*
X94000Y-60000D01*
X93885Y-60022D01*
X93787Y-60087D01*
X93437Y-60437D01*
X93372Y-60535D01*
X93350Y-60650D01*
X93350Y-60851D01*
X93324Y-60862D01*
X93175Y-61011D01*
X93175Y-60074D01*
X93175Y-60012D01*
X93112Y-59950D01*
X92750Y-59950D01*
X92750Y-60212D01*
X92812Y-60275D01*
X92875Y-60275D01*
X92974Y-60274D01*
X93066Y-60236D01*
X93137Y-60166D01*
X93175Y-60074D01*
X93175Y-61011D01*
X93162Y-61023D01*
X93150Y-61054D01*
X93137Y-61024D01*
X92976Y-60862D01*
X92764Y-60775D01*
X92536Y-60774D01*
X92450Y-60810D01*
X92450Y-60274D01*
X92524Y-60275D01*
X92587Y-60275D01*
X92650Y-60212D01*
X92650Y-59950D01*
X92642Y-59950D01*
X92642Y-59850D01*
X92650Y-59850D01*
X92650Y-59842D01*
X92750Y-59842D01*
X92750Y-59850D01*
X93112Y-59850D01*
X93175Y-59787D01*
X93175Y-59725D01*
X93137Y-59633D01*
X93113Y-59610D01*
X93539Y-59610D01*
X93562Y-59666D01*
X93633Y-59736D01*
X93725Y-59774D01*
X93824Y-59775D01*
X94074Y-59775D01*
X94166Y-59737D01*
X94200Y-59703D01*
X94233Y-59737D01*
X94325Y-59775D01*
X94387Y-59775D01*
X94450Y-59712D01*
X94450Y-59350D01*
X94442Y-59350D01*
X94442Y-59250D01*
X94450Y-59250D01*
X94450Y-58887D01*
X94387Y-58825D01*
X94325Y-58824D01*
X94280Y-58843D01*
X94849Y-58275D01*
X96074Y-58275D01*
X96166Y-58237D01*
X96237Y-58166D01*
X96275Y-58075D01*
X96275Y-57975D01*
X96275Y-56125D01*
X96237Y-56033D01*
X96166Y-55962D01*
X96075Y-55924D01*
X95975Y-55924D01*
X94625Y-55924D01*
X94533Y-55962D01*
X94462Y-56033D01*
X94424Y-56124D01*
X94424Y-56224D01*
X94424Y-57850D01*
X93687Y-58587D01*
X93622Y-58685D01*
X93600Y-58800D01*
X93600Y-58896D01*
X93563Y-58933D01*
X93539Y-58990D01*
X93093Y-58990D01*
X93066Y-58963D01*
X92974Y-58925D01*
X92875Y-58924D01*
X92425Y-58924D01*
X92346Y-58957D01*
X92337Y-58933D01*
X92266Y-58863D01*
X92174Y-58825D01*
X92075Y-58824D01*
X91825Y-58824D01*
X91733Y-58862D01*
X91700Y-58896D01*
X91700Y-58896D01*
X91700Y-58724D01*
X92156Y-58267D01*
X92174Y-58275D01*
X92274Y-58275D01*
X93624Y-58275D01*
X93716Y-58237D01*
X93787Y-58166D01*
X93825Y-58075D01*
X93825Y-57975D01*
X93825Y-56125D01*
X93787Y-56033D01*
X93716Y-55962D01*
X93625Y-55924D01*
X93525Y-55924D01*
X92175Y-55924D01*
X92083Y-55962D01*
X92012Y-56033D01*
X91974Y-56124D01*
X91974Y-56224D01*
X91974Y-56800D01*
X91224Y-56800D01*
X90412Y-55987D01*
X90314Y-55922D01*
X90200Y-55900D01*
X88501Y-55900D01*
X88441Y-55839D01*
X88284Y-55775D01*
X88115Y-55774D01*
X87959Y-55839D01*
X87950Y-55849D01*
X87950Y-54724D01*
X89987Y-52687D01*
X89987Y-52687D01*
X90052Y-52589D01*
X90074Y-52475D01*
X90075Y-52475D01*
X90075Y-52400D01*
X91274Y-52400D01*
X91274Y-53074D01*
X91312Y-53166D01*
X91383Y-53237D01*
X91474Y-53275D01*
X91574Y-53275D01*
X92924Y-53275D01*
X93016Y-53237D01*
X93087Y-53166D01*
X93125Y-53075D01*
X93125Y-52975D01*
X93125Y-51125D01*
X93087Y-51033D01*
X93016Y-50962D01*
X92925Y-50924D01*
X92825Y-50924D01*
X91475Y-50924D01*
X91383Y-50962D01*
X91312Y-51033D01*
X91274Y-51124D01*
X91274Y-51224D01*
X91274Y-51800D01*
X90075Y-51800D01*
X90075Y-51088D01*
X90124Y-51038D01*
X90162Y-50946D01*
X90163Y-50847D01*
X90163Y-50453D01*
X90125Y-50361D01*
X90054Y-50291D01*
X89962Y-50253D01*
X89863Y-50252D01*
X89587Y-50252D01*
X89587Y-50252D01*
X89587Y-50252D01*
X89512Y-50253D01*
X89450Y-50315D01*
X89450Y-50336D01*
X89425Y-50361D01*
X89399Y-50421D01*
X89375Y-50361D01*
X89350Y-50336D01*
X89350Y-50315D01*
X89287Y-50253D01*
X89212Y-50252D01*
X89212Y-50253D01*
X89113Y-50252D01*
X88837Y-50252D01*
X88745Y-50290D01*
X88675Y-50361D01*
X88637Y-50453D01*
X88636Y-50552D01*
X88636Y-50946D01*
X88648Y-50974D01*
X88615Y-50974D01*
X88459Y-51039D01*
X88398Y-51100D01*
X88375Y-51104D01*
X88375Y-50574D01*
X88375Y-50512D01*
X88312Y-50450D01*
X87950Y-50450D01*
X87950Y-50712D01*
X88012Y-50775D01*
X88075Y-50775D01*
X88174Y-50774D01*
X88266Y-50736D01*
X88337Y-50666D01*
X88375Y-50574D01*
X88375Y-51104D01*
X88285Y-51122D01*
X88260Y-51139D01*
X88225Y-51124D01*
X88125Y-51124D01*
X87850Y-51124D01*
X87850Y-50712D01*
X87850Y-50450D01*
X87487Y-50450D01*
X87425Y-50512D01*
X87424Y-50574D01*
X87462Y-50666D01*
X87533Y-50736D01*
X87625Y-50774D01*
X87724Y-50775D01*
X87787Y-50775D01*
X87850Y-50712D01*
X87850Y-51124D01*
X86775Y-51124D01*
X86683Y-51162D01*
X86612Y-51233D01*
X86574Y-51324D01*
X86574Y-51424D01*
X86574Y-53274D01*
X86612Y-53366D01*
X86683Y-53437D01*
X86774Y-53475D01*
X86874Y-53475D01*
X88224Y-53475D01*
X88316Y-53437D01*
X88387Y-53366D01*
X88425Y-53275D01*
X88425Y-53175D01*
X88425Y-51799D01*
X88462Y-51761D01*
X88615Y-51824D01*
X88784Y-51825D01*
X88940Y-51760D01*
X89060Y-51641D01*
X89124Y-51484D01*
X89125Y-51399D01*
X89237Y-51287D01*
X89237Y-51287D01*
X89302Y-51189D01*
X89316Y-51118D01*
X89316Y-51118D01*
X89350Y-51084D01*
X89350Y-51063D01*
X89374Y-51038D01*
X89400Y-50978D01*
X89424Y-51038D01*
X89450Y-51063D01*
X89450Y-51084D01*
X89475Y-51109D01*
X89475Y-52100D01*
X89475Y-52350D01*
X87437Y-54387D01*
X87372Y-54485D01*
X87350Y-54600D01*
X87350Y-60851D01*
X87324Y-60862D01*
X87162Y-61023D01*
X87150Y-61054D01*
X87137Y-61024D01*
X86976Y-60862D01*
X86950Y-60851D01*
X86950Y-55350D01*
X86927Y-55235D01*
X86862Y-55137D01*
X86862Y-55137D01*
X85900Y-54175D01*
X85900Y-50124D01*
X88224Y-47800D01*
X88474Y-47800D01*
X88474Y-48474D01*
X88512Y-48566D01*
X88583Y-48637D01*
X88674Y-48675D01*
X88774Y-48675D01*
X89100Y-48675D01*
X89100Y-49252D01*
X88837Y-49252D01*
X88745Y-49290D01*
X88675Y-49361D01*
X88659Y-49400D01*
X88000Y-49400D01*
X87885Y-49422D01*
X87882Y-49424D01*
X87625Y-49424D01*
X87533Y-49462D01*
X87496Y-49500D01*
X87100Y-49500D01*
X86985Y-49522D01*
X86887Y-49587D01*
X86750Y-49725D01*
X86665Y-49724D01*
X86509Y-49789D01*
X86389Y-49908D01*
X86325Y-50065D01*
X86324Y-50234D01*
X86389Y-50390D01*
X86508Y-50510D01*
X86665Y-50574D01*
X86834Y-50575D01*
X86990Y-50510D01*
X87110Y-50391D01*
X87174Y-50234D01*
X87175Y-50149D01*
X87224Y-50100D01*
X87496Y-50100D01*
X87462Y-50133D01*
X87424Y-50225D01*
X87425Y-50287D01*
X87487Y-50350D01*
X87850Y-50350D01*
X87850Y-50342D01*
X87950Y-50342D01*
X87950Y-50350D01*
X88312Y-50350D01*
X88375Y-50287D01*
X88375Y-50225D01*
X88337Y-50133D01*
X88303Y-50100D01*
X88336Y-50066D01*
X88364Y-50000D01*
X88659Y-50000D01*
X88674Y-50038D01*
X88745Y-50108D01*
X88837Y-50146D01*
X88936Y-50147D01*
X89212Y-50147D01*
X89212Y-50146D01*
X89311Y-50147D01*
X89587Y-50147D01*
X89587Y-50146D01*
X89686Y-50147D01*
X89962Y-50147D01*
X90054Y-50109D01*
X90124Y-50038D01*
X90162Y-49946D01*
X90163Y-49847D01*
X90163Y-49736D01*
X90499Y-49400D01*
X91274Y-49400D01*
X91274Y-50074D01*
X91312Y-50166D01*
X91383Y-50237D01*
X91474Y-50275D01*
X91574Y-50275D01*
X92924Y-50275D01*
X93016Y-50237D01*
X93087Y-50166D01*
X93125Y-50075D01*
X93125Y-49975D01*
X93125Y-48125D01*
X93087Y-48033D01*
X93016Y-47962D01*
X92925Y-47924D01*
X92825Y-47924D01*
X92500Y-47924D01*
X92500Y-47550D01*
X92477Y-47435D01*
X92412Y-47337D01*
X91112Y-46037D01*
X91014Y-45972D01*
X90900Y-45950D01*
X88500Y-45950D01*
X88385Y-45972D01*
X88287Y-46037D01*
X85037Y-49287D01*
X84972Y-49385D01*
X84950Y-49500D01*
X84950Y-54600D01*
X84972Y-54714D01*
X85037Y-54812D01*
X86000Y-55774D01*
X86000Y-57124D01*
X85925Y-57124D01*
X84575Y-57124D01*
X84483Y-57162D01*
X84412Y-57233D01*
X84374Y-57324D01*
X84374Y-57424D01*
X84374Y-59274D01*
X84412Y-59366D01*
X84483Y-59437D01*
X84574Y-59475D01*
X84674Y-59475D01*
X84840Y-59475D01*
X84840Y-59539D01*
X84783Y-59562D01*
X84713Y-59633D01*
X84675Y-59725D01*
X84675Y-59757D01*
X84662Y-59737D01*
X84662Y-59737D01*
X83825Y-58900D01*
X83825Y-57425D01*
X83787Y-57333D01*
X83716Y-57262D01*
X83625Y-57224D01*
X83525Y-57224D01*
X82175Y-57224D01*
X82083Y-57262D01*
X82012Y-57333D01*
X81974Y-57424D01*
X81974Y-57524D01*
X81974Y-59374D01*
X82012Y-59466D01*
X82083Y-59537D01*
X82174Y-59575D01*
X82274Y-59575D01*
X83624Y-59575D01*
X83643Y-59567D01*
X83900Y-59824D01*
X83675Y-59824D01*
X83583Y-59862D01*
X83513Y-59933D01*
X83475Y-60025D01*
X83474Y-60124D01*
X83474Y-60250D01*
X83437Y-60287D01*
X83372Y-60385D01*
X83350Y-60500D01*
X83350Y-60851D01*
X83324Y-60862D01*
X83162Y-61023D01*
X83150Y-61054D01*
X83137Y-61024D01*
X82976Y-60862D01*
X82764Y-60775D01*
X82536Y-60774D01*
X82442Y-60813D01*
X82427Y-60735D01*
X82362Y-60637D01*
X82362Y-60637D01*
X81675Y-59950D01*
X81675Y-50274D01*
X81675Y-50212D01*
X81612Y-50150D01*
X81250Y-50150D01*
X81250Y-50412D01*
X81312Y-50475D01*
X81375Y-50475D01*
X81474Y-50474D01*
X81566Y-50436D01*
X81637Y-50366D01*
X81675Y-50274D01*
X81675Y-59950D01*
X81000Y-59275D01*
X81000Y-55675D01*
X81424Y-55675D01*
X81516Y-55637D01*
X81587Y-55566D01*
X81625Y-55475D01*
X81625Y-55375D01*
X81625Y-53525D01*
X81587Y-53433D01*
X81516Y-53362D01*
X81425Y-53324D01*
X81325Y-53324D01*
X81150Y-53324D01*
X81150Y-50412D01*
X81150Y-50150D01*
X80787Y-50150D01*
X80725Y-50212D01*
X80724Y-50274D01*
X80762Y-50366D01*
X80833Y-50436D01*
X80925Y-50474D01*
X81024Y-50475D01*
X81087Y-50475D01*
X81150Y-50412D01*
X81150Y-53324D01*
X80275Y-53324D01*
X80275Y-50117D01*
X80275Y-50062D01*
X80213Y-50000D01*
X79800Y-50000D01*
X79800Y-50255D01*
X79862Y-50318D01*
X79975Y-50318D01*
X80075Y-50317D01*
X80167Y-50279D01*
X80237Y-50209D01*
X80275Y-50117D01*
X80275Y-53324D01*
X79975Y-53324D01*
X79883Y-53362D01*
X79812Y-53433D01*
X79774Y-53524D01*
X79774Y-53624D01*
X79774Y-54200D01*
X79700Y-54200D01*
X79700Y-50255D01*
X79700Y-50000D01*
X79287Y-50000D01*
X79224Y-50062D01*
X79224Y-50117D01*
X79262Y-50209D01*
X79332Y-50279D01*
X79424Y-50317D01*
X79524Y-50318D01*
X79637Y-50318D01*
X79700Y-50255D01*
X79700Y-54200D01*
X79375Y-54200D01*
X79375Y-51075D01*
X79375Y-50724D01*
X79374Y-50625D01*
X79336Y-50533D01*
X79266Y-50462D01*
X79174Y-50424D01*
X79112Y-50425D01*
X79050Y-50487D01*
X79050Y-50850D01*
X79312Y-50850D01*
X79375Y-50787D01*
X79375Y-50724D01*
X79375Y-51075D01*
X79375Y-51012D01*
X79312Y-50950D01*
X79050Y-50950D01*
X79050Y-51312D01*
X79112Y-51375D01*
X79174Y-51375D01*
X79266Y-51337D01*
X79336Y-51266D01*
X79374Y-51174D01*
X79375Y-51075D01*
X79375Y-54200D01*
X79003Y-54200D01*
X79036Y-54166D01*
X79074Y-54074D01*
X79075Y-53975D01*
X79075Y-53725D01*
X79037Y-53633D01*
X78966Y-53563D01*
X78874Y-53525D01*
X78775Y-53524D01*
X78642Y-53524D01*
X78564Y-53472D01*
X78450Y-53450D01*
X77897Y-53450D01*
X77867Y-53420D01*
X77775Y-53382D01*
X77760Y-53382D01*
X77760Y-51593D01*
X77840Y-51560D01*
X77960Y-51441D01*
X78024Y-51284D01*
X78025Y-51200D01*
X78035Y-51200D01*
X78062Y-51266D01*
X78133Y-51336D01*
X78225Y-51374D01*
X78324Y-51375D01*
X78574Y-51375D01*
X78666Y-51337D01*
X78700Y-51303D01*
X78733Y-51337D01*
X78825Y-51375D01*
X78887Y-51375D01*
X78950Y-51312D01*
X78950Y-50950D01*
X78942Y-50950D01*
X78942Y-50850D01*
X78950Y-50850D01*
X78950Y-50487D01*
X78887Y-50425D01*
X78825Y-50424D01*
X78733Y-50462D01*
X78700Y-50496D01*
X78666Y-50463D01*
X78574Y-50425D01*
X78475Y-50424D01*
X78225Y-50424D01*
X78133Y-50462D01*
X78063Y-50533D01*
X78035Y-50600D01*
X77950Y-50600D01*
X77950Y-50318D01*
X77975Y-50318D01*
X78066Y-50280D01*
X78137Y-50209D01*
X78175Y-50117D01*
X78175Y-50018D01*
X78175Y-49782D01*
X78141Y-49699D01*
X78175Y-49617D01*
X78175Y-49518D01*
X78175Y-49282D01*
X78162Y-49250D01*
X78475Y-49250D01*
X78887Y-49662D01*
X78887Y-49662D01*
X78985Y-49727D01*
X79100Y-49750D01*
X79237Y-49750D01*
X79224Y-49782D01*
X79224Y-49837D01*
X79287Y-49900D01*
X79700Y-49900D01*
X79700Y-49892D01*
X79800Y-49892D01*
X79800Y-49900D01*
X80213Y-49900D01*
X80275Y-49837D01*
X80275Y-49782D01*
X80262Y-49750D01*
X80756Y-49750D01*
X80762Y-49766D01*
X80796Y-49800D01*
X80762Y-49833D01*
X80724Y-49925D01*
X80725Y-49987D01*
X80787Y-50050D01*
X81150Y-50050D01*
X81150Y-50042D01*
X81250Y-50042D01*
X81250Y-50050D01*
X81612Y-50050D01*
X81675Y-49987D01*
X81675Y-49925D01*
X81637Y-49833D01*
X81603Y-49800D01*
X81636Y-49766D01*
X81674Y-49674D01*
X81675Y-49575D01*
X81675Y-49325D01*
X81637Y-49233D01*
X81566Y-49163D01*
X81474Y-49125D01*
X81375Y-49124D01*
X81199Y-49124D01*
X81249Y-49075D01*
X81474Y-49075D01*
X81566Y-49037D01*
X81603Y-49000D01*
X81974Y-49000D01*
X81974Y-49774D01*
X82012Y-49866D01*
X82083Y-49937D01*
X82174Y-49975D01*
X82274Y-49975D01*
X83624Y-49975D01*
X83716Y-49937D01*
X83787Y-49866D01*
X83825Y-49775D01*
X83825Y-49675D01*
X83825Y-47825D01*
X83787Y-47733D01*
X83716Y-47662D01*
X83625Y-47624D01*
X83525Y-47624D01*
X82175Y-47624D01*
X82083Y-47662D01*
X82012Y-47733D01*
X81974Y-47824D01*
X81974Y-47924D01*
X81974Y-48400D01*
X81603Y-48400D01*
X81636Y-48366D01*
X81674Y-48274D01*
X81675Y-48175D01*
X81675Y-47925D01*
X81637Y-47833D01*
X81566Y-47763D01*
X81500Y-47735D01*
X81500Y-45581D01*
X81532Y-45568D01*
X81603Y-45497D01*
X81641Y-45405D01*
X81641Y-45365D01*
X84150Y-47874D01*
X84150Y-55948D01*
X84089Y-56008D01*
X84025Y-56165D01*
X84024Y-56334D01*
X84089Y-56490D01*
X84208Y-56610D01*
X84365Y-56674D01*
X84534Y-56675D01*
X84690Y-56610D01*
X84810Y-56491D01*
X84874Y-56334D01*
X84875Y-56165D01*
X84810Y-56009D01*
X84750Y-55948D01*
X84750Y-47750D01*
X84727Y-47635D01*
X84662Y-47537D01*
X84662Y-47537D01*
X83799Y-46675D01*
X83874Y-46675D01*
X85224Y-46675D01*
X85316Y-46637D01*
X85387Y-46566D01*
X85425Y-46475D01*
X85425Y-46375D01*
X85425Y-44525D01*
X85387Y-44433D01*
X85316Y-44362D01*
X85225Y-44324D01*
X85125Y-44324D01*
X83775Y-44324D01*
X83683Y-44362D01*
X83612Y-44433D01*
X83574Y-44524D01*
X83574Y-44624D01*
X83574Y-45200D01*
X83024Y-45200D01*
X82450Y-44625D01*
X82450Y-43889D01*
X82535Y-43924D01*
X82763Y-43925D01*
X82975Y-43837D01*
X83137Y-43676D01*
X83149Y-43645D01*
X83162Y-43675D01*
X83323Y-43837D01*
X83535Y-43924D01*
X83763Y-43925D01*
X83975Y-43837D01*
X84137Y-43676D01*
X84149Y-43645D01*
X84162Y-43675D01*
X84323Y-43837D01*
X84535Y-43924D01*
X84763Y-43925D01*
X84975Y-43837D01*
X85137Y-43676D01*
X85149Y-43645D01*
X85162Y-43675D01*
X85323Y-43837D01*
X85535Y-43924D01*
X85763Y-43925D01*
X85975Y-43837D01*
X86137Y-43676D01*
X86149Y-43645D01*
X86162Y-43675D01*
X86323Y-43837D01*
X86535Y-43924D01*
X86763Y-43925D01*
X86975Y-43837D01*
X87137Y-43676D01*
X87149Y-43645D01*
X87162Y-43675D01*
X87323Y-43837D01*
X87535Y-43924D01*
X87763Y-43925D01*
X87975Y-43837D01*
X88137Y-43676D01*
X88149Y-43645D01*
X88162Y-43675D01*
X88323Y-43837D01*
X88535Y-43924D01*
X88763Y-43925D01*
X88975Y-43837D01*
X89137Y-43676D01*
X89149Y-43645D01*
X89162Y-43675D01*
X89323Y-43837D01*
X89535Y-43924D01*
X89763Y-43925D01*
X89975Y-43837D01*
X90137Y-43676D01*
X90149Y-43645D01*
X90162Y-43675D01*
X90323Y-43837D01*
X90535Y-43924D01*
X90763Y-43925D01*
X90975Y-43837D01*
X91137Y-43676D01*
X91149Y-43645D01*
X91162Y-43675D01*
X91323Y-43837D01*
X91535Y-43924D01*
X91763Y-43925D01*
X91975Y-43837D01*
X92137Y-43676D01*
X92149Y-43645D01*
X92162Y-43675D01*
X92323Y-43837D01*
X92535Y-43924D01*
X92763Y-43925D01*
X92975Y-43837D01*
X93137Y-43676D01*
X93149Y-43645D01*
X93162Y-43675D01*
X93323Y-43837D01*
X93535Y-43924D01*
X93763Y-43925D01*
X93975Y-43837D01*
X94137Y-43676D01*
X94149Y-43645D01*
X94162Y-43675D01*
X94323Y-43837D01*
X94535Y-43924D01*
X94763Y-43925D01*
X94975Y-43837D01*
X95137Y-43676D01*
X95149Y-43645D01*
X95162Y-43675D01*
X95323Y-43837D01*
X95535Y-43924D01*
X95763Y-43925D01*
X95975Y-43837D01*
X96137Y-43676D01*
X96224Y-43464D01*
X96225Y-43236D01*
X96137Y-43024D01*
X95976Y-42862D01*
X95945Y-42850D01*
X95975Y-42837D01*
X96137Y-42676D01*
X96224Y-42464D01*
X96225Y-42236D01*
X96180Y-42128D01*
X96704Y-42232D01*
X98243Y-43262D01*
X99264Y-44787D01*
X99630Y-46635D01*
X99630Y-58064D01*
M02*
