M48
;DRILL file {Pcbnew (2013-07-07 BZR 4022)-stable} date 3/24/2015 12:33:24 PM
;FORMAT={-:-/ absolute / inch / decimal}
FMAT,2
INCH,TZ
T1C0.025
T2C0.040
%
G90
G05
M72
T1
X6.755Y-6.21
X6.765Y-5.74
X6.945Y-5.735
X6.99Y-5.735
X7.28Y-5.545
X7.33Y-5.545
X7.38Y-5.545
X7.42Y-4.72
X7.47Y-4.72
X7.52Y-4.72
X7.66Y-5.25
X7.66Y-5.3
X7.68Y-5.44
X7.68Y-5.49
X7.76Y-5.12
X7.8Y-5.42
X7.84Y-4.995
X7.895Y-4.995
X7.96Y-6.005
X7.99Y-4.51
X8.165Y-4.565
X8.2Y-4.6
X8.235Y-4.635
X8.445Y-5.625
X8.515Y-6.09
X8.615Y-6.065
X8.675Y-5.015
X8.675Y-5.09
X8.715Y-5.065
X8.82Y-5.62
X8.825Y-5.715
X8.825Y-5.77
X8.825Y-5.82
X8.85Y-5.04
X8.87Y-5.14
X8.94Y-5.13
X9.01Y-5.75
X9.02Y-5.7
X9.06Y-5.74
X9.335Y-4.575
X9.385Y-5.995
X9.395Y-4.575
X9.43Y-5.995
X9.455Y-4.575
X9.51Y-5.915
X9.515Y-4.575
X9.55Y-5.88
X9.905Y-5.295
X9.935Y-4.89
X9.935Y-4.945
X9.935Y-5.
X9.935Y-5.055
T2
X7.365Y-4.235
X7.365Y-4.335
X7.365Y-6.135
X7.365Y-6.235
X7.465Y-4.235
X7.465Y-4.335
X7.465Y-6.135
X7.465Y-6.235
X7.565Y-4.235
X7.565Y-4.335
X7.565Y-6.135
X7.565Y-6.235
X7.665Y-4.235
X7.665Y-4.335
X7.665Y-6.135
X7.665Y-6.235
X7.765Y-4.235
X7.765Y-4.335
X7.765Y-6.135
X7.765Y-6.235
X7.865Y-4.235
X7.865Y-4.335
X7.865Y-6.135
X7.865Y-6.235
X7.965Y-4.235
X7.965Y-4.335
X7.965Y-6.135
X7.965Y-6.235
X8.065Y-4.235
X8.065Y-4.335
X8.065Y-6.135
X8.065Y-6.235
X8.165Y-4.235
X8.165Y-4.335
X8.165Y-6.135
X8.165Y-6.235
X8.265Y-4.235
X8.265Y-4.335
X8.265Y-6.135
X8.265Y-6.235
X8.365Y-4.235
X8.365Y-4.335
X8.365Y-6.135
X8.365Y-6.235
X8.465Y-4.235
X8.465Y-4.335
X8.465Y-6.135
X8.465Y-6.235
X8.565Y-4.235
X8.565Y-4.335
X8.565Y-6.135
X8.565Y-6.235
X8.665Y-4.235
X8.665Y-4.335
X8.665Y-6.135
X8.665Y-6.235
X8.765Y-4.235
X8.765Y-4.335
X8.765Y-6.135
X8.765Y-6.235
X8.865Y-4.235
X8.865Y-4.335
X8.865Y-6.135
X8.865Y-6.235
X8.965Y-4.235
X8.965Y-4.335
X8.965Y-6.135
X8.965Y-6.235
X9.065Y-4.235
X9.065Y-4.335
X9.065Y-6.135
X9.065Y-6.235
X9.165Y-4.235
X9.165Y-4.335
X9.165Y-6.135
X9.165Y-6.235
X9.265Y-4.235
X9.265Y-4.335
X9.265Y-6.135
X9.265Y-6.235
X9.365Y-4.235
X9.365Y-4.335
X9.365Y-6.135
X9.365Y-6.235
X9.465Y-4.235
X9.465Y-4.335
X9.465Y-6.135
X9.465Y-6.235
X9.565Y-4.235
X9.565Y-4.335
X9.565Y-6.135
X9.565Y-6.235
T0
M30
