G04 (created by PCBNEW (2013-07-07 BZR 4022)-stable) date 2/24/2015 5:12:16 PM*
%MOIN*%
G04 Gerber Fmt 3.4, Leading zero omitted, Abs format*
%FSLAX34Y34*%
G01*
G70*
G90*
G04 APERTURE LIST*
%ADD10C,0.00590551*%
%ADD11R,0.135039X0.185039*%
%ADD12R,0.0217X0.0118*%
%ADD13R,0.0276X0.0394*%
%ADD14R,0.0314961X0.023622*%
%ADD15R,0.0551X0.0236*%
%ADD16R,0.025X0.045*%
%ADD17R,0.045X0.025*%
%ADD18C,0.065*%
G04 APERTURE END LIST*
G54D10*
G54D11*
X75200Y-57900D03*
X97350Y-49200D03*
X97350Y-51550D03*
X95350Y-57100D03*
X92900Y-57100D03*
X82900Y-48800D03*
X78100Y-57500D03*
X80700Y-54500D03*
X92200Y-52100D03*
X92200Y-49100D03*
X87500Y-52300D03*
X72800Y-57900D03*
X84500Y-45500D03*
X82900Y-58400D03*
X85300Y-58300D03*
X89400Y-47500D03*
G54D12*
X80717Y-45297D03*
X80717Y-45100D03*
X80717Y-44903D03*
X81283Y-44903D03*
X81283Y-45100D03*
X81283Y-45297D03*
G54D13*
X89025Y-49700D03*
X89400Y-49700D03*
X89775Y-49700D03*
X89775Y-50700D03*
X89400Y-50700D03*
X89025Y-50700D03*
G54D14*
X78116Y-47100D03*
X77683Y-47100D03*
G54D15*
X77450Y-53750D03*
X75350Y-53750D03*
X77450Y-54250D03*
X77450Y-54750D03*
X77450Y-55250D03*
X75350Y-54250D03*
X75350Y-54750D03*
X75350Y-55250D03*
X77650Y-49950D03*
X79750Y-49950D03*
X77650Y-49450D03*
X77650Y-48950D03*
X77650Y-48450D03*
X79750Y-49450D03*
X79750Y-48950D03*
X79750Y-48450D03*
X67650Y-59350D03*
X69750Y-59350D03*
X67650Y-58850D03*
X67650Y-58350D03*
X67650Y-57850D03*
X69750Y-58850D03*
X69750Y-58350D03*
X69750Y-57850D03*
G54D16*
X76800Y-47100D03*
X76200Y-47100D03*
X67700Y-60400D03*
X68300Y-60400D03*
X74500Y-59900D03*
X73900Y-59900D03*
G54D17*
X70900Y-58300D03*
X70900Y-58900D03*
G54D16*
X93900Y-59300D03*
X94500Y-59300D03*
X91400Y-59300D03*
X92000Y-59300D03*
G54D17*
X78600Y-53900D03*
X78600Y-54500D03*
G54D16*
X75400Y-56150D03*
X74800Y-56150D03*
X78400Y-50900D03*
X79000Y-50900D03*
G54D17*
X81200Y-48700D03*
X81200Y-48100D03*
X66600Y-56300D03*
X66600Y-56900D03*
X76200Y-50600D03*
X76200Y-50000D03*
G54D16*
X77500Y-59400D03*
X78100Y-59400D03*
G54D17*
X76200Y-49300D03*
X76200Y-48700D03*
X81200Y-49500D03*
X81200Y-50100D03*
G54D16*
X89600Y-57050D03*
X89000Y-57050D03*
X89600Y-58200D03*
X89000Y-58200D03*
X89600Y-59300D03*
X89000Y-59300D03*
X71000Y-60400D03*
X70400Y-60400D03*
G54D17*
X87900Y-49800D03*
X87900Y-50400D03*
G54D16*
X69600Y-60400D03*
X69000Y-60400D03*
X69000Y-56700D03*
X69600Y-56700D03*
G54D17*
X67800Y-56300D03*
X67800Y-56900D03*
G54D18*
X73650Y-43350D03*
X73650Y-42350D03*
X74650Y-43350D03*
X74650Y-42350D03*
X75650Y-43350D03*
X75650Y-42350D03*
X76650Y-43350D03*
X76650Y-42350D03*
X77650Y-43350D03*
X77650Y-42350D03*
X78650Y-43350D03*
X78650Y-42350D03*
X79650Y-43350D03*
X79650Y-42350D03*
X80650Y-43350D03*
X80650Y-42350D03*
X81650Y-43350D03*
X81650Y-42350D03*
X82650Y-43350D03*
X82650Y-42350D03*
X83650Y-43350D03*
X83650Y-42350D03*
X84650Y-43350D03*
X84650Y-42350D03*
X85650Y-43350D03*
X85650Y-42350D03*
X86650Y-43350D03*
X86650Y-42350D03*
X87650Y-43350D03*
X87650Y-42350D03*
X88650Y-43350D03*
X88650Y-42350D03*
X89650Y-43350D03*
X89650Y-42350D03*
X90650Y-43350D03*
X90650Y-42350D03*
X91650Y-43350D03*
X91650Y-42350D03*
X92650Y-43350D03*
X92650Y-42350D03*
X93650Y-43350D03*
X93650Y-42350D03*
X94650Y-43350D03*
X94650Y-42350D03*
X95650Y-43350D03*
X95650Y-42350D03*
X73650Y-62350D03*
X73650Y-61350D03*
X74650Y-62350D03*
X74650Y-61350D03*
X75650Y-62350D03*
X75650Y-61350D03*
X76650Y-62350D03*
X76650Y-61350D03*
X77650Y-62350D03*
X77650Y-61350D03*
X78650Y-62350D03*
X78650Y-61350D03*
X79650Y-62350D03*
X79650Y-61350D03*
X80650Y-62350D03*
X80650Y-61350D03*
X81650Y-62350D03*
X81650Y-61350D03*
X82650Y-62350D03*
X82650Y-61350D03*
X83650Y-62350D03*
X83650Y-61350D03*
X84650Y-62350D03*
X84650Y-61350D03*
X85650Y-62350D03*
X85650Y-61350D03*
X86650Y-62350D03*
X86650Y-61350D03*
X87650Y-62350D03*
X87650Y-61350D03*
X88650Y-62350D03*
X88650Y-61350D03*
X89650Y-62350D03*
X89650Y-61350D03*
X90650Y-62350D03*
X90650Y-61350D03*
X91650Y-62350D03*
X91650Y-61350D03*
X92650Y-62350D03*
X92650Y-61350D03*
X93650Y-62350D03*
X93650Y-61350D03*
X94650Y-62350D03*
X94650Y-61350D03*
X95650Y-62350D03*
X95650Y-61350D03*
G54D11*
X71500Y-45600D03*
M02*
