G04 (created by PCBNEW (2013-07-07 BZR 4022)-stable) date 3/24/2015 12:33:15 PM*
%MOIN*%
G04 Gerber Fmt 3.4, Leading zero omitted, Abs format*
%FSLAX34Y34*%
G01*
G70*
G90*
G04 APERTURE LIST*
%ADD10C,0.00590551*%
%ADD11C,0.011811*%
G04 APERTURE END LIST*
G54D10*
G54D11*
X95733Y-44445D02*
X95733Y-44923D01*
X95761Y-44979D01*
X95789Y-45007D01*
X95846Y-45035D01*
X95930Y-45035D01*
X95986Y-45007D01*
X95733Y-44810D02*
X95789Y-44839D01*
X95902Y-44839D01*
X95958Y-44810D01*
X95986Y-44782D01*
X96014Y-44726D01*
X96014Y-44557D01*
X95986Y-44501D01*
X95958Y-44473D01*
X95902Y-44445D01*
X95789Y-44445D01*
X95733Y-44473D01*
X95452Y-44839D02*
X95452Y-44445D01*
X95452Y-44248D02*
X95480Y-44276D01*
X95452Y-44304D01*
X95424Y-44276D01*
X95452Y-44248D01*
X95452Y-44304D01*
X95255Y-44445D02*
X95030Y-44445D01*
X95171Y-44248D02*
X95171Y-44754D01*
X95142Y-44810D01*
X95086Y-44839D01*
X95030Y-44839D01*
X94833Y-44839D02*
X94833Y-44248D01*
X94580Y-44839D02*
X94580Y-44529D01*
X94608Y-44473D01*
X94664Y-44445D01*
X94749Y-44445D01*
X94805Y-44473D01*
X94833Y-44501D01*
X94046Y-44445D02*
X94046Y-44839D01*
X94299Y-44445D02*
X94299Y-44754D01*
X94271Y-44810D01*
X94214Y-44839D01*
X94130Y-44839D01*
X94074Y-44810D01*
X94046Y-44782D01*
X93765Y-44839D02*
X93765Y-44248D01*
X93765Y-44473D02*
X93708Y-44445D01*
X93596Y-44445D01*
X93540Y-44473D01*
X93511Y-44501D01*
X93483Y-44557D01*
X93483Y-44726D01*
X93511Y-44782D01*
X93540Y-44810D01*
X93596Y-44839D01*
X93708Y-44839D01*
X93765Y-44810D01*
X93230Y-44782D02*
X93202Y-44810D01*
X93230Y-44839D01*
X93258Y-44810D01*
X93230Y-44782D01*
X93230Y-44839D01*
X92696Y-44810D02*
X92752Y-44839D01*
X92865Y-44839D01*
X92921Y-44810D01*
X92949Y-44782D01*
X92977Y-44726D01*
X92977Y-44557D01*
X92949Y-44501D01*
X92921Y-44473D01*
X92865Y-44445D01*
X92752Y-44445D01*
X92696Y-44473D01*
X92358Y-44839D02*
X92415Y-44810D01*
X92443Y-44782D01*
X92471Y-44726D01*
X92471Y-44557D01*
X92443Y-44501D01*
X92415Y-44473D01*
X92358Y-44445D01*
X92274Y-44445D01*
X92218Y-44473D01*
X92190Y-44501D01*
X92162Y-44557D01*
X92162Y-44726D01*
X92190Y-44782D01*
X92218Y-44810D01*
X92274Y-44839D01*
X92358Y-44839D01*
X91908Y-44839D02*
X91908Y-44445D01*
X91908Y-44501D02*
X91880Y-44473D01*
X91824Y-44445D01*
X91740Y-44445D01*
X91684Y-44473D01*
X91655Y-44529D01*
X91655Y-44839D01*
X91655Y-44529D02*
X91627Y-44473D01*
X91571Y-44445D01*
X91487Y-44445D01*
X91430Y-44473D01*
X91402Y-44529D01*
X91402Y-44839D01*
X90699Y-44220D02*
X91205Y-44979D01*
X90249Y-44445D02*
X90249Y-44923D01*
X90277Y-44979D01*
X90306Y-45007D01*
X90362Y-45035D01*
X90446Y-45035D01*
X90502Y-45007D01*
X90249Y-44810D02*
X90306Y-44839D01*
X90418Y-44839D01*
X90474Y-44810D01*
X90502Y-44782D01*
X90531Y-44726D01*
X90531Y-44557D01*
X90502Y-44501D01*
X90474Y-44473D01*
X90418Y-44445D01*
X90306Y-44445D01*
X90249Y-44473D01*
X89968Y-44839D02*
X89968Y-44445D01*
X89968Y-44557D02*
X89940Y-44501D01*
X89912Y-44473D01*
X89856Y-44445D01*
X89799Y-44445D01*
X89349Y-44839D02*
X89349Y-44529D01*
X89378Y-44473D01*
X89434Y-44445D01*
X89546Y-44445D01*
X89603Y-44473D01*
X89349Y-44810D02*
X89406Y-44839D01*
X89546Y-44839D01*
X89603Y-44810D01*
X89631Y-44754D01*
X89631Y-44698D01*
X89603Y-44642D01*
X89546Y-44614D01*
X89406Y-44614D01*
X89349Y-44585D01*
X89124Y-44445D02*
X88984Y-44839D01*
X88843Y-44445D02*
X88984Y-44839D01*
X89040Y-44979D01*
X89068Y-45007D01*
X89124Y-45035D01*
X88365Y-44810D02*
X88421Y-44839D01*
X88534Y-44839D01*
X88590Y-44810D01*
X88618Y-44782D01*
X88646Y-44726D01*
X88646Y-44557D01*
X88618Y-44501D01*
X88590Y-44473D01*
X88534Y-44445D01*
X88421Y-44445D01*
X88365Y-44473D01*
X87859Y-44839D02*
X87859Y-44529D01*
X87887Y-44473D01*
X87943Y-44445D01*
X88056Y-44445D01*
X88112Y-44473D01*
X87859Y-44810D02*
X87915Y-44839D01*
X88056Y-44839D01*
X88112Y-44810D01*
X88140Y-44754D01*
X88140Y-44698D01*
X88112Y-44642D01*
X88056Y-44614D01*
X87915Y-44614D01*
X87859Y-44585D01*
X87662Y-44445D02*
X87437Y-44445D01*
X87578Y-44248D02*
X87578Y-44754D01*
X87550Y-44810D01*
X87493Y-44839D01*
X87437Y-44839D01*
X87156Y-44839D02*
X87212Y-44810D01*
X87240Y-44754D01*
X87240Y-44248D01*
X86678Y-44839D02*
X86678Y-44529D01*
X86706Y-44473D01*
X86762Y-44445D01*
X86875Y-44445D01*
X86931Y-44473D01*
X86678Y-44810D02*
X86734Y-44839D01*
X86875Y-44839D01*
X86931Y-44810D01*
X86959Y-44754D01*
X86959Y-44698D01*
X86931Y-44642D01*
X86875Y-44614D01*
X86734Y-44614D01*
X86678Y-44585D01*
X86397Y-44839D02*
X86397Y-44248D01*
X86397Y-44473D02*
X86340Y-44445D01*
X86228Y-44445D01*
X86172Y-44473D01*
X86144Y-44501D01*
X86115Y-44557D01*
X86115Y-44726D01*
X86144Y-44782D01*
X86172Y-44810D01*
X86228Y-44839D01*
X86340Y-44839D01*
X86397Y-44810D01*
X85891Y-44810D02*
X85834Y-44839D01*
X85722Y-44839D01*
X85666Y-44810D01*
X85637Y-44754D01*
X85637Y-44726D01*
X85666Y-44670D01*
X85722Y-44642D01*
X85806Y-44642D01*
X85862Y-44614D01*
X85891Y-44557D01*
X85891Y-44529D01*
X85862Y-44473D01*
X85806Y-44445D01*
X85722Y-44445D01*
X85666Y-44473D01*
X84962Y-44220D02*
X85469Y-44979D01*
X84766Y-44248D02*
X84766Y-44726D01*
X84738Y-44782D01*
X84709Y-44810D01*
X84653Y-44839D01*
X84541Y-44839D01*
X84484Y-44810D01*
X84456Y-44782D01*
X84428Y-44726D01*
X84428Y-44248D01*
X84231Y-44248D02*
X83894Y-44248D01*
X84063Y-44839D02*
X84063Y-44248D01*
X83360Y-44782D02*
X83388Y-44810D01*
X83472Y-44839D01*
X83528Y-44839D01*
X83613Y-44810D01*
X83669Y-44754D01*
X83697Y-44698D01*
X83725Y-44585D01*
X83725Y-44501D01*
X83697Y-44389D01*
X83669Y-44332D01*
X83613Y-44276D01*
X83528Y-44248D01*
X83472Y-44248D01*
X83388Y-44276D01*
X83360Y-44304D01*
X82853Y-44839D02*
X82853Y-44529D01*
X82882Y-44473D01*
X82938Y-44445D01*
X83050Y-44445D01*
X83106Y-44473D01*
X82853Y-44810D02*
X82910Y-44839D01*
X83050Y-44839D01*
X83106Y-44810D01*
X83135Y-44754D01*
X83135Y-44698D01*
X83106Y-44642D01*
X83050Y-44614D01*
X82910Y-44614D01*
X82853Y-44585D01*
X82572Y-44445D02*
X82572Y-45035D01*
X82572Y-44473D02*
X82516Y-44445D01*
X82403Y-44445D01*
X82347Y-44473D01*
X82319Y-44501D01*
X82291Y-44557D01*
X82291Y-44726D01*
X82319Y-44782D01*
X82347Y-44810D01*
X82403Y-44839D01*
X82516Y-44839D01*
X82572Y-44810D01*
X81813Y-44810D02*
X81869Y-44839D01*
X81982Y-44839D01*
X82038Y-44810D01*
X82066Y-44754D01*
X82066Y-44529D01*
X82038Y-44473D01*
X81982Y-44445D01*
X81869Y-44445D01*
X81813Y-44473D01*
X81785Y-44529D01*
X81785Y-44585D01*
X82066Y-44642D01*
M02*
